<ttFont>
    <TTGlyph name="A" xMin="-45" yMin="0" xMax="574" yMax="710">
      <contour>
        <pt x="386" y="710" on="1"/>
        <pt x="446" y="710" on="1"/>
        <pt x="574" y="0" on="1"/>
        <pt x="500" y="0" on="1"/>
        <pt x="461" y="222" on="1"/>
        <pt x="162" y="222" on="1"/>
        <pt x="30" y="0" on="1"/>
        <pt x="-45" y="0" on="1"/>
      </contour>
      <contour>
        <pt x="457" y="277" on="1"/>
        <pt x="399" y="628" on="1"/>
        <pt x="188" y="277" on="1"/>
      </contour>
    </TTGlyph>
    <TTGlyph name="A.sc" xMin="-41" yMin="0" xMax="483" yMax="548">
      <contour>
        <pt x="312" y="548" on="1"/>
        <pt x="364" y="548" on="1"/>
        <pt x="483" y="0" on="1"/>
        <pt x="417" y="0" on="1"/>
        <pt x="381" y="165" on="1"/>
        <pt x="132" y="165" on="1"/>
        <pt x="26" y="0" on="1"/>
        <pt x="-41" y="0" on="1"/>
      </contour>
      <contour>
        <pt x="377" y="220" on="1"/>
        <pt x="321" y="470" on="1"/>
        <pt x="159" y="220" on="1"/>
      </contour>
    </TTGlyph>
    <TTGlyph name="AE" xMin="-81" yMin="0" xMax="962" yMax="710">
      <contour>
        <pt x="503" y="710" on="1"/>
        <pt x="962" y="710" on="1"/>
        <pt x="948" y="648" on="1"/>
        <pt x="577" y="648" on="1"/>
        <pt x="524" y="393" on="1"/>
        <pt x="843" y="393" on="1"/>
        <pt x="829" y="331" on="1"/>
        <pt x="510" y="331" on="1"/>
        <pt x="453" y="62" on="1"/>
        <pt x="832" y="62" on="1"/>
        <pt x="819" y="0" on="1"/>
        <pt x="371" y="0" on="1"/>
        <pt x="418" y="222" on="1"/>
        <pt x="174" y="222" on="1"/>
        <pt x="-5" y="0" on="1"/>
        <pt x="-81" y="0" on="1"/>
      </contour>
      <contour>
        <pt x="427" y="284" on="1"/>
        <pt x="500" y="626" on="1"/>
        <pt x="219" y="284" on="1"/>
      </contour>
    </TTGlyph>
    <TTGlyph name="AEacute" xMin="-81" yMin="0" xMax="962" yMax="917">
      <contour>
        <pt x="573" y="807" on="1"/>
        <pt x="531" y="824" on="1"/>
        <pt x="607" y="917" on="1"/>
        <pt x="678" y="917" on="1"/>
      </contour>
      <contour>
        <pt x="503" y="710" on="1"/>
        <pt x="962" y="710" on="1"/>
        <pt x="948" y="648" on="1"/>
        <pt x="577" y="648" on="1"/>
        <pt x="524" y="393" on="1"/>
        <pt x="843" y="393" on="1"/>
        <pt x="829" y="331" on="1"/>
        <pt x="510" y="331" on="1"/>
        <pt x="453" y="62" on="1"/>
        <pt x="832" y="62" on="1"/>
        <pt x="819" y="0" on="1"/>
        <pt x="371" y="0" on="1"/>
        <pt x="418" y="222" on="1"/>
        <pt x="174" y="222" on="1"/>
        <pt x="-5" y="0" on="1"/>
        <pt x="-81" y="0" on="1"/>
      </contour>
      <contour>
        <pt x="427" y="284" on="1"/>
        <pt x="500" y="626" on="1"/>
        <pt x="219" y="284" on="1"/>
      </contour>
    </TTGlyph>
    <TTGlyph name="Aacute" xMin="-45" yMin="0" xMax="574" yMax="917">
      <contour>
        <pt x="386" y="710" on="1"/>
        <pt x="446" y="710" on="1"/>
        <pt x="574" y="0" on="1"/>
        <pt x="500" y="0" on="1"/>
        <pt x="461" y="222" on="1"/>
        <pt x="162" y="222" on="1"/>
        <pt x="30" y="0" on="1"/>
        <pt x="-45" y="0" on="1"/>
      </contour>
      <contour>
        <pt x="457" y="277" on="1"/>
        <pt x="399" y="628" on="1"/>
        <pt x="188" y="277" on="1"/>
      </contour>
      <contour>
        <pt x="431" y="807" on="1"/>
        <pt x="389" y="824" on="1"/>
        <pt x="465" y="917" on="1"/>
        <pt x="536" y="917" on="1"/>
      </contour>
    </TTGlyph>
    <TTGlyph name="Abreve" xMin="-45" yMin="0" xMax="574" yMax="917">
      <contour>
        <pt x="386" y="710" on="1"/>
        <pt x="446" y="710" on="1"/>
        <pt x="574" y="0" on="1"/>
        <pt x="500" y="0" on="1"/>
        <pt x="461" y="222" on="1"/>
        <pt x="162" y="222" on="1"/>
        <pt x="30" y="0" on="1"/>
        <pt x="-45" y="0" on="1"/>
      </contour>
      <contour>
        <pt x="457" y="277" on="1"/>
        <pt x="399" y="628" on="1"/>
        <pt x="188" y="277" on="1"/>
      </contour>
      <contour>
        <pt x="438" y="851" on="1"/>
        <pt x="458" y="851" on="0"/>
        <pt x="498" y="889" on="0"/>
        <pt x="507" y="917" on="1"/>
        <pt x="547" y="917" on="1"/>
        <pt x="542" y="896" on="0"/>
        <pt x="520" y="859" on="0"/>
        <pt x="489" y="832" on="0"/>
        <pt x="451" y="816" on="0"/>
        <pt x="431" y="816" on="1"/>
        <pt x="396" y="816" on="0"/>
        <pt x="354" y="860" on="0"/>
        <pt x="354" y="894" on="1"/>
        <pt x="354" y="905" on="0"/>
        <pt x="357" y="917" on="1"/>
        <pt x="399" y="917" on="1"/>
        <pt x="397" y="907" on="0"/>
        <pt x="397" y="902" on="1"/>
        <pt x="397" y="881" on="0"/>
        <pt x="420" y="851" on="0"/>
      </contour>
    </TTGlyph>
    <TTGlyph name="Acircumflex" xMin="-45" yMin="0" xMax="574" yMax="917">
      <contour>
        <pt x="386" y="710" on="1"/>
        <pt x="446" y="710" on="1"/>
        <pt x="574" y="0" on="1"/>
        <pt x="500" y="0" on="1"/>
        <pt x="461" y="222" on="1"/>
        <pt x="162" y="222" on="1"/>
        <pt x="30" y="0" on="1"/>
        <pt x="-45" y="0" on="1"/>
      </contour>
      <contour>
        <pt x="457" y="277" on="1"/>
        <pt x="399" y="628" on="1"/>
        <pt x="188" y="277" on="1"/>
      </contour>
      <contour>
        <pt x="322" y="832" on="1"/>
        <pt x="435" y="917" on="1"/>
        <pt x="485" y="917" on="1"/>
        <pt x="560" y="832" on="1"/>
        <pt x="518" y="811" on="1"/>
        <pt x="450" y="874" on="1"/>
        <pt x="356" y="811" on="1"/>
      </contour>
    </TTGlyph>
    <TTGlyph name="Adblgrave" xMin="-45" yMin="0" xMax="574" yMax="918">
      <contour>
        <pt x="386" y="710" on="1"/>
        <pt x="446" y="710" on="1"/>
        <pt x="574" y="0" on="1"/>
        <pt x="500" y="0" on="1"/>
        <pt x="461" y="222" on="1"/>
        <pt x="162" y="222" on="1"/>
        <pt x="30" y="0" on="1"/>
        <pt x="-45" y="0" on="1"/>
      </contour>
      <contour>
        <pt x="457" y="277" on="1"/>
        <pt x="399" y="628" on="1"/>
        <pt x="188" y="277" on="1"/>
      </contour>
      <contour>
        <pt x="437" y="918" on="1"/>
        <pt x="498" y="918" on="1"/>
        <pt x="533" y="825" on="1"/>
        <pt x="492" y="808" on="1"/>
      </contour>
      <contour>
        <pt x="315" y="918" on="1"/>
        <pt x="378" y="918" on="1"/>
        <pt x="412" y="825" on="1"/>
        <pt x="371" y="808" on="1"/>
      </contour>
    </TTGlyph>
    <TTGlyph name="Adieresis" xMin="-45" yMin="0" xMax="574" yMax="914">
      <contour>
        <pt x="386" y="710" on="1"/>
        <pt x="446" y="710" on="1"/>
        <pt x="574" y="0" on="1"/>
        <pt x="500" y="0" on="1"/>
        <pt x="461" y="222" on="1"/>
        <pt x="162" y="222" on="1"/>
        <pt x="30" y="0" on="1"/>
        <pt x="-45" y="0" on="1"/>
      </contour>
      <contour>
        <pt x="457" y="277" on="1"/>
        <pt x="399" y="628" on="1"/>
        <pt x="188" y="277" on="1"/>
      </contour>
      <contour>
        <pt x="328" y="820" on="1"/>
        <pt x="349" y="914" on="1"/>
        <pt x="407" y="914" on="1"/>
        <pt x="386" y="820" on="1"/>
      </contour>
      <contour>
        <pt x="472" y="820" on="1"/>
        <pt x="492" y="914" on="1"/>
        <pt x="549" y="914" on="1"/>
        <pt x="530" y="820" on="1"/>
      </contour>
    </TTGlyph>
    <TTGlyph name="Agrave" xMin="-45" yMin="0" xMax="574" yMax="917">
      <contour>
        <pt x="386" y="710" on="1"/>
        <pt x="446" y="710" on="1"/>
        <pt x="574" y="0" on="1"/>
        <pt x="500" y="0" on="1"/>
        <pt x="461" y="222" on="1"/>
        <pt x="162" y="222" on="1"/>
        <pt x="30" y="0" on="1"/>
        <pt x="-45" y="0" on="1"/>
      </contour>
      <contour>
        <pt x="457" y="277" on="1"/>
        <pt x="399" y="628" on="1"/>
        <pt x="188" y="277" on="1"/>
      </contour>
      <contour>
        <pt x="354" y="917" on="1"/>
        <pt x="424" y="917" on="1"/>
        <pt x="462" y="824" on="1"/>
        <pt x="413" y="807" on="1"/>
      </contour>
    </TTGlyph>
    <TTGlyph name="Ainvertedbreve" xMin="-45" yMin="0" xMax="574" yMax="917">
      <contour>
        <pt x="386" y="710" on="1"/>
        <pt x="446" y="710" on="1"/>
        <pt x="574" y="0" on="1"/>
        <pt x="500" y="0" on="1"/>
        <pt x="461" y="222" on="1"/>
        <pt x="162" y="222" on="1"/>
        <pt x="30" y="0" on="1"/>
        <pt x="-45" y="0" on="1"/>
      </contour>
      <contour>
        <pt x="457" y="277" on="1"/>
        <pt x="399" y="628" on="1"/>
        <pt x="188" y="277" on="1"/>
      </contour>
      <contour>
        <pt x="343" y="816" on="1"/>
        <pt x="347" y="837" on="0"/>
        <pt x="369" y="874" on="0"/>
        <pt x="400" y="901" on="0"/>
        <pt x="438" y="917" on="0"/>
        <pt x="458" y="917" on="1"/>
        <pt x="493" y="917" on="0"/>
        <pt x="534" y="870" on="0"/>
        <pt x="534" y="837" on="1"/>
        <pt x="534" y="832" on="0"/>
        <pt x="534" y="821" on="0"/>
        <pt x="532" y="816" on="1"/>
        <pt x="492" y="816" on="1"/>
        <pt x="493" y="822" on="0"/>
        <pt x="494" y="832" on="0"/>
        <pt x="494" y="837" on="1"/>
        <pt x="494" y="882" on="0"/>
        <pt x="453" y="882" on="1"/>
        <pt x="423" y="882" on="0"/>
        <pt x="390" y="843" on="0"/>
        <pt x="383" y="816" on="1"/>
      </contour>
    </TTGlyph>
    <TTGlyph name="Amacron" xMin="-45" yMin="0" xMax="589" yMax="896">
      <contour>
        <pt x="386" y="710" on="1"/>
        <pt x="446" y="710" on="1"/>
        <pt x="574" y="0" on="1"/>
        <pt x="500" y="0" on="1"/>
        <pt x="461" y="222" on="1"/>
        <pt x="162" y="222" on="1"/>
        <pt x="30" y="0" on="1"/>
        <pt x="-45" y="0" on="1"/>
      </contour>
      <contour>
        <pt x="457" y="277" on="1"/>
        <pt x="399" y="628" on="1"/>
        <pt x="188" y="277" on="1"/>
      </contour>
      <contour>
        <pt x="304" y="849" on="1"/>
        <pt x="314" y="896" on="1"/>
        <pt x="589" y="896" on="1"/>
        <pt x="579" y="849" on="1"/>
      </contour>
    </TTGlyph>
    <TTGlyph name="Aogonek" xMin="-45" yMin="-175" xMax="574" yMax="710">
      <contour>
        <pt x="491" y="-175" on="1"/>
        <pt x="461" y="-168" on="0"/>
        <pt x="431" y="-136" on="0"/>
        <pt x="431" y="-114" on="1"/>
        <pt x="431" y="-86" on="0"/>
        <pt x="476" y="-32" on="0"/>
        <pt x="526" y="0" on="1"/>
        <pt x="500" y="0" on="1"/>
        <pt x="461" y="222" on="1"/>
        <pt x="162" y="222" on="1"/>
        <pt x="30" y="0" on="1"/>
        <pt x="-45" y="0" on="1"/>
        <pt x="386" y="710" on="1"/>
        <pt x="446" y="710" on="1"/>
        <pt x="574" y="0" on="1"/>
        <pt x="519" y="-32" on="0"/>
        <pt x="475" y="-78" on="0"/>
        <pt x="475" y="-101" on="1"/>
        <pt x="475" y="-131" on="0"/>
        <pt x="517" y="-137" on="1"/>
      </contour>
      <contour>
        <pt x="457" y="277" on="1"/>
        <pt x="399" y="628" on="1"/>
        <pt x="188" y="277" on="1"/>
      </contour>
    </TTGlyph>
    <TTGlyph name="Aring" xMin="-45" yMin="0" xMax="574" yMax="917">
      <contour>
        <pt x="386" y="710" on="1"/>
        <pt x="446" y="710" on="1"/>
        <pt x="574" y="0" on="1"/>
        <pt x="500" y="0" on="1"/>
        <pt x="461" y="222" on="1"/>
        <pt x="162" y="222" on="1"/>
        <pt x="30" y="0" on="1"/>
        <pt x="-45" y="0" on="1"/>
      </contour>
      <contour>
        <pt x="457" y="277" on="1"/>
        <pt x="399" y="628" on="1"/>
        <pt x="188" y="277" on="1"/>
      </contour>
      <contour>
        <pt x="372" y="839" on="1"/>
        <pt x="372" y="874" on="0"/>
        <pt x="424" y="917" on="0"/>
        <pt x="459" y="917" on="1"/>
        <pt x="486" y="917" on="0"/>
        <pt x="517" y="888" on="0"/>
        <pt x="517" y="864" on="1"/>
        <pt x="517" y="830" on="0"/>
        <pt x="467" y="786" on="0"/>
        <pt x="430" y="786" on="1"/>
        <pt x="403" y="786" on="0"/>
        <pt x="372" y="815" on="0"/>
      </contour>
      <contour>
        <pt x="453" y="890" on="1"/>
        <pt x="435" y="890" on="0"/>
        <pt x="405" y="864" on="0"/>
        <pt x="405" y="844" on="1"/>
        <pt x="405" y="831" on="0"/>
        <pt x="422" y="813" on="0"/>
        <pt x="436" y="813" on="1"/>
        <pt x="453" y="813" on="0"/>
        <pt x="485" y="839" on="0"/>
        <pt x="485" y="859" on="1"/>
        <pt x="485" y="873" on="0"/>
        <pt x="467" y="890" on="0"/>
      </contour>
    </TTGlyph>
    <TTGlyph name="Aringacute" xMin="-45" yMin="0" xMax="574" yMax="918">
      <contour>
        <pt x="455" y="812" on="1"/>
        <pt x="475" y="808" on="0"/>
        <pt x="497" y="781" on="0"/>
        <pt x="497" y="761" on="1"/>
        <pt x="497" y="737" on="0"/>
        <pt x="471" y="700" on="0"/>
        <pt x="449" y="691" on="1"/>
        <pt x="574" y="0" on="1"/>
        <pt x="500" y="0" on="1"/>
        <pt x="461" y="222" on="1"/>
        <pt x="162" y="222" on="1"/>
        <pt x="30" y="0" on="1"/>
        <pt x="-45" y="0" on="1"/>
        <pt x="375" y="692" on="1"/>
        <pt x="352" y="706" on="0"/>
        <pt x="352" y="736" on="1"/>
        <pt x="352" y="771" on="0"/>
        <pt x="404" y="814" on="0"/>
        <pt x="439" y="814" on="1"/>
        <pt x="443" y="814" on="0"/>
        <pt x="449" y="813" on="0"/>
        <pt x="453" y="813" on="1"/>
        <pt x="413" y="828" on="1"/>
        <pt x="489" y="918" on="1"/>
        <pt x="560" y="918" on="1"/>
      </contour>
      <contour>
        <pt x="457" y="277" on="1"/>
        <pt x="399" y="628" on="1"/>
        <pt x="188" y="277" on="1"/>
      </contour>
      <contour>
        <pt x="433" y="787" on="1"/>
        <pt x="415" y="787" on="0"/>
        <pt x="385" y="761" on="0"/>
        <pt x="385" y="741" on="1"/>
        <pt x="385" y="728" on="0"/>
        <pt x="402" y="710" on="0"/>
        <pt x="416" y="710" on="1"/>
        <pt x="433" y="710" on="0"/>
        <pt x="465" y="736" on="0"/>
        <pt x="465" y="756" on="1"/>
        <pt x="465" y="770" on="0"/>
        <pt x="447" y="787" on="0"/>
      </contour>
    </TTGlyph>
    <TTGlyph name="Atilde" xMin="-45" yMin="0" xMax="610" yMax="917">
      <contour>
        <pt x="386" y="710" on="1"/>
        <pt x="446" y="710" on="1"/>
        <pt x="574" y="0" on="1"/>
        <pt x="500" y="0" on="1"/>
        <pt x="461" y="222" on="1"/>
        <pt x="162" y="222" on="1"/>
        <pt x="30" y="0" on="1"/>
        <pt x="-45" y="0" on="1"/>
      </contour>
      <contour>
        <pt x="457" y="277" on="1"/>
        <pt x="399" y="628" on="1"/>
        <pt x="188" y="277" on="1"/>
      </contour>
      <contour>
        <pt x="495" y="825" on="1"/>
        <pt x="474" y="825" on="0"/>
        <pt x="445" y="837" on="0"/>
        <pt x="421" y="852" on="0"/>
        <pt x="397" y="865" on="0"/>
        <pt x="382" y="865" on="1"/>
        <pt x="367" y="865" on="0"/>
        <pt x="345" y="851" on="0"/>
        <pt x="332" y="834" on="0"/>
        <pt x="325" y="819" on="0"/>
        <pt x="325" y="817" on="1"/>
        <pt x="283" y="817" on="1"/>
        <pt x="284" y="822" on="0"/>
        <pt x="298" y="853" on="0"/>
        <pt x="324" y="885" on="0"/>
        <pt x="364" y="910" on="0"/>
        <pt x="391" y="910" on="1"/>
        <pt x="411" y="910" on="0"/>
        <pt x="438" y="897" on="0"/>
        <pt x="462" y="881" on="0"/>
        <pt x="486" y="868" on="0"/>
        <pt x="504" y="868" on="1"/>
        <pt x="522" y="868" on="0"/>
        <pt x="547" y="882" on="0"/>
        <pt x="561" y="900" on="0"/>
        <pt x="568" y="915" on="0"/>
        <pt x="568" y="917" on="1"/>
        <pt x="610" y="917" on="1"/>
        <pt x="609" y="912" on="0"/>
        <pt x="595" y="882" on="0"/>
        <pt x="567" y="850" on="0"/>
        <pt x="525" y="825" on="0"/>
      </contour>
    </TTGlyph>
    <TTGlyph name="B" xMin="24" yMin="0" xMax="621" yMax="710">
      <contour>
        <pt x="175" y="710" on="1"/>
        <pt x="501" y="710" on="1"/>
        <pt x="531" y="710" on="0"/>
        <pt x="576" y="685" on="0"/>
        <pt x="606" y="645" on="0"/>
        <pt x="621" y="593" on="0"/>
        <pt x="621" y="565" on="1"/>
        <pt x="621" y="533" on="0"/>
        <pt x="601" y="472" on="0"/>
        <pt x="565" y="419" on="0"/>
        <pt x="514" y="377" on="0"/>
        <pt x="484" y="364" on="1"/>
        <pt x="529" y="349" on="0"/>
        <pt x="576" y="271" on="0"/>
        <pt x="576" y="220" on="1"/>
        <pt x="576" y="172" on="0"/>
        <pt x="536" y="92" on="0"/>
        <pt x="471" y="33" on="0"/>
        <pt x="387" y="0" on="0"/>
        <pt x="342" y="0" on="1"/>
        <pt x="24" y="0" on="1"/>
      </contour>
      <contour>
        <pt x="355" y="61" on="1"/>
        <pt x="384" y="61" on="0"/>
        <pt x="439" y="88" on="0"/>
        <pt x="481" y="133" on="0"/>
        <pt x="507" y="190" on="0"/>
        <pt x="507" y="221" on="1"/>
        <pt x="507" y="243" on="0"/>
        <pt x="495" y="283" on="0"/>
        <pt x="472" y="313" on="0"/>
        <pt x="440" y="330" on="0"/>
        <pt x="419" y="330" on="1"/>
        <pt x="163" y="330" on="1"/>
        <pt x="106" y="61" on="1"/>
      </contour>
      <contour>
        <pt x="405" y="387" on="1"/>
        <pt x="433" y="387" on="0"/>
        <pt x="485" y="414" on="0"/>
        <pt x="525" y="458" on="0"/>
        <pt x="549" y="515" on="0"/>
        <pt x="549" y="546" on="1"/>
        <pt x="549" y="589" on="0"/>
        <pt x="505" y="649" on="0"/>
        <pt x="466" y="649" on="1"/>
        <pt x="231" y="649" on="1"/>
        <pt x="175" y="387" on="1"/>
      </contour>
    </TTGlyph>
    <TTGlyph name="B.sc" xMin="18" yMin="0" xMax="514" yMax="548">
      <contour>
        <pt x="135" y="548" on="1"/>
        <pt x="411" y="548" on="1"/>
        <pt x="436" y="548" on="0"/>
        <pt x="475" y="529" on="0"/>
        <pt x="501" y="497" on="0"/>
        <pt x="514" y="456" on="0"/>
        <pt x="514" y="434" on="1"/>
        <pt x="514" y="385" on="0"/>
        <pt x="452" y="301" on="0"/>
        <pt x="402" y="281" on="1"/>
        <pt x="440" y="269" on="0"/>
        <pt x="482" y="209" on="0"/>
        <pt x="482" y="168" on="1"/>
        <pt x="482" y="131" on="0"/>
        <pt x="449" y="69" on="0"/>
        <pt x="394" y="25" on="0"/>
        <pt x="323" y="0" on="0"/>
        <pt x="286" y="0" on="1"/>
        <pt x="18" y="0" on="1"/>
      </contour>
      <contour>
        <pt x="297" y="54" on="1"/>
        <pt x="320" y="54" on="0"/>
        <pt x="364" y="73" on="0"/>
        <pt x="398" y="106" on="0"/>
        <pt x="419" y="147" on="0"/>
        <pt x="419" y="170" on="1"/>
        <pt x="419" y="202" on="0"/>
        <pt x="380" y="251" on="0"/>
        <pt x="345" y="251" on="1"/>
        <pt x="134" y="251" on="1"/>
        <pt x="93" y="54" on="1"/>
      </contour>
      <contour>
        <pt x="334" y="302" on="1"/>
        <pt x="356" y="302" on="0"/>
        <pt x="398" y="320" on="0"/>
        <pt x="430" y="352" on="0"/>
        <pt x="449" y="393" on="0"/>
        <pt x="449" y="416" on="1"/>
        <pt x="449" y="449" on="0"/>
        <pt x="411" y="492" on="0"/>
        <pt x="379" y="492" on="1"/>
        <pt x="185" y="492" on="1"/>
        <pt x="145" y="302" on="1"/>
      </contour>
    </TTGlyph>
    <TTGlyph name="C" xMin="47" yMin="-6" xMax="669" yMax="714">
      <contour>
        <pt x="294" y="-6" on="1"/>
        <pt x="235" y="-6" on="0"/>
        <pt x="143" y="45" on="0"/>
        <pt x="80" y="129" on="0"/>
        <pt x="47" y="237" on="0"/>
        <pt x="47" y="294" on="1"/>
        <pt x="47" y="367" on="0"/>
        <pt x="108" y="516" on="0"/>
        <pt x="216" y="637" on="0"/>
        <pt x="364" y="714" on="0"/>
        <pt x="452" y="714" on="1"/>
        <pt x="543" y="714" on="0"/>
        <pt x="652" y="628" on="0"/>
        <pt x="669" y="559" on="1"/>
        <pt x="606" y="525" on="1"/>
        <pt x="597" y="560" on="0"/>
        <pt x="562" y="608" on="0"/>
        <pt x="516" y="638" on="0"/>
        <pt x="462" y="651" on="0"/>
        <pt x="435" y="651" on="1"/>
        <pt x="365" y="651" on="0"/>
        <pt x="248" y="586" on="0"/>
        <pt x="164" y="483" on="0"/>
        <pt x="117" y="357" on="0"/>
        <pt x="117" y="297" on="1"/>
        <pt x="117" y="248" on="0"/>
        <pt x="144" y="161" on="0"/>
        <pt x="194" y="95" on="0"/>
        <pt x="266" y="57" on="0"/>
        <pt x="311" y="57" on="1"/>
        <pt x="339" y="57" on="0"/>
        <pt x="402" y="72" on="0"/>
        <pt x="464" y="105" on="0"/>
        <pt x="522" y="154" on="0"/>
        <pt x="545" y="189" on="1"/>
        <pt x="597" y="159" on="1"/>
        <pt x="572" y="119" on="0"/>
        <pt x="501" y="58" on="0"/>
        <pt x="419" y="16" on="0"/>
        <pt x="333" y="-6" on="0"/>
      </contour>
    </TTGlyph>
    <TTGlyph name="C.sc" xMin="33" yMin="-5" xMax="554" yMax="551">
      <contour>
        <pt x="246" y="-5" on="1"/>
        <pt x="195" y="-5" on="0"/>
        <pt x="116" y="35" on="0"/>
        <pt x="62" y="101" on="0"/>
        <pt x="33" y="186" on="0"/>
        <pt x="33" y="231" on="1"/>
        <pt x="33" y="286" on="0"/>
        <pt x="83" y="400" on="0"/>
        <pt x="172" y="493" on="0"/>
        <pt x="295" y="551" on="0"/>
        <pt x="368" y="551" on="1"/>
        <pt x="444" y="551" on="0"/>
        <pt x="539" y="484" on="0"/>
        <pt x="554" y="431" on="1"/>
        <pt x="498" y="399" on="1"/>
        <pt x="490" y="426" on="0"/>
        <pt x="460" y="462" on="0"/>
        <pt x="421" y="485" on="0"/>
        <pt x="375" y="494" on="0"/>
        <pt x="353" y="494" on="1"/>
        <pt x="296" y="494" on="0"/>
        <pt x="202" y="447" on="0"/>
        <pt x="134" y="372" on="0"/>
        <pt x="97" y="280" on="0"/>
        <pt x="97" y="235" on="1"/>
        <pt x="97" y="198" on="0"/>
        <pt x="120" y="131" on="0"/>
        <pt x="162" y="81" on="0"/>
        <pt x="223" y="52" on="0"/>
        <pt x="261" y="52" on="1"/>
        <pt x="285" y="52" on="0"/>
        <pt x="336" y="63" on="0"/>
        <pt x="387" y="87" on="0"/>
        <pt x="434" y="125" on="0"/>
        <pt x="453" y="151" on="1"/>
        <pt x="499" y="122" on="1"/>
        <pt x="478" y="92" on="0"/>
        <pt x="419" y="44" on="0"/>
        <pt x="350" y="12" on="0"/>
        <pt x="279" y="-5" on="0"/>
      </contour>
    </TTGlyph>
    <TTGlyph name="Cacute" xMin="47" yMin="-6" xMax="669" yMax="917">
      <contour>
        <pt x="472" y="807" on="1"/>
        <pt x="430" y="824" on="1"/>
        <pt x="506" y="917" on="1"/>
        <pt x="577" y="917" on="1"/>
      </contour>
      <contour>
        <pt x="294" y="-6" on="1"/>
        <pt x="235" y="-6" on="0"/>
        <pt x="143" y="45" on="0"/>
        <pt x="80" y="129" on="0"/>
        <pt x="47" y="237" on="0"/>
        <pt x="47" y="294" on="1"/>
        <pt x="47" y="367" on="0"/>
        <pt x="108" y="516" on="0"/>
        <pt x="216" y="637" on="0"/>
        <pt x="364" y="714" on="0"/>
        <pt x="452" y="714" on="1"/>
        <pt x="543" y="714" on="0"/>
        <pt x="652" y="628" on="0"/>
        <pt x="669" y="559" on="1"/>
        <pt x="606" y="525" on="1"/>
        <pt x="597" y="560" on="0"/>
        <pt x="562" y="608" on="0"/>
        <pt x="516" y="638" on="0"/>
        <pt x="462" y="651" on="0"/>
        <pt x="435" y="651" on="1"/>
        <pt x="365" y="651" on="0"/>
        <pt x="248" y="586" on="0"/>
        <pt x="164" y="483" on="0"/>
        <pt x="117" y="357" on="0"/>
        <pt x="117" y="297" on="1"/>
        <pt x="117" y="248" on="0"/>
        <pt x="144" y="161" on="0"/>
        <pt x="194" y="95" on="0"/>
        <pt x="266" y="57" on="0"/>
        <pt x="311" y="57" on="1"/>
        <pt x="339" y="57" on="0"/>
        <pt x="402" y="72" on="0"/>
        <pt x="464" y="105" on="0"/>
        <pt x="522" y="154" on="0"/>
        <pt x="545" y="189" on="1"/>
        <pt x="597" y="159" on="1"/>
        <pt x="572" y="119" on="0"/>
        <pt x="501" y="58" on="0"/>
        <pt x="419" y="16" on="0"/>
        <pt x="333" y="-6" on="0"/>
      </contour>
    </TTGlyph>
    <TTGlyph name="Ccaron" xMin="47" yMin="-6" xMax="669" yMax="917">
      <contour>
        <pt x="376" y="897" on="1"/>
        <pt x="419" y="917" on="1"/>
        <pt x="486" y="854" on="1"/>
        <pt x="580" y="917" on="1"/>
        <pt x="614" y="897" on="1"/>
        <pt x="502" y="811" on="1"/>
        <pt x="452" y="811" on="1"/>
      </contour>
      <contour>
        <pt x="294" y="-6" on="1"/>
        <pt x="235" y="-6" on="0"/>
        <pt x="143" y="45" on="0"/>
        <pt x="80" y="129" on="0"/>
        <pt x="47" y="237" on="0"/>
        <pt x="47" y="294" on="1"/>
        <pt x="47" y="367" on="0"/>
        <pt x="108" y="516" on="0"/>
        <pt x="216" y="637" on="0"/>
        <pt x="364" y="714" on="0"/>
        <pt x="452" y="714" on="1"/>
        <pt x="543" y="714" on="0"/>
        <pt x="652" y="628" on="0"/>
        <pt x="669" y="559" on="1"/>
        <pt x="606" y="525" on="1"/>
        <pt x="597" y="560" on="0"/>
        <pt x="562" y="608" on="0"/>
        <pt x="516" y="638" on="0"/>
        <pt x="462" y="651" on="0"/>
        <pt x="435" y="651" on="1"/>
        <pt x="365" y="651" on="0"/>
        <pt x="248" y="586" on="0"/>
        <pt x="164" y="483" on="0"/>
        <pt x="117" y="357" on="0"/>
        <pt x="117" y="297" on="1"/>
        <pt x="117" y="248" on="0"/>
        <pt x="144" y="161" on="0"/>
        <pt x="194" y="95" on="0"/>
        <pt x="266" y="57" on="0"/>
        <pt x="311" y="57" on="1"/>
        <pt x="339" y="57" on="0"/>
        <pt x="402" y="72" on="0"/>
        <pt x="464" y="105" on="0"/>
        <pt x="522" y="154" on="0"/>
        <pt x="545" y="189" on="1"/>
        <pt x="597" y="159" on="1"/>
        <pt x="572" y="119" on="0"/>
        <pt x="501" y="58" on="0"/>
        <pt x="419" y="16" on="0"/>
        <pt x="333" y="-6" on="0"/>
      </contour>
    </TTGlyph>
    <TTGlyph name="Ccedilla" xMin="43" yMin="-176" xMax="665" yMax="714">
      <contour>
        <pt x="183" y="-126" on="1"/>
        <pt x="194" y="-133" on="0"/>
        <pt x="237" y="-144" on="0"/>
        <pt x="262" y="-144" on="1"/>
        <pt x="326" y="-144" on="0"/>
        <pt x="326" y="-101" on="1"/>
        <pt x="326" y="-85" on="0"/>
        <pt x="303" y="-73" on="0"/>
        <pt x="285" y="-73" on="1"/>
        <pt x="265" y="-73" on="0"/>
        <pt x="219" y="-82" on="0"/>
        <pt x="205" y="-87" on="1"/>
        <pt x="264" y="-4" on="1"/>
        <pt x="211" y="1" on="0"/>
        <pt x="129" y="55" on="0"/>
        <pt x="72" y="137" on="0"/>
        <pt x="43" y="240" on="0"/>
        <pt x="43" y="294" on="1"/>
        <pt x="43" y="367" on="0"/>
        <pt x="104" y="516" on="0"/>
        <pt x="212" y="637" on="0"/>
        <pt x="360" y="714" on="0"/>
        <pt x="448" y="714" on="1"/>
        <pt x="539" y="714" on="0"/>
        <pt x="648" y="628" on="0"/>
        <pt x="665" y="559" on="1"/>
        <pt x="602" y="525" on="1"/>
        <pt x="593" y="560" on="0"/>
        <pt x="558" y="608" on="0"/>
        <pt x="512" y="638" on="0"/>
        <pt x="458" y="651" on="0"/>
        <pt x="431" y="651" on="1"/>
        <pt x="361" y="651" on="0"/>
        <pt x="244" y="586" on="0"/>
        <pt x="160" y="483" on="0"/>
        <pt x="113" y="357" on="0"/>
        <pt x="113" y="297" on="1"/>
        <pt x="113" y="248" on="0"/>
        <pt x="140" y="161" on="0"/>
        <pt x="190" y="95" on="0"/>
        <pt x="262" y="57" on="0"/>
        <pt x="307" y="57" on="1"/>
        <pt x="335" y="57" on="0"/>
        <pt x="398" y="72" on="0"/>
        <pt x="460" y="105" on="0"/>
        <pt x="518" y="154" on="0"/>
        <pt x="541" y="189" on="1"/>
        <pt x="593" y="159" on="1"/>
        <pt x="569" y="121" on="0"/>
        <pt x="501" y="61" on="0"/>
        <pt x="423" y="19" on="0"/>
        <pt x="340" y="-4" on="0"/>
        <pt x="302" y="-5" on="1"/>
        <pt x="266" y="-51" on="1"/>
        <pt x="275" y="-47" on="0"/>
        <pt x="295" y="-45" on="0"/>
        <pt x="303" y="-45" on="1"/>
        <pt x="332" y="-45" on="0"/>
        <pt x="364" y="-70" on="0"/>
        <pt x="364" y="-94" on="1"/>
        <pt x="364" y="-132" on="0"/>
        <pt x="305" y="-176" on="0"/>
        <pt x="249" y="-176" on="1"/>
        <pt x="222" y="-176" on="0"/>
        <pt x="176" y="-165" on="0"/>
        <pt x="159" y="-157" on="1"/>
      </contour>
    </TTGlyph>
    <TTGlyph name="Ccircumflex" xMin="47" yMin="-6" xMax="669" yMax="917">
      <contour>
        <pt x="367" y="832" on="1"/>
        <pt x="480" y="917" on="1"/>
        <pt x="530" y="917" on="1"/>
        <pt x="605" y="832" on="1"/>
        <pt x="563" y="811" on="1"/>
        <pt x="495" y="874" on="1"/>
        <pt x="401" y="811" on="1"/>
      </contour>
      <contour>
        <pt x="294" y="-6" on="1"/>
        <pt x="235" y="-6" on="0"/>
        <pt x="143" y="45" on="0"/>
        <pt x="80" y="129" on="0"/>
        <pt x="47" y="237" on="0"/>
        <pt x="47" y="294" on="1"/>
        <pt x="47" y="367" on="0"/>
        <pt x="108" y="516" on="0"/>
        <pt x="216" y="637" on="0"/>
        <pt x="364" y="714" on="0"/>
        <pt x="452" y="714" on="1"/>
        <pt x="543" y="714" on="0"/>
        <pt x="652" y="628" on="0"/>
        <pt x="669" y="559" on="1"/>
        <pt x="606" y="525" on="1"/>
        <pt x="597" y="560" on="0"/>
        <pt x="562" y="608" on="0"/>
        <pt x="516" y="638" on="0"/>
        <pt x="462" y="651" on="0"/>
        <pt x="435" y="651" on="1"/>
        <pt x="365" y="651" on="0"/>
        <pt x="248" y="586" on="0"/>
        <pt x="164" y="483" on="0"/>
        <pt x="117" y="357" on="0"/>
        <pt x="117" y="297" on="1"/>
        <pt x="117" y="248" on="0"/>
        <pt x="144" y="161" on="0"/>
        <pt x="194" y="95" on="0"/>
        <pt x="266" y="57" on="0"/>
        <pt x="311" y="57" on="1"/>
        <pt x="339" y="57" on="0"/>
        <pt x="402" y="72" on="0"/>
        <pt x="464" y="105" on="0"/>
        <pt x="522" y="154" on="0"/>
        <pt x="545" y="189" on="1"/>
        <pt x="597" y="159" on="1"/>
        <pt x="572" y="119" on="0"/>
        <pt x="501" y="58" on="0"/>
        <pt x="419" y="16" on="0"/>
        <pt x="333" y="-6" on="0"/>
      </contour>
    </TTGlyph>
    <TTGlyph name="Cdotaccent" xMin="47" yMin="-6" xMax="669" yMax="917">
      <contour>
        <pt x="294" y="-6" on="1"/>
        <pt x="235" y="-6" on="0"/>
        <pt x="143" y="45" on="0"/>
        <pt x="80" y="129" on="0"/>
        <pt x="47" y="237" on="0"/>
        <pt x="47" y="294" on="1"/>
        <pt x="47" y="367" on="0"/>
        <pt x="108" y="516" on="0"/>
        <pt x="216" y="637" on="0"/>
        <pt x="364" y="714" on="0"/>
        <pt x="452" y="714" on="1"/>
        <pt x="543" y="714" on="0"/>
        <pt x="652" y="628" on="0"/>
        <pt x="669" y="559" on="1"/>
        <pt x="606" y="525" on="1"/>
        <pt x="597" y="560" on="0"/>
        <pt x="562" y="608" on="0"/>
        <pt x="516" y="638" on="0"/>
        <pt x="462" y="651" on="0"/>
        <pt x="435" y="651" on="1"/>
        <pt x="365" y="651" on="0"/>
        <pt x="248" y="586" on="0"/>
        <pt x="164" y="483" on="0"/>
        <pt x="117" y="357" on="0"/>
        <pt x="117" y="297" on="1"/>
        <pt x="117" y="248" on="0"/>
        <pt x="144" y="161" on="0"/>
        <pt x="194" y="95" on="0"/>
        <pt x="266" y="57" on="0"/>
        <pt x="311" y="57" on="1"/>
        <pt x="339" y="57" on="0"/>
        <pt x="402" y="72" on="0"/>
        <pt x="464" y="105" on="0"/>
        <pt x="522" y="154" on="0"/>
        <pt x="545" y="189" on="1"/>
        <pt x="597" y="159" on="1"/>
        <pt x="572" y="119" on="0"/>
        <pt x="501" y="58" on="0"/>
        <pt x="419" y="16" on="0"/>
        <pt x="333" y="-6" on="0"/>
      </contour>
      <contour>
        <pt x="452" y="820" on="1"/>
        <pt x="473" y="917" on="1"/>
        <pt x="535" y="917" on="1"/>
        <pt x="514" y="820" on="1"/>
      </contour>
    </TTGlyph>
    <TTGlyph name="D" xMin="24" yMin="0" xMax="664" yMax="710">
      <contour>
        <pt x="175" y="710" on="1"/>
        <pt x="405" y="710" on="1"/>
        <pt x="471" y="710" on="0"/>
        <pt x="569" y="668" on="0"/>
        <pt x="633" y="594" on="0"/>
        <pt x="664" y="495" on="0"/>
        <pt x="664" y="438" on="1"/>
        <pt x="664" y="344" on="0"/>
        <pt x="602" y="183" on="0"/>
        <pt x="492" y="66" on="0"/>
        <pt x="342" y="0" on="0"/>
        <pt x="254" y="0" on="1"/>
        <pt x="24" y="0" on="1"/>
      </contour>
      <contour>
        <pt x="267" y="62" on="1"/>
        <pt x="342" y="62" on="0"/>
        <pt x="463" y="122" on="0"/>
        <pt x="547" y="223" on="0"/>
        <pt x="592" y="355" on="0"/>
        <pt x="592" y="427" on="1"/>
        <pt x="592" y="475" on="0"/>
        <pt x="567" y="557" on="0"/>
        <pt x="516" y="615" on="0"/>
        <pt x="441" y="648" on="0"/>
        <pt x="391" y="648" on="1"/>
        <pt x="231" y="648" on="1"/>
        <pt x="106" y="62" on="1"/>
      </contour>
    </TTGlyph>
    <TTGlyph name="D.sc" xMin="18" yMin="0" xMax="554" yMax="548">
      <contour>
        <pt x="135" y="548" on="1"/>
        <pt x="330" y="548" on="1"/>
        <pt x="387" y="548" on="0"/>
        <pt x="472" y="515" on="0"/>
        <pt x="527" y="457" on="0"/>
        <pt x="554" y="378" on="0"/>
        <pt x="554" y="333" on="1"/>
        <pt x="554" y="261" on="0"/>
        <pt x="503" y="138" on="0"/>
        <pt x="412" y="50" on="0"/>
        <pt x="287" y="0" on="0"/>
        <pt x="214" y="0" on="1"/>
        <pt x="18" y="0" on="1"/>
      </contour>
      <contour>
        <pt x="225" y="56" on="1"/>
        <pt x="287" y="56" on="0"/>
        <pt x="385" y="99" on="0"/>
        <pt x="453" y="173" on="0"/>
        <pt x="489" y="270" on="0"/>
        <pt x="489" y="323" on="1"/>
        <pt x="489" y="360" on="0"/>
        <pt x="467" y="422" on="0"/>
        <pt x="424" y="467" on="0"/>
        <pt x="360" y="492" on="0"/>
        <pt x="318" y="492" on="1"/>
        <pt x="185" y="492" on="1"/>
        <pt x="93" y="56" on="1"/>
      </contour>
    </TTGlyph>
    <TTGlyph name="Dcaron" xMin="24" yMin="0" xMax="664" yMax="917">
      <contour>
        <pt x="326" y="897" on="1"/>
        <pt x="369" y="917" on="1"/>
        <pt x="436" y="854" on="1"/>
        <pt x="530" y="917" on="1"/>
        <pt x="564" y="897" on="1"/>
        <pt x="452" y="811" on="1"/>
        <pt x="402" y="811" on="1"/>
      </contour>
      <contour>
        <pt x="175" y="710" on="1"/>
        <pt x="405" y="710" on="1"/>
        <pt x="471" y="710" on="0"/>
        <pt x="569" y="668" on="0"/>
        <pt x="633" y="594" on="0"/>
        <pt x="664" y="495" on="0"/>
        <pt x="664" y="438" on="1"/>
        <pt x="664" y="344" on="0"/>
        <pt x="602" y="183" on="0"/>
        <pt x="492" y="66" on="0"/>
        <pt x="342" y="0" on="0"/>
        <pt x="254" y="0" on="1"/>
        <pt x="24" y="0" on="1"/>
      </contour>
      <contour>
        <pt x="267" y="62" on="1"/>
        <pt x="342" y="62" on="0"/>
        <pt x="463" y="122" on="0"/>
        <pt x="547" y="223" on="0"/>
        <pt x="592" y="355" on="0"/>
        <pt x="592" y="427" on="1"/>
        <pt x="592" y="475" on="0"/>
        <pt x="567" y="557" on="0"/>
        <pt x="516" y="615" on="0"/>
        <pt x="441" y="648" on="0"/>
        <pt x="391" y="648" on="1"/>
        <pt x="231" y="648" on="1"/>
        <pt x="106" y="62" on="1"/>
      </contour>
    </TTGlyph>
    <TTGlyph name="Dcroat" xMin="31" yMin="0" xMax="671" yMax="710">
      <contour>
        <pt x="55" y="384" on="1"/>
        <pt x="112" y="384" on="1"/>
        <pt x="182" y="710" on="1"/>
        <pt x="412" y="710" on="1"/>
        <pt x="478" y="710" on="0"/>
        <pt x="576" y="668" on="0"/>
        <pt x="640" y="594" on="0"/>
        <pt x="671" y="495" on="0"/>
        <pt x="671" y="438" on="1"/>
        <pt x="671" y="344" on="0"/>
        <pt x="609" y="183" on="0"/>
        <pt x="499" y="66" on="0"/>
        <pt x="349" y="0" on="0"/>
        <pt x="261" y="0" on="1"/>
        <pt x="31" y="0" on="1"/>
        <pt x="101" y="330" on="1"/>
        <pt x="43" y="330" on="1"/>
      </contour>
      <contour>
        <pt x="274" y="62" on="1"/>
        <pt x="349" y="62" on="0"/>
        <pt x="470" y="122" on="0"/>
        <pt x="554" y="223" on="0"/>
        <pt x="599" y="355" on="0"/>
        <pt x="599" y="427" on="1"/>
        <pt x="599" y="475" on="0"/>
        <pt x="574" y="557" on="0"/>
        <pt x="523" y="615" on="0"/>
        <pt x="448" y="648" on="0"/>
        <pt x="398" y="648" on="1"/>
        <pt x="238" y="648" on="1"/>
        <pt x="181" y="384" on="1"/>
        <pt x="342" y="384" on="1"/>
        <pt x="331" y="330" on="1"/>
        <pt x="170" y="330" on="1"/>
        <pt x="113" y="62" on="1"/>
      </contour>
    </TTGlyph>
    <TTGlyph name="Ddotbelow" xMin="24" yMin="-166" xMax="664" yMax="710">
      <contour>
        <pt x="196" y="-166" on="1"/>
        <pt x="216" y="-68" on="1"/>
        <pt x="278" y="-68" on="1"/>
        <pt x="258" y="-166" on="1"/>
      </contour>
      <contour>
        <pt x="175" y="710" on="1"/>
        <pt x="405" y="710" on="1"/>
        <pt x="471" y="710" on="0"/>
        <pt x="569" y="668" on="0"/>
        <pt x="633" y="594" on="0"/>
        <pt x="664" y="495" on="0"/>
        <pt x="664" y="438" on="1"/>
        <pt x="664" y="344" on="0"/>
        <pt x="602" y="183" on="0"/>
        <pt x="492" y="66" on="0"/>
        <pt x="342" y="0" on="0"/>
        <pt x="254" y="0" on="1"/>
        <pt x="24" y="0" on="1"/>
      </contour>
      <contour>
        <pt x="267" y="62" on="1"/>
        <pt x="342" y="62" on="0"/>
        <pt x="463" y="122" on="0"/>
        <pt x="547" y="223" on="0"/>
        <pt x="592" y="355" on="0"/>
        <pt x="592" y="427" on="1"/>
        <pt x="592" y="475" on="0"/>
        <pt x="567" y="557" on="0"/>
        <pt x="516" y="615" on="0"/>
        <pt x="441" y="648" on="0"/>
        <pt x="391" y="648" on="1"/>
        <pt x="231" y="648" on="1"/>
        <pt x="106" y="62" on="1"/>
      </contour>
    </TTGlyph>
    <TTGlyph name="Delta" xMin="-5" yMin="0" xMax="596" yMax="710">
      <contour>
        <pt x="596" y="53" on="1"/>
        <pt x="596" y="0" on="1"/>
        <pt x="-5" y="0" on="1"/>
        <pt x="-5" y="53" on="1"/>
        <pt x="268" y="710" on="1"/>
        <pt x="326" y="710" on="1"/>
      </contour>
      <contour>
        <pt x="520" y="62" on="1"/>
        <pt x="297" y="628" on="1"/>
        <pt x="72" y="62" on="1"/>
      </contour>
    </TTGlyph>
    <TTGlyph name="E" xMin="24" yMin="0" xMax="620" yMax="710">
      <contour>
        <pt x="175" y="710" on="1"/>
        <pt x="620" y="710" on="1"/>
        <pt x="607" y="648" on="1"/>
        <pt x="231" y="648" on="1"/>
        <pt x="176" y="392" on="1"/>
        <pt x="504" y="392" on="1"/>
        <pt x="492" y="333" on="1"/>
        <pt x="164" y="333" on="1"/>
        <pt x="106" y="62" on="1"/>
        <pt x="491" y="62" on="1"/>
        <pt x="478" y="0" on="1"/>
        <pt x="24" y="0" on="1"/>
      </contour>
    </TTGlyph>
    <TTGlyph name="E.sc" xMin="18" yMin="0" xMax="512" yMax="548">
      <contour>
        <pt x="135" y="548" on="1"/>
        <pt x="512" y="548" on="1"/>
        <pt x="501" y="492" on="1"/>
        <pt x="185" y="492" on="1"/>
        <pt x="146" y="305" on="1"/>
        <pt x="421" y="305" on="1"/>
        <pt x="409" y="253" on="1"/>
        <pt x="135" y="253" on="1"/>
        <pt x="93" y="56" on="1"/>
        <pt x="415" y="56" on="1"/>
        <pt x="403" y="0" on="1"/>
        <pt x="18" y="0" on="1"/>
      </contour>
    </TTGlyph>
    <TTGlyph name="Eacute" xMin="24" yMin="0" xMax="620" yMax="917">
      <contour>
        <pt x="422" y="807" on="1"/>
        <pt x="380" y="824" on="1"/>
        <pt x="456" y="917" on="1"/>
        <pt x="527" y="917" on="1"/>
      </contour>
      <contour>
        <pt x="175" y="710" on="1"/>
        <pt x="620" y="710" on="1"/>
        <pt x="607" y="648" on="1"/>
        <pt x="231" y="648" on="1"/>
        <pt x="176" y="392" on="1"/>
        <pt x="504" y="392" on="1"/>
        <pt x="492" y="333" on="1"/>
        <pt x="164" y="333" on="1"/>
        <pt x="106" y="62" on="1"/>
        <pt x="491" y="62" on="1"/>
        <pt x="478" y="0" on="1"/>
        <pt x="24" y="0" on="1"/>
      </contour>
    </TTGlyph>
    <TTGlyph name="Ebreve" xMin="24" yMin="0" xMax="620" yMax="917">
      <contour>
        <pt x="175" y="710" on="1"/>
        <pt x="620" y="710" on="1"/>
        <pt x="607" y="648" on="1"/>
        <pt x="231" y="648" on="1"/>
        <pt x="176" y="392" on="1"/>
        <pt x="504" y="392" on="1"/>
        <pt x="492" y="333" on="1"/>
        <pt x="164" y="333" on="1"/>
        <pt x="106" y="62" on="1"/>
        <pt x="491" y="62" on="1"/>
        <pt x="478" y="0" on="1"/>
        <pt x="24" y="0" on="1"/>
      </contour>
      <contour>
        <pt x="420" y="851" on="1"/>
        <pt x="440" y="851" on="0"/>
        <pt x="480" y="889" on="0"/>
        <pt x="489" y="917" on="1"/>
        <pt x="529" y="917" on="1"/>
        <pt x="524" y="896" on="0"/>
        <pt x="502" y="859" on="0"/>
        <pt x="471" y="832" on="0"/>
        <pt x="433" y="816" on="0"/>
        <pt x="413" y="816" on="1"/>
        <pt x="378" y="816" on="0"/>
        <pt x="336" y="860" on="0"/>
        <pt x="336" y="894" on="1"/>
        <pt x="336" y="905" on="0"/>
        <pt x="339" y="917" on="1"/>
        <pt x="381" y="917" on="1"/>
        <pt x="379" y="907" on="0"/>
        <pt x="379" y="902" on="1"/>
        <pt x="379" y="881" on="0"/>
        <pt x="402" y="851" on="0"/>
      </contour>
    </TTGlyph>
    <TTGlyph name="Ecaron" xMin="24" yMin="0" xMax="620" yMax="917">
      <contour>
        <pt x="313" y="897" on="1"/>
        <pt x="356" y="917" on="1"/>
        <pt x="423" y="854" on="1"/>
        <pt x="517" y="917" on="1"/>
        <pt x="551" y="897" on="1"/>
        <pt x="439" y="811" on="1"/>
        <pt x="389" y="811" on="1"/>
      </contour>
      <contour>
        <pt x="175" y="710" on="1"/>
        <pt x="620" y="710" on="1"/>
        <pt x="607" y="648" on="1"/>
        <pt x="231" y="648" on="1"/>
        <pt x="176" y="392" on="1"/>
        <pt x="504" y="392" on="1"/>
        <pt x="492" y="333" on="1"/>
        <pt x="164" y="333" on="1"/>
        <pt x="106" y="62" on="1"/>
        <pt x="491" y="62" on="1"/>
        <pt x="478" y="0" on="1"/>
        <pt x="24" y="0" on="1"/>
      </contour>
    </TTGlyph>
    <TTGlyph name="Ecircumflex" xMin="24" yMin="0" xMax="620" yMax="917">
      <contour>
        <pt x="313" y="832" on="1"/>
        <pt x="426" y="917" on="1"/>
        <pt x="476" y="917" on="1"/>
        <pt x="551" y="832" on="1"/>
        <pt x="509" y="811" on="1"/>
        <pt x="441" y="874" on="1"/>
        <pt x="347" y="811" on="1"/>
      </contour>
      <contour>
        <pt x="175" y="710" on="1"/>
        <pt x="620" y="710" on="1"/>
        <pt x="607" y="648" on="1"/>
        <pt x="231" y="648" on="1"/>
        <pt x="176" y="392" on="1"/>
        <pt x="504" y="392" on="1"/>
        <pt x="492" y="333" on="1"/>
        <pt x="164" y="333" on="1"/>
        <pt x="106" y="62" on="1"/>
        <pt x="491" y="62" on="1"/>
        <pt x="478" y="0" on="1"/>
        <pt x="24" y="0" on="1"/>
      </contour>
    </TTGlyph>
    <TTGlyph name="Edblgrave" xMin="24" yMin="0" xMax="620" yMax="918">
      <contour>
        <pt x="426" y="918" on="1"/>
        <pt x="487" y="918" on="1"/>
        <pt x="522" y="825" on="1"/>
        <pt x="481" y="808" on="1"/>
      </contour>
      <contour>
        <pt x="304" y="918" on="1"/>
        <pt x="367" y="918" on="1"/>
        <pt x="401" y="825" on="1"/>
        <pt x="360" y="808" on="1"/>
      </contour>
      <contour>
        <pt x="175" y="710" on="1"/>
        <pt x="620" y="710" on="1"/>
        <pt x="607" y="648" on="1"/>
        <pt x="231" y="648" on="1"/>
        <pt x="176" y="392" on="1"/>
        <pt x="504" y="392" on="1"/>
        <pt x="492" y="333" on="1"/>
        <pt x="164" y="333" on="1"/>
        <pt x="106" y="62" on="1"/>
        <pt x="491" y="62" on="1"/>
        <pt x="478" y="0" on="1"/>
        <pt x="24" y="0" on="1"/>
      </contour>
    </TTGlyph>
    <TTGlyph name="Edieresis" xMin="24" yMin="0" xMax="620" yMax="914">
      <contour>
        <pt x="320" y="820" on="1"/>
        <pt x="341" y="914" on="1"/>
        <pt x="399" y="914" on="1"/>
        <pt x="378" y="820" on="1"/>
      </contour>
      <contour>
        <pt x="464" y="820" on="1"/>
        <pt x="484" y="914" on="1"/>
        <pt x="541" y="914" on="1"/>
        <pt x="522" y="820" on="1"/>
      </contour>
      <contour>
        <pt x="175" y="710" on="1"/>
        <pt x="620" y="710" on="1"/>
        <pt x="607" y="648" on="1"/>
        <pt x="231" y="648" on="1"/>
        <pt x="176" y="392" on="1"/>
        <pt x="504" y="392" on="1"/>
        <pt x="492" y="333" on="1"/>
        <pt x="164" y="333" on="1"/>
        <pt x="106" y="62" on="1"/>
        <pt x="491" y="62" on="1"/>
        <pt x="478" y="0" on="1"/>
        <pt x="24" y="0" on="1"/>
      </contour>
    </TTGlyph>
    <TTGlyph name="Edotaccent" xMin="24" yMin="0" xMax="620" yMax="917">
      <contour>
        <pt x="175" y="710" on="1"/>
        <pt x="620" y="710" on="1"/>
        <pt x="607" y="648" on="1"/>
        <pt x="231" y="648" on="1"/>
        <pt x="176" y="392" on="1"/>
        <pt x="504" y="392" on="1"/>
        <pt x="492" y="333" on="1"/>
        <pt x="164" y="333" on="1"/>
        <pt x="106" y="62" on="1"/>
        <pt x="491" y="62" on="1"/>
        <pt x="478" y="0" on="1"/>
        <pt x="24" y="0" on="1"/>
      </contour>
      <contour>
        <pt x="392" y="820" on="1"/>
        <pt x="413" y="917" on="1"/>
        <pt x="475" y="917" on="1"/>
        <pt x="454" y="820" on="1"/>
      </contour>
    </TTGlyph>
    <TTGlyph name="Edotbelow" xMin="24" yMin="-166" xMax="620" yMax="710">
      <contour>
        <pt x="175" y="710" on="1"/>
        <pt x="620" y="710" on="1"/>
        <pt x="607" y="648" on="1"/>
        <pt x="231" y="648" on="1"/>
        <pt x="176" y="392" on="1"/>
        <pt x="504" y="392" on="1"/>
        <pt x="492" y="333" on="1"/>
        <pt x="164" y="333" on="1"/>
        <pt x="106" y="62" on="1"/>
        <pt x="491" y="62" on="1"/>
        <pt x="478" y="0" on="1"/>
        <pt x="24" y="0" on="1"/>
      </contour>
      <contour>
        <pt x="183" y="-166" on="1"/>
        <pt x="203" y="-68" on="1"/>
        <pt x="265" y="-68" on="1"/>
        <pt x="245" y="-166" on="1"/>
      </contour>
    </TTGlyph>
    <TTGlyph name="Egrave" xMin="24" yMin="0" xMax="620" yMax="917">
      <contour>
        <pt x="175" y="710" on="1"/>
        <pt x="620" y="710" on="1"/>
        <pt x="607" y="648" on="1"/>
        <pt x="231" y="648" on="1"/>
        <pt x="176" y="392" on="1"/>
        <pt x="504" y="392" on="1"/>
        <pt x="492" y="333" on="1"/>
        <pt x="164" y="333" on="1"/>
        <pt x="106" y="62" on="1"/>
        <pt x="491" y="62" on="1"/>
        <pt x="478" y="0" on="1"/>
        <pt x="24" y="0" on="1"/>
      </contour>
      <contour>
        <pt x="356" y="917" on="1"/>
        <pt x="426" y="917" on="1"/>
        <pt x="464" y="824" on="1"/>
        <pt x="415" y="807" on="1"/>
      </contour>
    </TTGlyph>
    <TTGlyph name="Einvertedbreve" xMin="24" yMin="0" xMax="620" yMax="917">
      <contour>
        <pt x="330" y="816" on="1"/>
        <pt x="334" y="837" on="0"/>
        <pt x="356" y="874" on="0"/>
        <pt x="387" y="901" on="0"/>
        <pt x="425" y="917" on="0"/>
        <pt x="445" y="917" on="1"/>
        <pt x="480" y="917" on="0"/>
        <pt x="521" y="870" on="0"/>
        <pt x="521" y="837" on="1"/>
        <pt x="521" y="832" on="0"/>
        <pt x="521" y="821" on="0"/>
        <pt x="519" y="816" on="1"/>
        <pt x="479" y="816" on="1"/>
        <pt x="480" y="822" on="0"/>
        <pt x="481" y="832" on="0"/>
        <pt x="481" y="837" on="1"/>
        <pt x="481" y="882" on="0"/>
        <pt x="440" y="882" on="1"/>
        <pt x="410" y="882" on="0"/>
        <pt x="377" y="843" on="0"/>
        <pt x="370" y="816" on="1"/>
      </contour>
      <contour>
        <pt x="175" y="710" on="1"/>
        <pt x="620" y="710" on="1"/>
        <pt x="607" y="648" on="1"/>
        <pt x="231" y="648" on="1"/>
        <pt x="176" y="392" on="1"/>
        <pt x="504" y="392" on="1"/>
        <pt x="492" y="333" on="1"/>
        <pt x="164" y="333" on="1"/>
        <pt x="106" y="62" on="1"/>
        <pt x="491" y="62" on="1"/>
        <pt x="478" y="0" on="1"/>
        <pt x="24" y="0" on="1"/>
      </contour>
    </TTGlyph>
    <TTGlyph name="Emacron" xMin="24" yMin="0" xMax="620" yMax="896">
      <contour>
        <pt x="175" y="710" on="1"/>
        <pt x="620" y="710" on="1"/>
        <pt x="607" y="648" on="1"/>
        <pt x="231" y="648" on="1"/>
        <pt x="176" y="392" on="1"/>
        <pt x="504" y="392" on="1"/>
        <pt x="492" y="333" on="1"/>
        <pt x="164" y="333" on="1"/>
        <pt x="106" y="62" on="1"/>
        <pt x="491" y="62" on="1"/>
        <pt x="478" y="0" on="1"/>
        <pt x="24" y="0" on="1"/>
      </contour>
      <contour>
        <pt x="289" y="849" on="1"/>
        <pt x="299" y="896" on="1"/>
        <pt x="574" y="896" on="1"/>
        <pt x="564" y="849" on="1"/>
      </contour>
    </TTGlyph>
    <TTGlyph name="Eng" xMin="24" yMin="-181" xMax="734" yMax="710">
      <contour>
        <pt x="396" y="-181" on="1"/>
        <pt x="365" y="-181" on="0"/>
        <pt x="313" y="-163" on="0"/>
        <pt x="296" y="-142" on="1"/>
        <pt x="339" y="-96" on="1"/>
        <pt x="350" y="-110" on="0"/>
        <pt x="384" y="-120" on="0"/>
        <pt x="402" y="-120" on="1"/>
        <pt x="418" y="-120" on="0"/>
        <pt x="453" y="-106" on="0"/>
        <pt x="483" y="-81" on="0"/>
        <pt x="505" y="-47" on="0"/>
        <pt x="509" y="-27" on="1"/>
        <pt x="517" y="9" on="1"/>
        <pt x="216" y="579" on="1"/>
        <pt x="93" y="0" on="1"/>
        <pt x="24" y="0" on="1"/>
        <pt x="175" y="710" on="1"/>
        <pt x="228" y="710" on="1"/>
        <pt x="539" y="122" on="1"/>
        <pt x="664" y="709" on="1"/>
        <pt x="734" y="709" on="1"/>
        <pt x="578" y="-25" on="1"/>
        <pt x="570" y="-60" on="0"/>
        <pt x="533" y="-117" on="0"/>
        <pt x="482" y="-158" on="0"/>
        <pt x="424" y="-181" on="0"/>
      </contour>
    </TTGlyph>
    <TTGlyph name="Eogonek" xMin="24" yMin="-175" xMax="620" yMax="710">
      <contour>
        <pt x="175" y="710" on="1"/>
        <pt x="620" y="710" on="1"/>
        <pt x="607" y="648" on="1"/>
        <pt x="231" y="648" on="1"/>
        <pt x="176" y="392" on="1"/>
        <pt x="504" y="392" on="1"/>
        <pt x="492" y="333" on="1"/>
        <pt x="164" y="333" on="1"/>
        <pt x="106" y="62" on="1"/>
        <pt x="491" y="62" on="1"/>
        <pt x="478" y="0" on="1"/>
        <pt x="282" y="0" on="1"/>
        <pt x="227" y="-32" on="0"/>
        <pt x="183" y="-78" on="0"/>
        <pt x="183" y="-101" on="1"/>
        <pt x="183" y="-131" on="0"/>
        <pt x="225" y="-137" on="1"/>
        <pt x="199" y="-175" on="1"/>
        <pt x="169" y="-168" on="0"/>
        <pt x="139" y="-136" on="0"/>
        <pt x="139" y="-114" on="1"/>
        <pt x="139" y="-86" on="0"/>
        <pt x="184" y="-32" on="0"/>
        <pt x="234" y="0" on="1"/>
        <pt x="24" y="0" on="1"/>
      </contour>
    </TTGlyph>
    <TTGlyph name="Eth" xMin="31" yMin="0" xMax="671" yMax="710">
      <contour>
        <pt x="55" y="384" on="1"/>
        <pt x="112" y="384" on="1"/>
        <pt x="182" y="710" on="1"/>
        <pt x="412" y="710" on="1"/>
        <pt x="478" y="710" on="0"/>
        <pt x="576" y="668" on="0"/>
        <pt x="640" y="594" on="0"/>
        <pt x="671" y="495" on="0"/>
        <pt x="671" y="438" on="1"/>
        <pt x="671" y="344" on="0"/>
        <pt x="609" y="183" on="0"/>
        <pt x="499" y="66" on="0"/>
        <pt x="349" y="0" on="0"/>
        <pt x="261" y="0" on="1"/>
        <pt x="31" y="0" on="1"/>
        <pt x="101" y="330" on="1"/>
        <pt x="43" y="330" on="1"/>
      </contour>
      <contour>
        <pt x="274" y="62" on="1"/>
        <pt x="349" y="62" on="0"/>
        <pt x="470" y="122" on="0"/>
        <pt x="554" y="223" on="0"/>
        <pt x="599" y="355" on="0"/>
        <pt x="599" y="427" on="1"/>
        <pt x="599" y="475" on="0"/>
        <pt x="574" y="557" on="0"/>
        <pt x="523" y="615" on="0"/>
        <pt x="448" y="648" on="0"/>
        <pt x="398" y="648" on="1"/>
        <pt x="238" y="648" on="1"/>
        <pt x="181" y="384" on="1"/>
        <pt x="342" y="384" on="1"/>
        <pt x="331" y="330" on="1"/>
        <pt x="170" y="330" on="1"/>
        <pt x="113" y="62" on="1"/>
      </contour>
    </TTGlyph>
    <TTGlyph name="Etilde" xMin="24" yMin="0" xMax="620" yMax="917">
      <contour>
        <pt x="175" y="710" on="1"/>
        <pt x="620" y="710" on="1"/>
        <pt x="607" y="648" on="1"/>
        <pt x="231" y="648" on="1"/>
        <pt x="176" y="392" on="1"/>
        <pt x="504" y="392" on="1"/>
        <pt x="492" y="333" on="1"/>
        <pt x="164" y="333" on="1"/>
        <pt x="106" y="62" on="1"/>
        <pt x="491" y="62" on="1"/>
        <pt x="478" y="0" on="1"/>
        <pt x="24" y="0" on="1"/>
      </contour>
      <contour>
        <pt x="474" y="825" on="1"/>
        <pt x="453" y="825" on="0"/>
        <pt x="424" y="837" on="0"/>
        <pt x="400" y="852" on="0"/>
        <pt x="376" y="865" on="0"/>
        <pt x="361" y="865" on="1"/>
        <pt x="346" y="865" on="0"/>
        <pt x="324" y="851" on="0"/>
        <pt x="311" y="834" on="0"/>
        <pt x="304" y="819" on="0"/>
        <pt x="304" y="817" on="1"/>
        <pt x="262" y="817" on="1"/>
        <pt x="263" y="822" on="0"/>
        <pt x="277" y="853" on="0"/>
        <pt x="303" y="885" on="0"/>
        <pt x="343" y="910" on="0"/>
        <pt x="370" y="910" on="1"/>
        <pt x="390" y="910" on="0"/>
        <pt x="417" y="897" on="0"/>
        <pt x="441" y="881" on="0"/>
        <pt x="465" y="868" on="0"/>
        <pt x="483" y="868" on="1"/>
        <pt x="501" y="868" on="0"/>
        <pt x="526" y="882" on="0"/>
        <pt x="540" y="900" on="0"/>
        <pt x="547" y="915" on="0"/>
        <pt x="547" y="917" on="1"/>
        <pt x="589" y="917" on="1"/>
        <pt x="588" y="912" on="0"/>
        <pt x="574" y="882" on="0"/>
        <pt x="546" y="850" on="0"/>
        <pt x="504" y="825" on="0"/>
      </contour>
    </TTGlyph>
    <TTGlyph name="Euro" xMin="26" yMin="-6" xMax="756" yMax="714">
      <contour>
        <pt x="155" y="416" on="1"/>
        <pt x="174" y="474" on="0"/>
        <pt x="247" y="582" on="0"/>
        <pt x="346" y="664" on="0"/>
        <pt x="469" y="714" on="0"/>
        <pt x="539" y="714" on="1"/>
        <pt x="630" y="714" on="0"/>
        <pt x="739" y="628" on="0"/>
        <pt x="756" y="559" on="1"/>
        <pt x="693" y="525" on="1"/>
        <pt x="684" y="560" on="0"/>
        <pt x="649" y="608" on="0"/>
        <pt x="603" y="638" on="0"/>
        <pt x="549" y="651" on="0"/>
        <pt x="522" y="651" on="1"/>
        <pt x="469" y="651" on="0"/>
        <pt x="376" y="612" on="0"/>
        <pt x="300" y="548" on="0"/>
        <pt x="243" y="462" on="0"/>
        <pt x="226" y="416" on="1"/>
        <pt x="547" y="416" on="1"/>
        <pt x="520" y="373" on="1"/>
        <pt x="213" y="373" on="1"/>
        <pt x="206" y="342" on="0"/>
        <pt x="204" y="311" on="1"/>
        <pt x="490" y="311" on="1"/>
        <pt x="463" y="268" on="1"/>
        <pt x="205" y="268" on="1"/>
        <pt x="209" y="224" on="0"/>
        <pt x="239" y="147" on="0"/>
        <pt x="288" y="90" on="0"/>
        <pt x="356" y="57" on="0"/>
        <pt x="398" y="57" on="1"/>
        <pt x="426" y="57" on="0"/>
        <pt x="489" y="72" on="0"/>
        <pt x="551" y="105" on="0"/>
        <pt x="609" y="154" on="0"/>
        <pt x="633" y="189" on="1"/>
        <pt x="684" y="159" on="1"/>
        <pt x="659" y="119" on="0"/>
        <pt x="588" y="58" on="0"/>
        <pt x="506" y="16" on="0"/>
        <pt x="420" y="-6" on="0"/>
        <pt x="381" y="-6" on="1"/>
        <pt x="325" y="-6" on="0"/>
        <pt x="237" y="39" on="0"/>
        <pt x="174" y="115" on="0"/>
        <pt x="138" y="214" on="0"/>
        <pt x="135" y="268" on="1"/>
        <pt x="26" y="268" on="1"/>
        <pt x="54" y="311" on="1"/>
        <pt x="134" y="311" on="1"/>
        <pt x="136" y="342" on="0"/>
        <pt x="143" y="373" on="1"/>
        <pt x="75" y="373" on="1"/>
        <pt x="102" y="416" on="1"/>
      </contour>
    </TTGlyph>
    <TTGlyph name="F" xMin="24" yMin="0" xMax="617" yMax="710">
      <contour>
        <pt x="175" y="710" on="1"/>
        <pt x="617" y="710" on="1"/>
        <pt x="604" y="648" on="1"/>
        <pt x="231" y="648" on="1"/>
        <pt x="176" y="387" on="1"/>
        <pt x="491" y="387" on="1"/>
        <pt x="478" y="329" on="1"/>
        <pt x="163" y="329" on="1"/>
        <pt x="93" y="0" on="1"/>
        <pt x="24" y="0" on="1"/>
      </contour>
    </TTGlyph>
    <TTGlyph name="F.sc" xMin="18" yMin="0" xMax="509" yMax="548">
      <contour>
        <pt x="135" y="548" on="1"/>
        <pt x="509" y="548" on="1"/>
        <pt x="497" y="492" on="1"/>
        <pt x="185" y="492" on="1"/>
        <pt x="145" y="302" on="1"/>
        <pt x="409" y="302" on="1"/>
        <pt x="397" y="248" on="1"/>
        <pt x="133" y="248" on="1"/>
        <pt x="81" y="0" on="1"/>
        <pt x="18" y="0" on="1"/>
      </contour>
    </TTGlyph>
    <TTGlyph name="G" xMin="47" yMin="-5" xMax="670" yMax="715">
      <contour>
        <pt x="532" y="103" on="1"/>
        <pt x="417" y="-5" on="0"/>
        <pt x="295" y="-5" on="1"/>
        <pt x="237" y="-5" on="0"/>
        <pt x="145" y="44" on="0"/>
        <pt x="81" y="127" on="0"/>
        <pt x="47" y="234" on="0"/>
        <pt x="47" y="292" on="1"/>
        <pt x="47" y="372" on="0"/>
        <pt x="113" y="524" on="0"/>
        <pt x="224" y="643" on="0"/>
        <pt x="367" y="715" on="0"/>
        <pt x="445" y="715" on="1"/>
        <pt x="494" y="715" on="0"/>
        <pt x="570" y="692" on="0"/>
        <pt x="626" y="651" on="0"/>
        <pt x="661" y="594" on="0"/>
        <pt x="670" y="560" on="1"/>
        <pt x="608" y="524" on="1"/>
        <pt x="590" y="590" on="0"/>
        <pt x="497" y="652" on="0"/>
        <pt x="430" y="652" on="1"/>
        <pt x="366" y="652" on="0"/>
        <pt x="252" y="589" on="0"/>
        <pt x="167" y="487" on="0"/>
        <pt x="117" y="360" on="0"/>
        <pt x="117" y="296" on="1"/>
        <pt x="117" y="247" on="0"/>
        <pt x="145" y="161" on="0"/>
        <pt x="196" y="96" on="0"/>
        <pt x="268" y="58" on="0"/>
        <pt x="313" y="58" on="1"/>
        <pt x="370" y="58" on="0"/>
        <pt x="486" y="115" on="0"/>
        <pt x="547" y="176" on="1"/>
        <pt x="573" y="295" on="1"/>
        <pt x="425" y="295" on="1"/>
        <pt x="436" y="349" on="1"/>
        <pt x="644" y="349" on="1"/>
        <pt x="570" y="0" on="1"/>
        <pt x="510" y="0" on="1"/>
      </contour>
    </TTGlyph>
    <TTGlyph name="G.alt" xMin="47" yMin="-5" xMax="684" yMax="715">
      <contour>
        <pt x="300" y="-5" on="1"/>
        <pt x="240" y="-5" on="0"/>
        <pt x="146" y="44" on="0"/>
        <pt x="81" y="125" on="0"/>
        <pt x="47" y="232" on="0"/>
        <pt x="47" y="290" on="1"/>
        <pt x="47" y="370" on="0"/>
        <pt x="113" y="523" on="0"/>
        <pt x="225" y="642" on="0"/>
        <pt x="372" y="715" on="0"/>
        <pt x="452" y="715" on="1"/>
        <pt x="537" y="715" on="0"/>
        <pt x="651" y="631" on="0"/>
        <pt x="676" y="562" on="1"/>
        <pt x="613" y="517" on="1"/>
        <pt x="604" y="542" on="0"/>
        <pt x="574" y="591" on="0"/>
        <pt x="530" y="629" on="0"/>
        <pt x="471" y="652" on="0"/>
        <pt x="435" y="652" on="1"/>
        <pt x="370" y="652" on="0"/>
        <pt x="254" y="588" on="0"/>
        <pt x="167" y="486" on="0"/>
        <pt x="117" y="358" on="0"/>
        <pt x="117" y="295" on="1"/>
        <pt x="117" y="249" on="0"/>
        <pt x="142" y="163" on="0"/>
        <pt x="190" y="97" on="0"/>
        <pt x="262" y="58" on="0"/>
        <pt x="309" y="58" on="1"/>
        <pt x="357" y="58" on="0"/>
        <pt x="446" y="96" on="0"/>
        <pt x="521" y="160" on="0"/>
        <pt x="579" y="242" on="0"/>
        <pt x="595" y="286" on="1"/>
        <pt x="400" y="286" on="1"/>
        <pt x="414" y="349" on="1"/>
        <pt x="684" y="349" on="1"/>
        <pt x="674" y="311" on="1"/>
        <pt x="657" y="248" on="0"/>
        <pt x="585" y="133" on="0"/>
        <pt x="485" y="46" on="0"/>
        <pt x="364" y="-5" on="0"/>
      </contour>
    </TTGlyph>
    <TTGlyph name="G.sc" xMin="34" yMin="-4" xMax="552" yMax="551">
      <contour>
        <pt x="439" y="76" on="1"/>
        <pt x="346" y="-4" on="0"/>
        <pt x="245" y="-4" on="1"/>
        <pt x="196" y="-4" on="0"/>
        <pt x="118" y="35" on="0"/>
        <pt x="63" y="99" on="0"/>
        <pt x="34" y="184" on="0"/>
        <pt x="34" y="229" on="1"/>
        <pt x="34" y="291" on="0"/>
        <pt x="88" y="407" on="0"/>
        <pt x="178" y="497" on="0"/>
        <pt x="297" y="551" on="0"/>
        <pt x="362" y="551" on="1"/>
        <pt x="444" y="551" on="0"/>
        <pt x="535" y="485" on="0"/>
        <pt x="552" y="432" on="1"/>
        <pt x="496" y="399" on="1"/>
        <pt x="481" y="449" on="0"/>
        <pt x="402" y="495" on="0"/>
        <pt x="348" y="495" on="1"/>
        <pt x="296" y="495" on="0"/>
        <pt x="204" y="449" on="0"/>
        <pt x="136" y="374" on="0"/>
        <pt x="97" y="281" on="0"/>
        <pt x="97" y="233" on="1"/>
        <pt x="97" y="196" on="0"/>
        <pt x="120" y="130" on="0"/>
        <pt x="163" y="81" on="0"/>
        <pt x="224" y="53" on="0"/>
        <pt x="261" y="53" on="1"/>
        <pt x="309" y="53" on="0"/>
        <pt x="404" y="96" on="0"/>
        <pt x="453" y="142" on="1"/>
        <pt x="471" y="223" on="1"/>
        <pt x="347" y="223" on="1"/>
        <pt x="356" y="271" on="1"/>
        <pt x="534" y="271" on="1"/>
        <pt x="477" y="0" on="1"/>
        <pt x="423" y="0" on="1"/>
      </contour>
    </TTGlyph>
    <TTGlyph name="Gacute" xMin="47" yMin="-5" xMax="670" yMax="917">
      <contour>
        <pt x="455" y="807" on="1"/>
        <pt x="413" y="824" on="1"/>
        <pt x="489" y="917" on="1"/>
        <pt x="560" y="917" on="1"/>
      </contour>
      <contour>
        <pt x="532" y="103" on="1"/>
        <pt x="417" y="-5" on="0"/>
        <pt x="295" y="-5" on="1"/>
        <pt x="237" y="-5" on="0"/>
        <pt x="145" y="44" on="0"/>
        <pt x="81" y="127" on="0"/>
        <pt x="47" y="234" on="0"/>
        <pt x="47" y="292" on="1"/>
        <pt x="47" y="372" on="0"/>
        <pt x="113" y="524" on="0"/>
        <pt x="224" y="643" on="0"/>
        <pt x="367" y="715" on="0"/>
        <pt x="445" y="715" on="1"/>
        <pt x="494" y="715" on="0"/>
        <pt x="570" y="692" on="0"/>
        <pt x="626" y="651" on="0"/>
        <pt x="661" y="594" on="0"/>
        <pt x="670" y="560" on="1"/>
        <pt x="608" y="524" on="1"/>
        <pt x="590" y="590" on="0"/>
        <pt x="497" y="652" on="0"/>
        <pt x="430" y="652" on="1"/>
        <pt x="366" y="652" on="0"/>
        <pt x="252" y="589" on="0"/>
        <pt x="167" y="487" on="0"/>
        <pt x="117" y="360" on="0"/>
        <pt x="117" y="296" on="1"/>
        <pt x="117" y="247" on="0"/>
        <pt x="145" y="161" on="0"/>
        <pt x="196" y="96" on="0"/>
        <pt x="268" y="58" on="0"/>
        <pt x="313" y="58" on="1"/>
        <pt x="370" y="58" on="0"/>
        <pt x="486" y="115" on="0"/>
        <pt x="547" y="176" on="1"/>
        <pt x="573" y="295" on="1"/>
        <pt x="425" y="295" on="1"/>
        <pt x="436" y="349" on="1"/>
        <pt x="644" y="349" on="1"/>
        <pt x="570" y="0" on="1"/>
        <pt x="510" y="0" on="1"/>
      </contour>
    </TTGlyph>
    <TTGlyph name="Gbreve" xMin="47" yMin="-5" xMax="670" yMax="917">
      <contour>
        <pt x="532" y="103" on="1"/>
        <pt x="417" y="-5" on="0"/>
        <pt x="295" y="-5" on="1"/>
        <pt x="237" y="-5" on="0"/>
        <pt x="145" y="44" on="0"/>
        <pt x="81" y="127" on="0"/>
        <pt x="47" y="234" on="0"/>
        <pt x="47" y="292" on="1"/>
        <pt x="47" y="372" on="0"/>
        <pt x="113" y="524" on="0"/>
        <pt x="224" y="643" on="0"/>
        <pt x="367" y="715" on="0"/>
        <pt x="445" y="715" on="1"/>
        <pt x="494" y="715" on="0"/>
        <pt x="570" y="692" on="0"/>
        <pt x="626" y="651" on="0"/>
        <pt x="661" y="594" on="0"/>
        <pt x="670" y="560" on="1"/>
        <pt x="608" y="524" on="1"/>
        <pt x="590" y="590" on="0"/>
        <pt x="497" y="652" on="0"/>
        <pt x="430" y="652" on="1"/>
        <pt x="366" y="652" on="0"/>
        <pt x="252" y="589" on="0"/>
        <pt x="167" y="487" on="0"/>
        <pt x="117" y="360" on="0"/>
        <pt x="117" y="296" on="1"/>
        <pt x="117" y="247" on="0"/>
        <pt x="145" y="161" on="0"/>
        <pt x="196" y="96" on="0"/>
        <pt x="268" y="58" on="0"/>
        <pt x="313" y="58" on="1"/>
        <pt x="370" y="58" on="0"/>
        <pt x="486" y="115" on="0"/>
        <pt x="547" y="176" on="1"/>
        <pt x="573" y="295" on="1"/>
        <pt x="425" y="295" on="1"/>
        <pt x="436" y="349" on="1"/>
        <pt x="644" y="349" on="1"/>
        <pt x="570" y="0" on="1"/>
        <pt x="510" y="0" on="1"/>
      </contour>
      <contour>
        <pt x="467" y="851" on="1"/>
        <pt x="487" y="851" on="0"/>
        <pt x="527" y="889" on="0"/>
        <pt x="536" y="917" on="1"/>
        <pt x="576" y="917" on="1"/>
        <pt x="571" y="896" on="0"/>
        <pt x="549" y="859" on="0"/>
        <pt x="518" y="832" on="0"/>
        <pt x="480" y="816" on="0"/>
        <pt x="460" y="816" on="1"/>
        <pt x="425" y="816" on="0"/>
        <pt x="383" y="860" on="0"/>
        <pt x="383" y="894" on="1"/>
        <pt x="383" y="905" on="0"/>
        <pt x="386" y="917" on="1"/>
        <pt x="428" y="917" on="1"/>
        <pt x="426" y="907" on="0"/>
        <pt x="426" y="902" on="1"/>
        <pt x="426" y="881" on="0"/>
        <pt x="449" y="851" on="0"/>
      </contour>
    </TTGlyph>
    <TTGlyph name="Gcircumflex" xMin="47" yMin="-5" xMax="670" yMax="917">
      <contour>
        <pt x="351" y="832" on="1"/>
        <pt x="464" y="917" on="1"/>
        <pt x="514" y="917" on="1"/>
        <pt x="589" y="832" on="1"/>
        <pt x="547" y="811" on="1"/>
        <pt x="479" y="874" on="1"/>
        <pt x="385" y="811" on="1"/>
      </contour>
      <contour>
        <pt x="532" y="103" on="1"/>
        <pt x="417" y="-5" on="0"/>
        <pt x="295" y="-5" on="1"/>
        <pt x="237" y="-5" on="0"/>
        <pt x="145" y="44" on="0"/>
        <pt x="81" y="127" on="0"/>
        <pt x="47" y="234" on="0"/>
        <pt x="47" y="292" on="1"/>
        <pt x="47" y="372" on="0"/>
        <pt x="113" y="524" on="0"/>
        <pt x="224" y="643" on="0"/>
        <pt x="367" y="715" on="0"/>
        <pt x="445" y="715" on="1"/>
        <pt x="494" y="715" on="0"/>
        <pt x="570" y="692" on="0"/>
        <pt x="626" y="651" on="0"/>
        <pt x="661" y="594" on="0"/>
        <pt x="670" y="560" on="1"/>
        <pt x="608" y="524" on="1"/>
        <pt x="590" y="590" on="0"/>
        <pt x="497" y="652" on="0"/>
        <pt x="430" y="652" on="1"/>
        <pt x="366" y="652" on="0"/>
        <pt x="252" y="589" on="0"/>
        <pt x="167" y="487" on="0"/>
        <pt x="117" y="360" on="0"/>
        <pt x="117" y="296" on="1"/>
        <pt x="117" y="247" on="0"/>
        <pt x="145" y="161" on="0"/>
        <pt x="196" y="96" on="0"/>
        <pt x="268" y="58" on="0"/>
        <pt x="313" y="58" on="1"/>
        <pt x="370" y="58" on="0"/>
        <pt x="486" y="115" on="0"/>
        <pt x="547" y="176" on="1"/>
        <pt x="573" y="295" on="1"/>
        <pt x="425" y="295" on="1"/>
        <pt x="436" y="349" on="1"/>
        <pt x="644" y="349" on="1"/>
        <pt x="570" y="0" on="1"/>
        <pt x="510" y="0" on="1"/>
      </contour>
    </TTGlyph>
    <TTGlyph name="Gcommaaccent" xMin="47" yMin="-199" xMax="670" yMax="715">
      <contour>
        <pt x="225" y="-199" on="1"/>
        <pt x="257" y="-125" on="1"/>
        <pt x="237" y="-125" on="1"/>
        <pt x="254" y="-49" on="1"/>
        <pt x="315" y="-49" on="1"/>
        <pt x="299" y="-125" on="1"/>
        <pt x="259" y="-199" on="1"/>
      </contour>
      <contour>
        <pt x="532" y="103" on="1"/>
        <pt x="417" y="-5" on="0"/>
        <pt x="295" y="-5" on="1"/>
        <pt x="237" y="-5" on="0"/>
        <pt x="145" y="44" on="0"/>
        <pt x="81" y="127" on="0"/>
        <pt x="47" y="234" on="0"/>
        <pt x="47" y="292" on="1"/>
        <pt x="47" y="372" on="0"/>
        <pt x="113" y="524" on="0"/>
        <pt x="224" y="643" on="0"/>
        <pt x="367" y="715" on="0"/>
        <pt x="445" y="715" on="1"/>
        <pt x="494" y="715" on="0"/>
        <pt x="570" y="692" on="0"/>
        <pt x="626" y="651" on="0"/>
        <pt x="661" y="594" on="0"/>
        <pt x="670" y="560" on="1"/>
        <pt x="608" y="524" on="1"/>
        <pt x="590" y="590" on="0"/>
        <pt x="497" y="652" on="0"/>
        <pt x="430" y="652" on="1"/>
        <pt x="366" y="652" on="0"/>
        <pt x="252" y="589" on="0"/>
        <pt x="167" y="487" on="0"/>
        <pt x="117" y="360" on="0"/>
        <pt x="117" y="296" on="1"/>
        <pt x="117" y="247" on="0"/>
        <pt x="145" y="161" on="0"/>
        <pt x="196" y="96" on="0"/>
        <pt x="268" y="58" on="0"/>
        <pt x="313" y="58" on="1"/>
        <pt x="370" y="58" on="0"/>
        <pt x="486" y="115" on="0"/>
        <pt x="547" y="176" on="1"/>
        <pt x="573" y="295" on="1"/>
        <pt x="425" y="295" on="1"/>
        <pt x="436" y="349" on="1"/>
        <pt x="644" y="349" on="1"/>
        <pt x="570" y="0" on="1"/>
        <pt x="510" y="0" on="1"/>
      </contour>
    </TTGlyph>
    <TTGlyph name="Gdotaccent" xMin="47" yMin="-5" xMax="670" yMax="917">
      <contour>
        <pt x="532" y="103" on="1"/>
        <pt x="417" y="-5" on="0"/>
        <pt x="295" y="-5" on="1"/>
        <pt x="237" y="-5" on="0"/>
        <pt x="145" y="44" on="0"/>
        <pt x="81" y="127" on="0"/>
        <pt x="47" y="234" on="0"/>
        <pt x="47" y="292" on="1"/>
        <pt x="47" y="372" on="0"/>
        <pt x="113" y="524" on="0"/>
        <pt x="224" y="643" on="0"/>
        <pt x="367" y="715" on="0"/>
        <pt x="445" y="715" on="1"/>
        <pt x="494" y="715" on="0"/>
        <pt x="570" y="692" on="0"/>
        <pt x="626" y="651" on="0"/>
        <pt x="661" y="594" on="0"/>
        <pt x="670" y="560" on="1"/>
        <pt x="608" y="524" on="1"/>
        <pt x="590" y="590" on="0"/>
        <pt x="497" y="652" on="0"/>
        <pt x="430" y="652" on="1"/>
        <pt x="366" y="652" on="0"/>
        <pt x="252" y="589" on="0"/>
        <pt x="167" y="487" on="0"/>
        <pt x="117" y="360" on="0"/>
        <pt x="117" y="296" on="1"/>
        <pt x="117" y="247" on="0"/>
        <pt x="145" y="161" on="0"/>
        <pt x="196" y="96" on="0"/>
        <pt x="268" y="58" on="0"/>
        <pt x="313" y="58" on="1"/>
        <pt x="370" y="58" on="0"/>
        <pt x="486" y="115" on="0"/>
        <pt x="547" y="176" on="1"/>
        <pt x="573" y="295" on="1"/>
        <pt x="425" y="295" on="1"/>
        <pt x="436" y="349" on="1"/>
        <pt x="644" y="349" on="1"/>
        <pt x="570" y="0" on="1"/>
        <pt x="510" y="0" on="1"/>
      </contour>
      <contour>
        <pt x="440" y="820" on="1"/>
        <pt x="461" y="917" on="1"/>
        <pt x="523" y="917" on="1"/>
        <pt x="502" y="820" on="1"/>
      </contour>
    </TTGlyph>
    <TTGlyph name="H" xMin="24" yMin="0" xMax="709" yMax="710">
      <contour>
        <pt x="175" y="710" on="1"/>
        <pt x="244" y="710" on="1"/>
        <pt x="177" y="394" on="1"/>
        <pt x="572" y="394" on="1"/>
        <pt x="639" y="710" on="1"/>
        <pt x="709" y="710" on="1"/>
        <pt x="558" y="0" on="1"/>
        <pt x="488" y="0" on="1"/>
        <pt x="559" y="332" on="1"/>
        <pt x="164" y="332" on="1"/>
        <pt x="93" y="0" on="1"/>
        <pt x="24" y="0" on="1"/>
      </contour>
    </TTGlyph>
    <TTGlyph name="H.sc" xMin="18" yMin="0" xMax="587" yMax="548">
      <contour>
        <pt x="135" y="548" on="1"/>
        <pt x="197" y="548" on="1"/>
        <pt x="146" y="309" on="1"/>
        <pt x="475" y="309" on="1"/>
        <pt x="525" y="548" on="1"/>
        <pt x="587" y="548" on="1"/>
        <pt x="471" y="0" on="1"/>
        <pt x="409" y="0" on="1"/>
        <pt x="462" y="252" on="1"/>
        <pt x="134" y="252" on="1"/>
        <pt x="81" y="0" on="1"/>
        <pt x="18" y="0" on="1"/>
      </contour>
    </TTGlyph>
    <TTGlyph name="Hbar" xMin="29" yMin="0" xMax="736" yMax="710">
      <contour>
        <pt x="107" y="589" on="1"/>
        <pt x="154" y="589" on="1"/>
        <pt x="180" y="710" on="1"/>
        <pt x="250" y="710" on="1"/>
        <pt x="224" y="589" on="1"/>
        <pt x="619" y="589" on="1"/>
        <pt x="645" y="710" on="1"/>
        <pt x="714" y="710" on="1"/>
        <pt x="688" y="589" on="1"/>
        <pt x="736" y="589" on="1"/>
        <pt x="727" y="550" on="1"/>
        <pt x="680" y="550" on="1"/>
        <pt x="563" y="0" on="1"/>
        <pt x="494" y="0" on="1"/>
        <pt x="564" y="332" on="1"/>
        <pt x="169" y="332" on="1"/>
        <pt x="99" y="0" on="1"/>
        <pt x="29" y="0" on="1"/>
        <pt x="146" y="550" on="1"/>
        <pt x="99" y="550" on="1"/>
      </contour>
      <contour>
        <pt x="578" y="394" on="1"/>
        <pt x="611" y="550" on="1"/>
        <pt x="216" y="550" on="1"/>
        <pt x="183" y="394" on="1"/>
      </contour>
    </TTGlyph>
    <TTGlyph name="Hcircumflex" xMin="24" yMin="0" xMax="709" yMax="917">
      <contour>
        <pt x="346" y="832" on="1"/>
        <pt x="459" y="917" on="1"/>
        <pt x="509" y="917" on="1"/>
        <pt x="584" y="832" on="1"/>
        <pt x="542" y="811" on="1"/>
        <pt x="474" y="874" on="1"/>
        <pt x="380" y="811" on="1"/>
      </contour>
      <contour>
        <pt x="175" y="710" on="1"/>
        <pt x="244" y="710" on="1"/>
        <pt x="177" y="394" on="1"/>
        <pt x="572" y="394" on="1"/>
        <pt x="639" y="710" on="1"/>
        <pt x="709" y="710" on="1"/>
        <pt x="558" y="0" on="1"/>
        <pt x="488" y="0" on="1"/>
        <pt x="559" y="332" on="1"/>
        <pt x="164" y="332" on="1"/>
        <pt x="93" y="0" on="1"/>
        <pt x="24" y="0" on="1"/>
      </contour>
    </TTGlyph>
    <TTGlyph name="Hdotbelow" xMin="24" yMin="-166" xMax="709" yMax="710">
      <contour>
        <pt x="175" y="710" on="1"/>
        <pt x="244" y="710" on="1"/>
        <pt x="177" y="394" on="1"/>
        <pt x="572" y="394" on="1"/>
        <pt x="639" y="710" on="1"/>
        <pt x="709" y="710" on="1"/>
        <pt x="558" y="0" on="1"/>
        <pt x="488" y="0" on="1"/>
        <pt x="559" y="332" on="1"/>
        <pt x="164" y="332" on="1"/>
        <pt x="93" y="0" on="1"/>
        <pt x="24" y="0" on="1"/>
      </contour>
      <contour>
        <pt x="226" y="-166" on="1"/>
        <pt x="246" y="-68" on="1"/>
        <pt x="308" y="-68" on="1"/>
        <pt x="288" y="-166" on="1"/>
      </contour>
    </TTGlyph>
    <TTGlyph name="I" xMin="24" yMin="0" xMax="244" yMax="709">
      <contour>
        <pt x="175" y="709" on="1"/>
        <pt x="244" y="709" on="1"/>
        <pt x="93" y="0" on="1"/>
        <pt x="24" y="0" on="1"/>
      </contour>
    </TTGlyph>
    <TTGlyph name="I.sc" xMin="18" yMin="0" xMax="197" yMax="547">
      <contour>
        <pt x="135" y="547" on="1"/>
        <pt x="197" y="547" on="1"/>
        <pt x="81" y="0" on="1"/>
        <pt x="18" y="0" on="1"/>
      </contour>
    </TTGlyph>
    <TTGlyph name="IJ" xMin="24" yMin="-11" xMax="721" yMax="709">
      <contour>
        <pt x="175" y="709" on="1"/>
        <pt x="244" y="709" on="1"/>
        <pt x="93" y="0" on="1"/>
        <pt x="24" y="0" on="1"/>
      </contour>
      <contour>
        <pt x="345" y="-11" on="1"/>
        <pt x="260" y="-11" on="0"/>
        <pt x="208" y="33" on="1"/>
        <pt x="239" y="89" on="1"/>
        <pt x="256" y="74" on="0"/>
        <pt x="317" y="52" on="0"/>
        <pt x="358" y="52" on="1"/>
        <pt x="409" y="52" on="0"/>
        <pt x="478" y="91" on="0"/>
        <pt x="526" y="167" on="0"/>
        <pt x="559" y="278" on="0"/>
        <pt x="574" y="349" on="1"/>
        <pt x="651" y="709" on="1"/>
        <pt x="721" y="709" on="1"/>
        <pt x="644" y="349" on="1"/>
        <pt x="627" y="268" on="0"/>
        <pt x="585" y="135" on="0"/>
        <pt x="518" y="41" on="0"/>
        <pt x="419" y="-11" on="0"/>
      </contour>
    </TTGlyph>
    <TTGlyph name="Iacute" xMin="24" yMin="0" xMax="328" yMax="917">
      <contour>
        <pt x="175" y="709" on="1"/>
        <pt x="244" y="709" on="1"/>
        <pt x="93" y="0" on="1"/>
        <pt x="24" y="0" on="1"/>
      </contour>
      <contour>
        <pt x="223" y="807" on="1"/>
        <pt x="181" y="824" on="1"/>
        <pt x="257" y="917" on="1"/>
        <pt x="328" y="917" on="1"/>
      </contour>
    </TTGlyph>
    <TTGlyph name="Ibreve" xMin="24" yMin="0" xMax="336" yMax="917">
      <contour>
        <pt x="175" y="709" on="1"/>
        <pt x="244" y="709" on="1"/>
        <pt x="93" y="0" on="1"/>
        <pt x="24" y="0" on="1"/>
      </contour>
      <contour>
        <pt x="227" y="851" on="1"/>
        <pt x="247" y="851" on="0"/>
        <pt x="287" y="889" on="0"/>
        <pt x="296" y="917" on="1"/>
        <pt x="336" y="917" on="1"/>
        <pt x="331" y="896" on="0"/>
        <pt x="309" y="859" on="0"/>
        <pt x="278" y="832" on="0"/>
        <pt x="240" y="816" on="0"/>
        <pt x="220" y="816" on="1"/>
        <pt x="185" y="816" on="0"/>
        <pt x="143" y="860" on="0"/>
        <pt x="143" y="894" on="1"/>
        <pt x="143" y="905" on="0"/>
        <pt x="146" y="917" on="1"/>
        <pt x="188" y="917" on="1"/>
        <pt x="186" y="907" on="0"/>
        <pt x="186" y="902" on="1"/>
        <pt x="186" y="881" on="0"/>
        <pt x="209" y="851" on="0"/>
      </contour>
    </TTGlyph>
    <TTGlyph name="Icircumflex" xMin="24" yMin="0" xMax="353" yMax="917">
      <contour>
        <pt x="175" y="709" on="1"/>
        <pt x="244" y="709" on="1"/>
        <pt x="93" y="0" on="1"/>
        <pt x="24" y="0" on="1"/>
      </contour>
      <contour>
        <pt x="115" y="832" on="1"/>
        <pt x="228" y="917" on="1"/>
        <pt x="278" y="917" on="1"/>
        <pt x="353" y="832" on="1"/>
        <pt x="311" y="811" on="1"/>
        <pt x="243" y="874" on="1"/>
        <pt x="149" y="811" on="1"/>
      </contour>
    </TTGlyph>
    <TTGlyph name="Idblgrave" xMin="24" yMin="0" xMax="330" yMax="918">
      <contour>
        <pt x="175" y="709" on="1"/>
        <pt x="244" y="709" on="1"/>
        <pt x="93" y="0" on="1"/>
        <pt x="24" y="0" on="1"/>
      </contour>
      <contour>
        <pt x="234" y="918" on="1"/>
        <pt x="295" y="918" on="1"/>
        <pt x="330" y="825" on="1"/>
        <pt x="289" y="808" on="1"/>
      </contour>
      <contour>
        <pt x="112" y="918" on="1"/>
        <pt x="175" y="918" on="1"/>
        <pt x="209" y="825" on="1"/>
        <pt x="168" y="808" on="1"/>
      </contour>
    </TTGlyph>
    <TTGlyph name="Idieresis" xMin="24" yMin="0" xMax="351" yMax="914">
      <contour>
        <pt x="175" y="709" on="1"/>
        <pt x="244" y="709" on="1"/>
        <pt x="93" y="0" on="1"/>
        <pt x="24" y="0" on="1"/>
      </contour>
      <contour>
        <pt x="130" y="820" on="1"/>
        <pt x="151" y="914" on="1"/>
        <pt x="209" y="914" on="1"/>
        <pt x="188" y="820" on="1"/>
      </contour>
      <contour>
        <pt x="274" y="820" on="1"/>
        <pt x="294" y="914" on="1"/>
        <pt x="351" y="914" on="1"/>
        <pt x="332" y="820" on="1"/>
      </contour>
    </TTGlyph>
    <TTGlyph name="Idotaccent" xMin="24" yMin="0" xMax="283" yMax="917">
      <contour>
        <pt x="175" y="709" on="1"/>
        <pt x="244" y="709" on="1"/>
        <pt x="93" y="0" on="1"/>
        <pt x="24" y="0" on="1"/>
      </contour>
      <contour>
        <pt x="200" y="820" on="1"/>
        <pt x="221" y="917" on="1"/>
        <pt x="283" y="917" on="1"/>
        <pt x="262" y="820" on="1"/>
      </contour>
    </TTGlyph>
    <TTGlyph name="Idotbelow" xMin="-9" yMin="-166" xMax="244" yMax="709">
      <contour>
        <pt x="175" y="709" on="1"/>
        <pt x="244" y="709" on="1"/>
        <pt x="93" y="0" on="1"/>
        <pt x="24" y="0" on="1"/>
      </contour>
      <contour>
        <pt x="-9" y="-166" on="1"/>
        <pt x="11" y="-68" on="1"/>
        <pt x="73" y="-68" on="1"/>
        <pt x="53" y="-166" on="1"/>
      </contour>
    </TTGlyph>
    <TTGlyph name="Igrave" xMin="24" yMin="0" xMax="271" yMax="917">
      <contour>
        <pt x="175" y="709" on="1"/>
        <pt x="244" y="709" on="1"/>
        <pt x="93" y="0" on="1"/>
        <pt x="24" y="0" on="1"/>
      </contour>
      <contour>
        <pt x="163" y="917" on="1"/>
        <pt x="233" y="917" on="1"/>
        <pt x="271" y="824" on="1"/>
        <pt x="222" y="807" on="1"/>
      </contour>
    </TTGlyph>
    <TTGlyph name="Iinvertedbreve" xMin="24" yMin="0" xMax="330" yMax="917">
      <contour>
        <pt x="175" y="709" on="1"/>
        <pt x="244" y="709" on="1"/>
        <pt x="93" y="0" on="1"/>
        <pt x="24" y="0" on="1"/>
      </contour>
      <contour>
        <pt x="139" y="816" on="1"/>
        <pt x="143" y="837" on="0"/>
        <pt x="165" y="874" on="0"/>
        <pt x="196" y="901" on="0"/>
        <pt x="234" y="917" on="0"/>
        <pt x="254" y="917" on="1"/>
        <pt x="289" y="917" on="0"/>
        <pt x="330" y="870" on="0"/>
        <pt x="330" y="837" on="1"/>
        <pt x="330" y="832" on="0"/>
        <pt x="330" y="821" on="0"/>
        <pt x="328" y="816" on="1"/>
        <pt x="288" y="816" on="1"/>
        <pt x="289" y="822" on="0"/>
        <pt x="290" y="832" on="0"/>
        <pt x="290" y="837" on="1"/>
        <pt x="290" y="882" on="0"/>
        <pt x="249" y="882" on="1"/>
        <pt x="219" y="882" on="0"/>
        <pt x="186" y="843" on="0"/>
        <pt x="179" y="816" on="1"/>
      </contour>
    </TTGlyph>
    <TTGlyph name="Imacron" xMin="24" yMin="0" xMax="386" yMax="896">
      <contour>
        <pt x="175" y="709" on="1"/>
        <pt x="244" y="709" on="1"/>
        <pt x="93" y="0" on="1"/>
        <pt x="24" y="0" on="1"/>
      </contour>
      <contour>
        <pt x="101" y="849" on="1"/>
        <pt x="111" y="896" on="1"/>
        <pt x="386" y="896" on="1"/>
        <pt x="376" y="849" on="1"/>
      </contour>
    </TTGlyph>
    <TTGlyph name="Iogonek" xMin="-50" yMin="-175" xMax="244" yMax="709">
      <contour>
        <pt x="175" y="709" on="1"/>
        <pt x="244" y="709" on="1"/>
        <pt x="93" y="0" on="1"/>
        <pt x="38" y="-32" on="0"/>
        <pt x="-6" y="-78" on="0"/>
        <pt x="-6" y="-101" on="1"/>
        <pt x="-6" y="-131" on="0"/>
        <pt x="36" y="-137" on="1"/>
        <pt x="10" y="-175" on="1"/>
        <pt x="-20" y="-168" on="0"/>
        <pt x="-50" y="-136" on="0"/>
        <pt x="-50" y="-114" on="1"/>
        <pt x="-50" y="-86" on="0"/>
        <pt x="-5" y="-32" on="0"/>
        <pt x="45" y="0" on="1"/>
        <pt x="24" y="0" on="1"/>
      </contour>
    </TTGlyph>
    <TTGlyph name="Itilde" xMin="24" yMin="0" xMax="406" yMax="917">
      <contour>
        <pt x="175" y="709" on="1"/>
        <pt x="244" y="709" on="1"/>
        <pt x="93" y="0" on="1"/>
        <pt x="24" y="0" on="1"/>
      </contour>
      <contour>
        <pt x="291" y="825" on="1"/>
        <pt x="270" y="825" on="0"/>
        <pt x="241" y="837" on="0"/>
        <pt x="217" y="852" on="0"/>
        <pt x="193" y="865" on="0"/>
        <pt x="178" y="865" on="1"/>
        <pt x="163" y="865" on="0"/>
        <pt x="141" y="851" on="0"/>
        <pt x="128" y="834" on="0"/>
        <pt x="121" y="819" on="0"/>
        <pt x="121" y="817" on="1"/>
        <pt x="79" y="817" on="1"/>
        <pt x="80" y="822" on="0"/>
        <pt x="94" y="853" on="0"/>
        <pt x="120" y="885" on="0"/>
        <pt x="160" y="910" on="0"/>
        <pt x="187" y="910" on="1"/>
        <pt x="207" y="910" on="0"/>
        <pt x="234" y="897" on="0"/>
        <pt x="258" y="881" on="0"/>
        <pt x="282" y="868" on="0"/>
        <pt x="300" y="868" on="1"/>
        <pt x="318" y="868" on="0"/>
        <pt x="343" y="882" on="0"/>
        <pt x="357" y="900" on="0"/>
        <pt x="364" y="915" on="0"/>
        <pt x="364" y="917" on="1"/>
        <pt x="406" y="917" on="1"/>
        <pt x="405" y="912" on="0"/>
        <pt x="391" y="882" on="0"/>
        <pt x="363" y="850" on="0"/>
        <pt x="321" y="825" on="0"/>
      </contour>
    </TTGlyph>
    <TTGlyph name="J" xMin="-37" yMin="-11" xMax="476" yMax="709">
      <contour>
        <pt x="100" y="-11" on="1"/>
        <pt x="15" y="-11" on="0"/>
        <pt x="-37" y="33" on="1"/>
        <pt x="-6" y="89" on="1"/>
        <pt x="11" y="74" on="0"/>
        <pt x="72" y="52" on="0"/>
        <pt x="113" y="52" on="1"/>
        <pt x="164" y="52" on="0"/>
        <pt x="233" y="91" on="0"/>
        <pt x="281" y="167" on="0"/>
        <pt x="314" y="278" on="0"/>
        <pt x="329" y="349" on="1"/>
        <pt x="406" y="709" on="1"/>
        <pt x="476" y="709" on="1"/>
        <pt x="399" y="349" on="1"/>
        <pt x="382" y="268" on="0"/>
        <pt x="340" y="135" on="0"/>
        <pt x="273" y="41" on="0"/>
        <pt x="174" y="-11" on="0"/>
      </contour>
    </TTGlyph>
    <TTGlyph name="J.sc" xMin="-34" yMin="-8" xMax="391" yMax="547">
      <contour>
        <pt x="83" y="-8" on="1"/>
        <pt x="9" y="-8" on="0"/>
        <pt x="-34" y="25" on="1"/>
        <pt x="-6" y="76" on="1"/>
        <pt x="8" y="65" on="0"/>
        <pt x="60" y="48" on="0"/>
        <pt x="95" y="48" on="1"/>
        <pt x="137" y="48" on="0"/>
        <pt x="194" y="77" on="0"/>
        <pt x="232" y="133" on="0"/>
        <pt x="257" y="215" on="0"/>
        <pt x="269" y="269" on="1"/>
        <pt x="328" y="547" on="1"/>
        <pt x="391" y="547" on="1"/>
        <pt x="331" y="269" on="1"/>
        <pt x="317" y="206" on="0"/>
        <pt x="284" y="104" on="0"/>
        <pt x="229" y="32" on="0"/>
        <pt x="146" y="-8" on="0"/>
      </contour>
    </TTGlyph>
    <TTGlyph name="Jcircumflex" xMin="-37" yMin="-11" xMax="583" yMax="917">
      <contour>
        <pt x="345" y="832" on="1"/>
        <pt x="458" y="917" on="1"/>
        <pt x="508" y="917" on="1"/>
        <pt x="583" y="832" on="1"/>
        <pt x="541" y="811" on="1"/>
        <pt x="473" y="874" on="1"/>
        <pt x="379" y="811" on="1"/>
      </contour>
      <contour>
        <pt x="100" y="-11" on="1"/>
        <pt x="15" y="-11" on="0"/>
        <pt x="-37" y="33" on="1"/>
        <pt x="-6" y="89" on="1"/>
        <pt x="11" y="74" on="0"/>
        <pt x="72" y="52" on="0"/>
        <pt x="113" y="52" on="1"/>
        <pt x="164" y="52" on="0"/>
        <pt x="233" y="91" on="0"/>
        <pt x="281" y="167" on="0"/>
        <pt x="314" y="278" on="0"/>
        <pt x="329" y="349" on="1"/>
        <pt x="406" y="709" on="1"/>
        <pt x="476" y="709" on="1"/>
        <pt x="399" y="349" on="1"/>
        <pt x="382" y="268" on="0"/>
        <pt x="340" y="135" on="0"/>
        <pt x="273" y="41" on="0"/>
        <pt x="174" y="-11" on="0"/>
      </contour>
    </TTGlyph>
    <TTGlyph name="K" xMin="24" yMin="0" xMax="689" yMax="710">
      <contour>
        <pt x="175" y="709" on="1"/>
        <pt x="244" y="709" on="1"/>
        <pt x="156" y="297" on="1"/>
        <pt x="611" y="710" on="1"/>
        <pt x="689" y="710" on="1"/>
        <pt x="347" y="398" on="1"/>
        <pt x="552" y="0" on="1"/>
        <pt x="474" y="0" on="1"/>
        <pt x="295" y="357" on="1"/>
        <pt x="140" y="218" on="1"/>
        <pt x="93" y="0" on="1"/>
        <pt x="24" y="0" on="1"/>
      </contour>
    </TTGlyph>
    <TTGlyph name="K.sc" xMin="18" yMin="0" xMax="571" yMax="548">
      <contour>
        <pt x="135" y="547" on="1"/>
        <pt x="197" y="547" on="1"/>
        <pt x="131" y="238" on="1"/>
        <pt x="502" y="548" on="1"/>
        <pt x="571" y="548" on="1"/>
        <pt x="289" y="307" on="1"/>
        <pt x="467" y="0" on="1"/>
        <pt x="399" y="0" on="1"/>
        <pt x="242" y="270" on="1"/>
        <pt x="117" y="168" on="1"/>
        <pt x="81" y="0" on="1"/>
        <pt x="18" y="0" on="1"/>
      </contour>
    </TTGlyph>
    <TTGlyph name="Kcommaaccent" xMin="24" yMin="-199" xMax="689" yMax="710">
      <contour>
        <pt x="195" y="-199" on="1"/>
        <pt x="227" y="-125" on="1"/>
        <pt x="207" y="-125" on="1"/>
        <pt x="224" y="-49" on="1"/>
        <pt x="285" y="-49" on="1"/>
        <pt x="269" y="-125" on="1"/>
        <pt x="229" y="-199" on="1"/>
      </contour>
      <contour>
        <pt x="175" y="709" on="1"/>
        <pt x="244" y="709" on="1"/>
        <pt x="156" y="297" on="1"/>
        <pt x="611" y="710" on="1"/>
        <pt x="689" y="710" on="1"/>
        <pt x="347" y="398" on="1"/>
        <pt x="552" y="0" on="1"/>
        <pt x="474" y="0" on="1"/>
        <pt x="295" y="357" on="1"/>
        <pt x="140" y="218" on="1"/>
        <pt x="93" y="0" on="1"/>
        <pt x="24" y="0" on="1"/>
      </contour>
    </TTGlyph>
    <TTGlyph name="L" xMin="24" yMin="0" xMax="494" yMax="710">
      <contour>
        <pt x="175" y="710" on="1"/>
        <pt x="244" y="710" on="1"/>
        <pt x="106" y="62" on="1"/>
        <pt x="494" y="62" on="1"/>
        <pt x="481" y="0" on="1"/>
        <pt x="24" y="0" on="1"/>
      </contour>
    </TTGlyph>
    <TTGlyph name="L.sc" xMin="18" yMin="0" xMax="404" yMax="548">
      <contour>
        <pt x="135" y="548" on="1"/>
        <pt x="197" y="548" on="1"/>
        <pt x="93" y="56" on="1"/>
        <pt x="404" y="56" on="1"/>
        <pt x="392" y="0" on="1"/>
        <pt x="18" y="0" on="1"/>
      </contour>
    </TTGlyph>
    <TTGlyph name="Lacute" xMin="24" yMin="0" xMax="494" yMax="917">
      <contour>
        <pt x="235" y="807" on="1"/>
        <pt x="193" y="824" on="1"/>
        <pt x="269" y="917" on="1"/>
        <pt x="340" y="917" on="1"/>
      </contour>
      <contour>
        <pt x="175" y="710" on="1"/>
        <pt x="244" y="710" on="1"/>
        <pt x="106" y="62" on="1"/>
        <pt x="494" y="62" on="1"/>
        <pt x="481" y="0" on="1"/>
        <pt x="24" y="0" on="1"/>
      </contour>
    </TTGlyph>
    <TTGlyph name="Lcaron" xMin="24" yMin="0" xMax="494" yMax="730">
      <contour>
        <pt x="298" y="637" on="1"/>
        <pt x="374" y="730" on="1"/>
        <pt x="446" y="730" on="1"/>
        <pt x="340" y="620" on="1"/>
      </contour>
      <contour>
        <pt x="175" y="710" on="1"/>
        <pt x="244" y="710" on="1"/>
        <pt x="106" y="62" on="1"/>
        <pt x="494" y="62" on="1"/>
        <pt x="481" y="0" on="1"/>
        <pt x="24" y="0" on="1"/>
      </contour>
    </TTGlyph>
    <TTGlyph name="Lcommaaccent" xMin="24" yMin="-199" xMax="494" yMax="710">
      <contour>
        <pt x="185" y="-199" on="1"/>
        <pt x="217" y="-125" on="1"/>
        <pt x="197" y="-125" on="1"/>
        <pt x="214" y="-49" on="1"/>
        <pt x="275" y="-49" on="1"/>
        <pt x="259" y="-125" on="1"/>
        <pt x="219" y="-199" on="1"/>
      </contour>
      <contour>
        <pt x="175" y="710" on="1"/>
        <pt x="244" y="710" on="1"/>
        <pt x="106" y="62" on="1"/>
        <pt x="494" y="62" on="1"/>
        <pt x="481" y="0" on="1"/>
        <pt x="24" y="0" on="1"/>
      </contour>
    </TTGlyph>
    <TTGlyph name="Ldot" xMin="24" yMin="0" xMax="494" yMax="710">
      <contour>
        <pt x="175" y="710" on="1"/>
        <pt x="244" y="710" on="1"/>
        <pt x="106" y="62" on="1"/>
        <pt x="494" y="62" on="1"/>
        <pt x="481" y="0" on="1"/>
        <pt x="24" y="0" on="1"/>
      </contour>
      <contour>
        <pt x="329" y="348" on="1"/>
        <pt x="352" y="460" on="1"/>
        <pt x="410" y="460" on="1"/>
        <pt x="387" y="348" on="1"/>
      </contour>
    </TTGlyph>
    <TTGlyph name="Lslash" xMin="12" yMin="0" xMax="501" yMax="710">
      <contour>
        <pt x="12" y="269" on="1"/>
        <pt x="102" y="335" on="1"/>
        <pt x="182" y="710" on="1"/>
        <pt x="252" y="710" on="1"/>
        <pt x="185" y="396" on="1"/>
        <pt x="357" y="522" on="1"/>
        <pt x="370" y="483" on="1"/>
        <pt x="173" y="338" on="1"/>
        <pt x="114" y="62" on="1"/>
        <pt x="501" y="62" on="1"/>
        <pt x="488" y="0" on="1"/>
        <pt x="31" y="0" on="1"/>
        <pt x="90" y="277" on="1"/>
        <pt x="25" y="229" on="1"/>
      </contour>
    </TTGlyph>
    <TTGlyph name="M" xMin="24" yMin="0" xMax="840" yMax="710">
      <contour>
        <pt x="175" y="710" on="1"/>
        <pt x="247" y="710" on="1"/>
        <pt x="404" y="224" on="1"/>
        <pt x="768" y="710" on="1"/>
        <pt x="840" y="710" on="1"/>
        <pt x="689" y="0" on="1"/>
        <pt x="619" y="0" on="1"/>
        <pt x="743" y="583" on="1"/>
        <pt x="405" y="132" on="1"/>
        <pt x="364" y="132" on="1"/>
        <pt x="218" y="583" on="1"/>
        <pt x="93" y="0" on="1"/>
        <pt x="24" y="0" on="1"/>
      </contour>
    </TTGlyph>
    <TTGlyph name="M.sc" xMin="18" yMin="0" xMax="697" yMax="548">
      <contour>
        <pt x="135" y="548" on="1"/>
        <pt x="200" y="548" on="1"/>
        <pt x="339" y="184" on="1"/>
        <pt x="632" y="548" on="1"/>
        <pt x="697" y="548" on="1"/>
        <pt x="580" y="0" on="1"/>
        <pt x="518" y="0" on="1"/>
        <pt x="610" y="435" on="1"/>
        <pt x="339" y="100" on="1"/>
        <pt x="303" y="100" on="1"/>
        <pt x="173" y="435" on="1"/>
        <pt x="81" y="0" on="1"/>
        <pt x="18" y="0" on="1"/>
      </contour>
    </TTGlyph>
    <TTGlyph name="N" xMin="24" yMin="0" xMax="739" yMax="710">
      <contour>
        <pt x="175" y="710" on="1"/>
        <pt x="229" y="710" on="1"/>
        <pt x="545" y="119" on="1"/>
        <pt x="670" y="709" on="1"/>
        <pt x="739" y="709" on="1"/>
        <pt x="588" y="0" on="1"/>
        <pt x="529" y="0" on="1"/>
        <pt x="216" y="580" on="1"/>
        <pt x="93" y="0" on="1"/>
        <pt x="24" y="0" on="1"/>
      </contour>
    </TTGlyph>
    <TTGlyph name="N.sc" xMin="18" yMin="0" xMax="613" yMax="548">
      <contour>
        <pt x="135" y="548" on="1"/>
        <pt x="183" y="548" on="1"/>
        <pt x="457" y="109" on="1"/>
        <pt x="550" y="547" on="1"/>
        <pt x="613" y="547" on="1"/>
        <pt x="497" y="0" on="1"/>
        <pt x="443" y="0" on="1"/>
        <pt x="172" y="431" on="1"/>
        <pt x="81" y="0" on="1"/>
        <pt x="18" y="0" on="1"/>
      </contour>
    </TTGlyph>
    <TTGlyph name="Nacute" xMin="24" yMin="0" xMax="739" yMax="917">
      <contour>
        <pt x="480" y="807" on="1"/>
        <pt x="438" y="824" on="1"/>
        <pt x="514" y="917" on="1"/>
        <pt x="585" y="917" on="1"/>
      </contour>
      <contour>
        <pt x="175" y="710" on="1"/>
        <pt x="229" y="710" on="1"/>
        <pt x="545" y="119" on="1"/>
        <pt x="670" y="709" on="1"/>
        <pt x="739" y="709" on="1"/>
        <pt x="588" y="0" on="1"/>
        <pt x="529" y="0" on="1"/>
        <pt x="216" y="580" on="1"/>
        <pt x="93" y="0" on="1"/>
        <pt x="24" y="0" on="1"/>
      </contour>
    </TTGlyph>
    <TTGlyph name="Ncaron" xMin="24" yMin="0" xMax="739" yMax="917">
      <contour>
        <pt x="372" y="897" on="1"/>
        <pt x="415" y="917" on="1"/>
        <pt x="482" y="854" on="1"/>
        <pt x="576" y="917" on="1"/>
        <pt x="610" y="897" on="1"/>
        <pt x="498" y="811" on="1"/>
        <pt x="448" y="811" on="1"/>
      </contour>
      <contour>
        <pt x="175" y="710" on="1"/>
        <pt x="229" y="710" on="1"/>
        <pt x="545" y="119" on="1"/>
        <pt x="670" y="709" on="1"/>
        <pt x="739" y="709" on="1"/>
        <pt x="588" y="0" on="1"/>
        <pt x="529" y="0" on="1"/>
        <pt x="216" y="580" on="1"/>
        <pt x="93" y="0" on="1"/>
        <pt x="24" y="0" on="1"/>
      </contour>
    </TTGlyph>
    <TTGlyph name="Ncommaaccent" xMin="24" yMin="-199" xMax="739" yMax="710">
      <contour>
        <pt x="239" y="-199" on="1"/>
        <pt x="271" y="-125" on="1"/>
        <pt x="251" y="-125" on="1"/>
        <pt x="268" y="-49" on="1"/>
        <pt x="329" y="-49" on="1"/>
        <pt x="313" y="-125" on="1"/>
        <pt x="273" y="-199" on="1"/>
      </contour>
      <contour>
        <pt x="175" y="710" on="1"/>
        <pt x="229" y="710" on="1"/>
        <pt x="545" y="119" on="1"/>
        <pt x="670" y="709" on="1"/>
        <pt x="739" y="709" on="1"/>
        <pt x="588" y="0" on="1"/>
        <pt x="529" y="0" on="1"/>
        <pt x="216" y="580" on="1"/>
        <pt x="93" y="0" on="1"/>
        <pt x="24" y="0" on="1"/>
      </contour>
    </TTGlyph>
    <TTGlyph name="Ndotaccent" xMin="24" yMin="0" xMax="739" yMax="917">
      <contour>
        <pt x="450" y="820" on="1"/>
        <pt x="471" y="917" on="1"/>
        <pt x="533" y="917" on="1"/>
        <pt x="512" y="820" on="1"/>
      </contour>
      <contour>
        <pt x="175" y="710" on="1"/>
        <pt x="229" y="710" on="1"/>
        <pt x="545" y="119" on="1"/>
        <pt x="670" y="709" on="1"/>
        <pt x="739" y="709" on="1"/>
        <pt x="588" y="0" on="1"/>
        <pt x="529" y="0" on="1"/>
        <pt x="216" y="580" on="1"/>
        <pt x="93" y="0" on="1"/>
        <pt x="24" y="0" on="1"/>
      </contour>
    </TTGlyph>
    <TTGlyph name="Ntilde" xMin="24" yMin="0" xMax="739" yMax="917">
      <contour>
        <pt x="175" y="710" on="1"/>
        <pt x="229" y="710" on="1"/>
        <pt x="545" y="119" on="1"/>
        <pt x="670" y="709" on="1"/>
        <pt x="739" y="709" on="1"/>
        <pt x="588" y="0" on="1"/>
        <pt x="529" y="0" on="1"/>
        <pt x="216" y="580" on="1"/>
        <pt x="93" y="0" on="1"/>
        <pt x="24" y="0" on="1"/>
      </contour>
      <contour>
        <pt x="542" y="825" on="1"/>
        <pt x="521" y="825" on="0"/>
        <pt x="492" y="837" on="0"/>
        <pt x="468" y="852" on="0"/>
        <pt x="444" y="865" on="0"/>
        <pt x="429" y="865" on="1"/>
        <pt x="414" y="865" on="0"/>
        <pt x="392" y="851" on="0"/>
        <pt x="379" y="834" on="0"/>
        <pt x="372" y="819" on="0"/>
        <pt x="372" y="817" on="1"/>
        <pt x="330" y="817" on="1"/>
        <pt x="331" y="822" on="0"/>
        <pt x="345" y="853" on="0"/>
        <pt x="371" y="885" on="0"/>
        <pt x="411" y="910" on="0"/>
        <pt x="438" y="910" on="1"/>
        <pt x="458" y="910" on="0"/>
        <pt x="485" y="897" on="0"/>
        <pt x="509" y="881" on="0"/>
        <pt x="533" y="868" on="0"/>
        <pt x="551" y="868" on="1"/>
        <pt x="569" y="868" on="0"/>
        <pt x="594" y="882" on="0"/>
        <pt x="608" y="900" on="0"/>
        <pt x="615" y="915" on="0"/>
        <pt x="615" y="917" on="1"/>
        <pt x="657" y="917" on="1"/>
        <pt x="656" y="912" on="0"/>
        <pt x="642" y="882" on="0"/>
        <pt x="614" y="850" on="0"/>
        <pt x="572" y="825" on="0"/>
      </contour>
    </TTGlyph>
    <TTGlyph name="O" xMin="46" yMin="-5" xMax="698" yMax="715">
      <contour>
        <pt x="296" y="-5" on="1"/>
        <pt x="236" y="-5" on="0"/>
        <pt x="143" y="44" on="0"/>
        <pt x="79" y="125" on="0"/>
        <pt x="46" y="231" on="0"/>
        <pt x="46" y="288" on="1"/>
        <pt x="46" y="369" on="0"/>
        <pt x="114" y="523" on="0"/>
        <pt x="227" y="643" on="0"/>
        <pt x="372" y="715" on="0"/>
        <pt x="450" y="715" on="1"/>
        <pt x="510" y="715" on="0"/>
        <pt x="602" y="665" on="0"/>
        <pt x="665" y="583" on="0"/>
        <pt x="698" y="477" on="0"/>
        <pt x="698" y="420" on="1"/>
        <pt x="698" y="339" on="0"/>
        <pt x="631" y="186" on="0"/>
        <pt x="519" y="67" on="0"/>
        <pt x="374" y="-5" on="0"/>
      </contour>
      <contour>
        <pt x="310" y="58" on="1"/>
        <pt x="376" y="58" on="0"/>
        <pt x="491" y="122" on="0"/>
        <pt x="578" y="225" on="0"/>
        <pt x="628" y="352" on="0"/>
        <pt x="628" y="415" on="1"/>
        <pt x="628" y="462" on="0"/>
        <pt x="602" y="548" on="0"/>
        <pt x="553" y="613" on="0"/>
        <pt x="481" y="651" on="0"/>
        <pt x="436" y="651" on="1"/>
        <pt x="370" y="651" on="0"/>
        <pt x="254" y="587" on="0"/>
        <pt x="167" y="485" on="0"/>
        <pt x="117" y="358" on="0"/>
        <pt x="117" y="294" on="1"/>
        <pt x="117" y="247" on="0"/>
        <pt x="142" y="161" on="0"/>
        <pt x="192" y="96" on="0"/>
        <pt x="263" y="58" on="0"/>
      </contour>
    </TTGlyph>
    <TTGlyph name="O.sc" xMin="32" yMin="-4" xMax="579" yMax="551">
      <contour>
        <pt x="247" y="-4" on="1"/>
        <pt x="196" y="-4" on="0"/>
        <pt x="116" y="34" on="0"/>
        <pt x="61" y="98" on="0"/>
        <pt x="32" y="181" on="0"/>
        <pt x="32" y="226" on="1"/>
        <pt x="32" y="288" on="0"/>
        <pt x="87" y="405" on="0"/>
        <pt x="180" y="496" on="0"/>
        <pt x="301" y="551" on="0"/>
        <pt x="366" y="551" on="1"/>
        <pt x="417" y="551" on="0"/>
        <pt x="497" y="512" on="0"/>
        <pt x="551" y="447" on="0"/>
        <pt x="579" y="364" on="0"/>
        <pt x="579" y="320" on="1"/>
        <pt x="579" y="258" on="0"/>
        <pt x="524" y="141" on="0"/>
        <pt x="432" y="51" on="0"/>
        <pt x="312" y="-4" on="0"/>
      </contour>
      <contour>
        <pt x="260" y="53" on="1"/>
        <pt x="314" y="53" on="0"/>
        <pt x="407" y="100" on="0"/>
        <pt x="476" y="175" on="0"/>
        <pt x="516" y="268" on="0"/>
        <pt x="516" y="314" on="1"/>
        <pt x="516" y="350" on="0"/>
        <pt x="494" y="415" on="0"/>
        <pt x="452" y="465" on="0"/>
        <pt x="391" y="494" on="0"/>
        <pt x="353" y="494" on="1"/>
        <pt x="300" y="494" on="0"/>
        <pt x="206" y="447" on="0"/>
        <pt x="136" y="373" on="0"/>
        <pt x="96" y="279" on="0"/>
        <pt x="96" y="233" on="1"/>
        <pt x="96" y="197" on="0"/>
        <pt x="118" y="132" on="0"/>
        <pt x="160" y="82" on="0"/>
        <pt x="221" y="53" on="0"/>
      </contour>
    </TTGlyph>
    <TTGlyph name="OE" xMin="46" yMin="-5" xMax="1137" yMax="715">
      <contour>
        <pt x="297" y="-5" on="1"/>
        <pt x="237" y="-5" on="0"/>
        <pt x="143" y="44" on="0"/>
        <pt x="79" y="125" on="0"/>
        <pt x="46" y="231" on="0"/>
        <pt x="46" y="288" on="1"/>
        <pt x="46" y="369" on="0"/>
        <pt x="114" y="523" on="0"/>
        <pt x="227" y="643" on="0"/>
        <pt x="372" y="715" on="0"/>
        <pt x="450" y="715" on="1"/>
        <pt x="493" y="715" on="0"/>
        <pt x="563" y="686" on="0"/>
        <pt x="616" y="636" on="0"/>
        <pt x="650" y="568" on="0"/>
        <pt x="658" y="530" on="1"/>
        <pt x="696" y="710" on="1"/>
        <pt x="1137" y="710" on="1"/>
        <pt x="1123" y="648" on="1"/>
        <pt x="752" y="648" on="1"/>
        <pt x="699" y="393" on="1"/>
        <pt x="1018" y="393" on="1"/>
        <pt x="1004" y="331" on="1"/>
        <pt x="685" y="331" on="1"/>
        <pt x="628" y="62" on="1"/>
        <pt x="1007" y="62" on="1"/>
        <pt x="994" y="0" on="1"/>
        <pt x="545" y="0" on="1"/>
        <pt x="584" y="180" on="1"/>
        <pt x="559" y="141" on="0"/>
        <pt x="495" y="73" on="0"/>
        <pt x="420" y="23" on="0"/>
        <pt x="339" y="-5" on="0"/>
      </contour>
      <contour>
        <pt x="309" y="58" on="1"/>
        <pt x="375" y="58" on="0"/>
        <pt x="490" y="122" on="0"/>
        <pt x="577" y="225" on="0"/>
        <pt x="627" y="352" on="0"/>
        <pt x="627" y="415" on="1"/>
        <pt x="627" y="462" on="0"/>
        <pt x="601" y="548" on="0"/>
        <pt x="552" y="613" on="0"/>
        <pt x="481" y="652" on="0"/>
        <pt x="436" y="652" on="1"/>
        <pt x="370" y="652" on="0"/>
        <pt x="254" y="588" on="0"/>
        <pt x="167" y="486" on="0"/>
        <pt x="117" y="358" on="0"/>
        <pt x="117" y="294" on="1"/>
        <pt x="117" y="247" on="0"/>
        <pt x="142" y="161" on="0"/>
        <pt x="191" y="96" on="0"/>
        <pt x="263" y="58" on="0"/>
      </contour>
    </TTGlyph>
    <TTGlyph name="Oacute" xMin="46" yMin="-5" xMax="698" yMax="917">
      <contour>
        <pt x="471" y="807" on="1"/>
        <pt x="429" y="824" on="1"/>
        <pt x="505" y="917" on="1"/>
        <pt x="576" y="917" on="1"/>
      </contour>
      <contour>
        <pt x="296" y="-5" on="1"/>
        <pt x="236" y="-5" on="0"/>
        <pt x="143" y="44" on="0"/>
        <pt x="79" y="125" on="0"/>
        <pt x="46" y="231" on="0"/>
        <pt x="46" y="288" on="1"/>
        <pt x="46" y="369" on="0"/>
        <pt x="114" y="523" on="0"/>
        <pt x="227" y="643" on="0"/>
        <pt x="372" y="715" on="0"/>
        <pt x="450" y="715" on="1"/>
        <pt x="510" y="715" on="0"/>
        <pt x="602" y="665" on="0"/>
        <pt x="665" y="583" on="0"/>
        <pt x="698" y="477" on="0"/>
        <pt x="698" y="420" on="1"/>
        <pt x="698" y="339" on="0"/>
        <pt x="631" y="186" on="0"/>
        <pt x="519" y="67" on="0"/>
        <pt x="374" y="-5" on="0"/>
      </contour>
      <contour>
        <pt x="310" y="58" on="1"/>
        <pt x="376" y="58" on="0"/>
        <pt x="491" y="122" on="0"/>
        <pt x="578" y="225" on="0"/>
        <pt x="628" y="352" on="0"/>
        <pt x="628" y="415" on="1"/>
        <pt x="628" y="462" on="0"/>
        <pt x="602" y="548" on="0"/>
        <pt x="553" y="613" on="0"/>
        <pt x="481" y="651" on="0"/>
        <pt x="436" y="651" on="1"/>
        <pt x="370" y="651" on="0"/>
        <pt x="254" y="587" on="0"/>
        <pt x="167" y="485" on="0"/>
        <pt x="117" y="358" on="0"/>
        <pt x="117" y="294" on="1"/>
        <pt x="117" y="247" on="0"/>
        <pt x="142" y="161" on="0"/>
        <pt x="192" y="96" on="0"/>
        <pt x="263" y="58" on="0"/>
      </contour>
    </TTGlyph>
    <TTGlyph name="Obreve" xMin="46" yMin="-5" xMax="698" yMax="917">
      <contour>
        <pt x="296" y="-5" on="1"/>
        <pt x="236" y="-5" on="0"/>
        <pt x="143" y="44" on="0"/>
        <pt x="79" y="125" on="0"/>
        <pt x="46" y="231" on="0"/>
        <pt x="46" y="288" on="1"/>
        <pt x="46" y="369" on="0"/>
        <pt x="114" y="523" on="0"/>
        <pt x="227" y="643" on="0"/>
        <pt x="372" y="715" on="0"/>
        <pt x="450" y="715" on="1"/>
        <pt x="510" y="715" on="0"/>
        <pt x="602" y="665" on="0"/>
        <pt x="665" y="583" on="0"/>
        <pt x="698" y="477" on="0"/>
        <pt x="698" y="420" on="1"/>
        <pt x="698" y="339" on="0"/>
        <pt x="631" y="186" on="0"/>
        <pt x="519" y="67" on="0"/>
        <pt x="374" y="-5" on="0"/>
      </contour>
      <contour>
        <pt x="310" y="58" on="1"/>
        <pt x="376" y="58" on="0"/>
        <pt x="491" y="122" on="0"/>
        <pt x="578" y="225" on="0"/>
        <pt x="628" y="352" on="0"/>
        <pt x="628" y="415" on="1"/>
        <pt x="628" y="462" on="0"/>
        <pt x="602" y="548" on="0"/>
        <pt x="553" y="613" on="0"/>
        <pt x="481" y="651" on="0"/>
        <pt x="436" y="651" on="1"/>
        <pt x="370" y="651" on="0"/>
        <pt x="254" y="587" on="0"/>
        <pt x="167" y="485" on="0"/>
        <pt x="117" y="358" on="0"/>
        <pt x="117" y="294" on="1"/>
        <pt x="117" y="247" on="0"/>
        <pt x="142" y="161" on="0"/>
        <pt x="192" y="96" on="0"/>
        <pt x="263" y="58" on="0"/>
      </contour>
      <contour>
        <pt x="472" y="851" on="1"/>
        <pt x="492" y="851" on="0"/>
        <pt x="532" y="889" on="0"/>
        <pt x="541" y="917" on="1"/>
        <pt x="581" y="917" on="1"/>
        <pt x="576" y="896" on="0"/>
        <pt x="554" y="859" on="0"/>
        <pt x="523" y="832" on="0"/>
        <pt x="485" y="816" on="0"/>
        <pt x="465" y="816" on="1"/>
        <pt x="430" y="816" on="0"/>
        <pt x="388" y="860" on="0"/>
        <pt x="388" y="894" on="1"/>
        <pt x="388" y="905" on="0"/>
        <pt x="391" y="917" on="1"/>
        <pt x="433" y="917" on="1"/>
        <pt x="431" y="907" on="0"/>
        <pt x="431" y="902" on="1"/>
        <pt x="431" y="881" on="0"/>
        <pt x="454" y="851" on="0"/>
      </contour>
    </TTGlyph>
    <TTGlyph name="Ocircumflex" xMin="46" yMin="-5" xMax="698" yMax="917">
      <contour>
        <pt x="362" y="832" on="1"/>
        <pt x="475" y="917" on="1"/>
        <pt x="525" y="917" on="1"/>
        <pt x="600" y="832" on="1"/>
        <pt x="558" y="811" on="1"/>
        <pt x="490" y="874" on="1"/>
        <pt x="396" y="811" on="1"/>
      </contour>
      <contour>
        <pt x="296" y="-5" on="1"/>
        <pt x="236" y="-5" on="0"/>
        <pt x="143" y="44" on="0"/>
        <pt x="79" y="125" on="0"/>
        <pt x="46" y="231" on="0"/>
        <pt x="46" y="288" on="1"/>
        <pt x="46" y="369" on="0"/>
        <pt x="114" y="523" on="0"/>
        <pt x="227" y="643" on="0"/>
        <pt x="372" y="715" on="0"/>
        <pt x="450" y="715" on="1"/>
        <pt x="510" y="715" on="0"/>
        <pt x="602" y="665" on="0"/>
        <pt x="665" y="583" on="0"/>
        <pt x="698" y="477" on="0"/>
        <pt x="698" y="420" on="1"/>
        <pt x="698" y="339" on="0"/>
        <pt x="631" y="186" on="0"/>
        <pt x="519" y="67" on="0"/>
        <pt x="374" y="-5" on="0"/>
      </contour>
      <contour>
        <pt x="310" y="58" on="1"/>
        <pt x="376" y="58" on="0"/>
        <pt x="491" y="122" on="0"/>
        <pt x="578" y="225" on="0"/>
        <pt x="628" y="352" on="0"/>
        <pt x="628" y="415" on="1"/>
        <pt x="628" y="462" on="0"/>
        <pt x="602" y="548" on="0"/>
        <pt x="553" y="613" on="0"/>
        <pt x="481" y="651" on="0"/>
        <pt x="436" y="651" on="1"/>
        <pt x="370" y="651" on="0"/>
        <pt x="254" y="587" on="0"/>
        <pt x="167" y="485" on="0"/>
        <pt x="117" y="358" on="0"/>
        <pt x="117" y="294" on="1"/>
        <pt x="117" y="247" on="0"/>
        <pt x="142" y="161" on="0"/>
        <pt x="192" y="96" on="0"/>
        <pt x="263" y="58" on="0"/>
      </contour>
    </TTGlyph>
    <TTGlyph name="Odblgrave" xMin="46" yMin="-5" xMax="698" yMax="918">
      <contour>
        <pt x="491" y="918" on="1"/>
        <pt x="552" y="918" on="1"/>
        <pt x="587" y="825" on="1"/>
        <pt x="546" y="808" on="1"/>
      </contour>
      <contour>
        <pt x="369" y="918" on="1"/>
        <pt x="432" y="918" on="1"/>
        <pt x="466" y="825" on="1"/>
        <pt x="425" y="808" on="1"/>
      </contour>
      <contour>
        <pt x="296" y="-5" on="1"/>
        <pt x="236" y="-5" on="0"/>
        <pt x="143" y="44" on="0"/>
        <pt x="79" y="125" on="0"/>
        <pt x="46" y="231" on="0"/>
        <pt x="46" y="288" on="1"/>
        <pt x="46" y="369" on="0"/>
        <pt x="114" y="523" on="0"/>
        <pt x="227" y="643" on="0"/>
        <pt x="372" y="715" on="0"/>
        <pt x="450" y="715" on="1"/>
        <pt x="510" y="715" on="0"/>
        <pt x="602" y="665" on="0"/>
        <pt x="665" y="583" on="0"/>
        <pt x="698" y="477" on="0"/>
        <pt x="698" y="420" on="1"/>
        <pt x="698" y="339" on="0"/>
        <pt x="631" y="186" on="0"/>
        <pt x="519" y="67" on="0"/>
        <pt x="374" y="-5" on="0"/>
      </contour>
      <contour>
        <pt x="310" y="58" on="1"/>
        <pt x="376" y="58" on="0"/>
        <pt x="491" y="122" on="0"/>
        <pt x="578" y="225" on="0"/>
        <pt x="628" y="352" on="0"/>
        <pt x="628" y="415" on="1"/>
        <pt x="628" y="462" on="0"/>
        <pt x="602" y="548" on="0"/>
        <pt x="553" y="613" on="0"/>
        <pt x="481" y="651" on="0"/>
        <pt x="436" y="651" on="1"/>
        <pt x="370" y="651" on="0"/>
        <pt x="254" y="587" on="0"/>
        <pt x="167" y="485" on="0"/>
        <pt x="117" y="358" on="0"/>
        <pt x="117" y="294" on="1"/>
        <pt x="117" y="247" on="0"/>
        <pt x="142" y="161" on="0"/>
        <pt x="192" y="96" on="0"/>
        <pt x="263" y="58" on="0"/>
      </contour>
    </TTGlyph>
    <TTGlyph name="Odieresis" xMin="46" yMin="-5" xMax="698" yMax="914">
      <contour>
        <pt x="372" y="820" on="1"/>
        <pt x="393" y="914" on="1"/>
        <pt x="451" y="914" on="1"/>
        <pt x="430" y="820" on="1"/>
      </contour>
      <contour>
        <pt x="516" y="820" on="1"/>
        <pt x="536" y="914" on="1"/>
        <pt x="593" y="914" on="1"/>
        <pt x="574" y="820" on="1"/>
      </contour>
      <contour>
        <pt x="296" y="-5" on="1"/>
        <pt x="236" y="-5" on="0"/>
        <pt x="143" y="44" on="0"/>
        <pt x="79" y="125" on="0"/>
        <pt x="46" y="231" on="0"/>
        <pt x="46" y="288" on="1"/>
        <pt x="46" y="369" on="0"/>
        <pt x="114" y="523" on="0"/>
        <pt x="227" y="643" on="0"/>
        <pt x="372" y="715" on="0"/>
        <pt x="450" y="715" on="1"/>
        <pt x="510" y="715" on="0"/>
        <pt x="602" y="665" on="0"/>
        <pt x="665" y="583" on="0"/>
        <pt x="698" y="477" on="0"/>
        <pt x="698" y="420" on="1"/>
        <pt x="698" y="339" on="0"/>
        <pt x="631" y="186" on="0"/>
        <pt x="519" y="67" on="0"/>
        <pt x="374" y="-5" on="0"/>
      </contour>
      <contour>
        <pt x="310" y="58" on="1"/>
        <pt x="376" y="58" on="0"/>
        <pt x="491" y="122" on="0"/>
        <pt x="578" y="225" on="0"/>
        <pt x="628" y="352" on="0"/>
        <pt x="628" y="415" on="1"/>
        <pt x="628" y="462" on="0"/>
        <pt x="602" y="548" on="0"/>
        <pt x="553" y="613" on="0"/>
        <pt x="481" y="651" on="0"/>
        <pt x="436" y="651" on="1"/>
        <pt x="370" y="651" on="0"/>
        <pt x="254" y="587" on="0"/>
        <pt x="167" y="485" on="0"/>
        <pt x="117" y="358" on="0"/>
        <pt x="117" y="294" on="1"/>
        <pt x="117" y="247" on="0"/>
        <pt x="142" y="161" on="0"/>
        <pt x="192" y="96" on="0"/>
        <pt x="263" y="58" on="0"/>
      </contour>
    </TTGlyph>
    <TTGlyph name="Odotbelow" xMin="46" yMin="-166" xMax="698" yMax="715">
      <contour>
        <pt x="236" y="-166" on="1"/>
        <pt x="256" y="-68" on="1"/>
        <pt x="318" y="-68" on="1"/>
        <pt x="298" y="-166" on="1"/>
      </contour>
      <contour>
        <pt x="296" y="-5" on="1"/>
        <pt x="236" y="-5" on="0"/>
        <pt x="143" y="44" on="0"/>
        <pt x="79" y="125" on="0"/>
        <pt x="46" y="231" on="0"/>
        <pt x="46" y="288" on="1"/>
        <pt x="46" y="369" on="0"/>
        <pt x="114" y="523" on="0"/>
        <pt x="227" y="643" on="0"/>
        <pt x="372" y="715" on="0"/>
        <pt x="450" y="715" on="1"/>
        <pt x="510" y="715" on="0"/>
        <pt x="602" y="665" on="0"/>
        <pt x="665" y="583" on="0"/>
        <pt x="698" y="477" on="0"/>
        <pt x="698" y="420" on="1"/>
        <pt x="698" y="339" on="0"/>
        <pt x="631" y="186" on="0"/>
        <pt x="519" y="67" on="0"/>
        <pt x="374" y="-5" on="0"/>
      </contour>
      <contour>
        <pt x="310" y="58" on="1"/>
        <pt x="376" y="58" on="0"/>
        <pt x="491" y="122" on="0"/>
        <pt x="578" y="225" on="0"/>
        <pt x="628" y="352" on="0"/>
        <pt x="628" y="415" on="1"/>
        <pt x="628" y="462" on="0"/>
        <pt x="602" y="548" on="0"/>
        <pt x="553" y="613" on="0"/>
        <pt x="481" y="651" on="0"/>
        <pt x="436" y="651" on="1"/>
        <pt x="370" y="651" on="0"/>
        <pt x="254" y="587" on="0"/>
        <pt x="167" y="485" on="0"/>
        <pt x="117" y="358" on="0"/>
        <pt x="117" y="294" on="1"/>
        <pt x="117" y="247" on="0"/>
        <pt x="142" y="161" on="0"/>
        <pt x="192" y="96" on="0"/>
        <pt x="263" y="58" on="0"/>
      </contour>
    </TTGlyph>
    <TTGlyph name="Ograve" xMin="46" yMin="-5" xMax="698" yMax="917">
      <contour>
        <pt x="296" y="-5" on="1"/>
        <pt x="236" y="-5" on="0"/>
        <pt x="143" y="44" on="0"/>
        <pt x="79" y="125" on="0"/>
        <pt x="46" y="231" on="0"/>
        <pt x="46" y="288" on="1"/>
        <pt x="46" y="369" on="0"/>
        <pt x="114" y="523" on="0"/>
        <pt x="227" y="643" on="0"/>
        <pt x="372" y="715" on="0"/>
        <pt x="450" y="715" on="1"/>
        <pt x="510" y="715" on="0"/>
        <pt x="602" y="665" on="0"/>
        <pt x="665" y="583" on="0"/>
        <pt x="698" y="477" on="0"/>
        <pt x="698" y="420" on="1"/>
        <pt x="698" y="339" on="0"/>
        <pt x="631" y="186" on="0"/>
        <pt x="519" y="67" on="0"/>
        <pt x="374" y="-5" on="0"/>
      </contour>
      <contour>
        <pt x="310" y="58" on="1"/>
        <pt x="376" y="58" on="0"/>
        <pt x="491" y="122" on="0"/>
        <pt x="578" y="225" on="0"/>
        <pt x="628" y="352" on="0"/>
        <pt x="628" y="415" on="1"/>
        <pt x="628" y="462" on="0"/>
        <pt x="602" y="548" on="0"/>
        <pt x="553" y="613" on="0"/>
        <pt x="481" y="651" on="0"/>
        <pt x="436" y="651" on="1"/>
        <pt x="370" y="651" on="0"/>
        <pt x="254" y="587" on="0"/>
        <pt x="167" y="485" on="0"/>
        <pt x="117" y="358" on="0"/>
        <pt x="117" y="294" on="1"/>
        <pt x="117" y="247" on="0"/>
        <pt x="142" y="161" on="0"/>
        <pt x="192" y="96" on="0"/>
        <pt x="263" y="58" on="0"/>
      </contour>
      <contour>
        <pt x="422" y="917" on="1"/>
        <pt x="492" y="917" on="1"/>
        <pt x="530" y="824" on="1"/>
        <pt x="481" y="807" on="1"/>
      </contour>
    </TTGlyph>
    <TTGlyph name="Ohungarumlaut" xMin="46" yMin="-5" xMax="698" yMax="917">
      <contour>
        <pt x="405" y="807" on="1"/>
        <pt x="372" y="824" on="1"/>
        <pt x="445" y="917" on="1"/>
        <pt x="508" y="917" on="1"/>
      </contour>
      <contour>
        <pt x="526" y="807" on="1"/>
        <pt x="494" y="824" on="1"/>
        <pt x="567" y="917" on="1"/>
        <pt x="629" y="917" on="1"/>
      </contour>
      <contour>
        <pt x="296" y="-5" on="1"/>
        <pt x="236" y="-5" on="0"/>
        <pt x="143" y="44" on="0"/>
        <pt x="79" y="125" on="0"/>
        <pt x="46" y="231" on="0"/>
        <pt x="46" y="288" on="1"/>
        <pt x="46" y="369" on="0"/>
        <pt x="114" y="523" on="0"/>
        <pt x="227" y="643" on="0"/>
        <pt x="372" y="715" on="0"/>
        <pt x="450" y="715" on="1"/>
        <pt x="510" y="715" on="0"/>
        <pt x="602" y="665" on="0"/>
        <pt x="665" y="583" on="0"/>
        <pt x="698" y="477" on="0"/>
        <pt x="698" y="420" on="1"/>
        <pt x="698" y="339" on="0"/>
        <pt x="631" y="186" on="0"/>
        <pt x="519" y="67" on="0"/>
        <pt x="374" y="-5" on="0"/>
      </contour>
      <contour>
        <pt x="310" y="58" on="1"/>
        <pt x="376" y="58" on="0"/>
        <pt x="491" y="122" on="0"/>
        <pt x="578" y="225" on="0"/>
        <pt x="628" y="352" on="0"/>
        <pt x="628" y="415" on="1"/>
        <pt x="628" y="462" on="0"/>
        <pt x="602" y="548" on="0"/>
        <pt x="553" y="613" on="0"/>
        <pt x="481" y="651" on="0"/>
        <pt x="436" y="651" on="1"/>
        <pt x="370" y="651" on="0"/>
        <pt x="254" y="587" on="0"/>
        <pt x="167" y="485" on="0"/>
        <pt x="117" y="358" on="0"/>
        <pt x="117" y="294" on="1"/>
        <pt x="117" y="247" on="0"/>
        <pt x="142" y="161" on="0"/>
        <pt x="192" y="96" on="0"/>
        <pt x="263" y="58" on="0"/>
      </contour>
    </TTGlyph>
    <TTGlyph name="Oinvertedbreve" xMin="46" yMin="-5" xMax="698" yMax="917">
      <contour>
        <pt x="387" y="816" on="1"/>
        <pt x="391" y="837" on="0"/>
        <pt x="413" y="874" on="0"/>
        <pt x="444" y="901" on="0"/>
        <pt x="482" y="917" on="0"/>
        <pt x="502" y="917" on="1"/>
        <pt x="537" y="917" on="0"/>
        <pt x="578" y="870" on="0"/>
        <pt x="578" y="837" on="1"/>
        <pt x="578" y="832" on="0"/>
        <pt x="578" y="821" on="0"/>
        <pt x="576" y="816" on="1"/>
        <pt x="536" y="816" on="1"/>
        <pt x="537" y="822" on="0"/>
        <pt x="538" y="832" on="0"/>
        <pt x="538" y="837" on="1"/>
        <pt x="538" y="882" on="0"/>
        <pt x="497" y="882" on="1"/>
        <pt x="467" y="882" on="0"/>
        <pt x="434" y="843" on="0"/>
        <pt x="427" y="816" on="1"/>
      </contour>
      <contour>
        <pt x="296" y="-5" on="1"/>
        <pt x="236" y="-5" on="0"/>
        <pt x="143" y="44" on="0"/>
        <pt x="79" y="125" on="0"/>
        <pt x="46" y="231" on="0"/>
        <pt x="46" y="288" on="1"/>
        <pt x="46" y="369" on="0"/>
        <pt x="114" y="523" on="0"/>
        <pt x="227" y="643" on="0"/>
        <pt x="372" y="715" on="0"/>
        <pt x="450" y="715" on="1"/>
        <pt x="510" y="715" on="0"/>
        <pt x="602" y="665" on="0"/>
        <pt x="665" y="583" on="0"/>
        <pt x="698" y="477" on="0"/>
        <pt x="698" y="420" on="1"/>
        <pt x="698" y="339" on="0"/>
        <pt x="631" y="186" on="0"/>
        <pt x="519" y="67" on="0"/>
        <pt x="374" y="-5" on="0"/>
      </contour>
      <contour>
        <pt x="310" y="58" on="1"/>
        <pt x="376" y="58" on="0"/>
        <pt x="491" y="122" on="0"/>
        <pt x="578" y="225" on="0"/>
        <pt x="628" y="352" on="0"/>
        <pt x="628" y="415" on="1"/>
        <pt x="628" y="462" on="0"/>
        <pt x="602" y="548" on="0"/>
        <pt x="553" y="613" on="0"/>
        <pt x="481" y="651" on="0"/>
        <pt x="436" y="651" on="1"/>
        <pt x="370" y="651" on="0"/>
        <pt x="254" y="587" on="0"/>
        <pt x="167" y="485" on="0"/>
        <pt x="117" y="358" on="0"/>
        <pt x="117" y="294" on="1"/>
        <pt x="117" y="247" on="0"/>
        <pt x="142" y="161" on="0"/>
        <pt x="192" y="96" on="0"/>
        <pt x="263" y="58" on="0"/>
      </contour>
    </TTGlyph>
    <TTGlyph name="Omacron" xMin="46" yMin="-5" xMax="698" yMax="896">
      <contour>
        <pt x="343" y="849" on="1"/>
        <pt x="353" y="896" on="1"/>
        <pt x="628" y="896" on="1"/>
        <pt x="618" y="849" on="1"/>
      </contour>
      <contour>
        <pt x="296" y="-5" on="1"/>
        <pt x="236" y="-5" on="0"/>
        <pt x="143" y="44" on="0"/>
        <pt x="79" y="125" on="0"/>
        <pt x="46" y="231" on="0"/>
        <pt x="46" y="288" on="1"/>
        <pt x="46" y="369" on="0"/>
        <pt x="114" y="523" on="0"/>
        <pt x="227" y="643" on="0"/>
        <pt x="372" y="715" on="0"/>
        <pt x="450" y="715" on="1"/>
        <pt x="510" y="715" on="0"/>
        <pt x="602" y="665" on="0"/>
        <pt x="665" y="583" on="0"/>
        <pt x="698" y="477" on="0"/>
        <pt x="698" y="420" on="1"/>
        <pt x="698" y="339" on="0"/>
        <pt x="631" y="186" on="0"/>
        <pt x="519" y="67" on="0"/>
        <pt x="374" y="-5" on="0"/>
      </contour>
      <contour>
        <pt x="310" y="58" on="1"/>
        <pt x="376" y="58" on="0"/>
        <pt x="491" y="122" on="0"/>
        <pt x="578" y="225" on="0"/>
        <pt x="628" y="352" on="0"/>
        <pt x="628" y="415" on="1"/>
        <pt x="628" y="462" on="0"/>
        <pt x="602" y="548" on="0"/>
        <pt x="553" y="613" on="0"/>
        <pt x="481" y="651" on="0"/>
        <pt x="436" y="651" on="1"/>
        <pt x="370" y="651" on="0"/>
        <pt x="254" y="587" on="0"/>
        <pt x="167" y="485" on="0"/>
        <pt x="117" y="358" on="0"/>
        <pt x="117" y="294" on="1"/>
        <pt x="117" y="247" on="0"/>
        <pt x="142" y="161" on="0"/>
        <pt x="192" y="96" on="0"/>
        <pt x="263" y="58" on="0"/>
      </contour>
    </TTGlyph>
    <TTGlyph name="Omega" xMin="55" yMin="0" xMax="727" yMax="715">
      <contour>
        <pt x="55" y="62" on="1"/>
        <pt x="245" y="62" on="1"/>
        <pt x="160" y="107" on="0"/>
        <pt x="63" y="267" on="0"/>
        <pt x="63" y="365" on="1"/>
        <pt x="63" y="434" on="0"/>
        <pt x="113" y="561" on="0"/>
        <pt x="200" y="657" on="0"/>
        <pt x="320" y="715" on="0"/>
        <pt x="391" y="715" on="1"/>
        <pt x="461" y="715" on="0"/>
        <pt x="581" y="657" on="0"/>
        <pt x="668" y="561" on="0"/>
        <pt x="718" y="434" on="0"/>
        <pt x="718" y="365" on="1"/>
        <pt x="718" y="267" on="0"/>
        <pt x="621" y="107" on="0"/>
        <pt x="536" y="62" on="1"/>
        <pt x="727" y="62" on="1"/>
        <pt x="727" y="0" on="1"/>
        <pt x="438" y="0" on="1"/>
        <pt x="438" y="62" on="1"/>
        <pt x="487" y="76" on="0"/>
        <pt x="565" y="138" on="0"/>
        <pt x="619" y="221" on="0"/>
        <pt x="648" y="317" on="0"/>
        <pt x="648" y="365" on="1"/>
        <pt x="648" y="418" on="0"/>
        <pt x="612" y="521" on="0"/>
        <pt x="545" y="602" on="0"/>
        <pt x="450" y="651" on="0"/>
        <pt x="391" y="651" on="1"/>
        <pt x="331" y="651" on="0"/>
        <pt x="236" y="602" on="0"/>
        <pt x="169" y="521" on="0"/>
        <pt x="133" y="418" on="0"/>
        <pt x="133" y="365" on="1"/>
        <pt x="133" y="317" on="0"/>
        <pt x="162" y="221" on="0"/>
        <pt x="216" y="138" on="0"/>
        <pt x="294" y="76" on="0"/>
        <pt x="344" y="62" on="1"/>
        <pt x="344" y="0" on="1"/>
        <pt x="55" y="0" on="1"/>
      </contour>
    </TTGlyph>
    <TTGlyph name="Oogonek" xMin="46" yMin="-176" xMax="698" yMax="715">
      <contour>
        <pt x="236" y="-176" on="1"/>
        <pt x="206" y="-169" on="0"/>
        <pt x="176" y="-137" on="0"/>
        <pt x="176" y="-115" on="1"/>
        <pt x="176" y="-87" on="0"/>
        <pt x="220" y="-34" on="0"/>
        <pt x="268" y="-3" on="1"/>
        <pt x="214" y="3" on="0"/>
        <pt x="132" y="54" on="0"/>
        <pt x="75" y="134" on="0"/>
        <pt x="46" y="234" on="0"/>
        <pt x="46" y="288" on="1"/>
        <pt x="46" y="369" on="0"/>
        <pt x="114" y="523" on="0"/>
        <pt x="227" y="643" on="0"/>
        <pt x="372" y="715" on="0"/>
        <pt x="450" y="715" on="1"/>
        <pt x="510" y="715" on="0"/>
        <pt x="602" y="665" on="0"/>
        <pt x="665" y="583" on="0"/>
        <pt x="698" y="477" on="0"/>
        <pt x="698" y="420" on="1"/>
        <pt x="698" y="342" on="0"/>
        <pt x="634" y="192" on="0"/>
        <pt x="527" y="74" on="0"/>
        <pt x="388" y="0" on="0"/>
        <pt x="313" y="-4" on="1"/>
        <pt x="261" y="-35" on="0"/>
        <pt x="220" y="-79" on="0"/>
        <pt x="220" y="-102" on="1"/>
        <pt x="220" y="-132" on="0"/>
        <pt x="262" y="-138" on="1"/>
      </contour>
      <contour>
        <pt x="310" y="58" on="1"/>
        <pt x="376" y="58" on="0"/>
        <pt x="491" y="122" on="0"/>
        <pt x="578" y="225" on="0"/>
        <pt x="628" y="352" on="0"/>
        <pt x="628" y="415" on="1"/>
        <pt x="628" y="462" on="0"/>
        <pt x="602" y="548" on="0"/>
        <pt x="553" y="613" on="0"/>
        <pt x="481" y="651" on="0"/>
        <pt x="436" y="651" on="1"/>
        <pt x="370" y="651" on="0"/>
        <pt x="254" y="587" on="0"/>
        <pt x="167" y="485" on="0"/>
        <pt x="117" y="358" on="0"/>
        <pt x="117" y="294" on="1"/>
        <pt x="117" y="247" on="0"/>
        <pt x="142" y="161" on="0"/>
        <pt x="192" y="96" on="0"/>
        <pt x="263" y="58" on="0"/>
      </contour>
    </TTGlyph>
    <TTGlyph name="Oslash" xMin="36" yMin="-5" xMax="713" yMax="715">
      <contour>
        <pt x="713" y="710" on="1"/>
        <pt x="637" y="620" on="1"/>
        <pt x="667" y="578" on="0"/>
        <pt x="698" y="475" on="0"/>
        <pt x="698" y="420" on="1"/>
        <pt x="698" y="339" on="0"/>
        <pt x="631" y="186" on="0"/>
        <pt x="519" y="67" on="0"/>
        <pt x="374" y="-5" on="0"/>
        <pt x="296" y="-5" on="1"/>
        <pt x="252" y="-5" on="0"/>
        <pt x="179" y="21" on="0"/>
        <pt x="150" y="44" on="1"/>
        <pt x="113" y="0" on="1"/>
        <pt x="36" y="0" on="1"/>
        <pt x="109" y="86" on="1"/>
        <pt x="78" y="127" on="0"/>
        <pt x="46" y="231" on="0"/>
        <pt x="46" y="288" on="1"/>
        <pt x="46" y="369" on="0"/>
        <pt x="114" y="523" on="0"/>
        <pt x="227" y="643" on="0"/>
        <pt x="372" y="715" on="0"/>
        <pt x="450" y="715" on="1"/>
        <pt x="495" y="715" on="0"/>
        <pt x="568" y="687" on="0"/>
        <pt x="597" y="663" on="1"/>
        <pt x="637" y="710" on="1"/>
      </contour>
      <contour>
        <pt x="117" y="294" on="1"/>
        <pt x="117" y="251" on="0"/>
        <pt x="137" y="174" on="0"/>
        <pt x="157" y="143" on="1"/>
        <pt x="551" y="608" on="1"/>
        <pt x="528" y="628" on="0"/>
        <pt x="471" y="651" on="0"/>
        <pt x="436" y="651" on="1"/>
        <pt x="370" y="651" on="0"/>
        <pt x="254" y="587" on="0"/>
        <pt x="167" y="485" on="0"/>
        <pt x="117" y="358" on="0"/>
      </contour>
      <contour>
        <pt x="310" y="58" on="1"/>
        <pt x="376" y="58" on="0"/>
        <pt x="491" y="122" on="0"/>
        <pt x="578" y="225" on="0"/>
        <pt x="628" y="352" on="0"/>
        <pt x="628" y="415" on="1"/>
        <pt x="628" y="457" on="0"/>
        <pt x="608" y="532" on="0"/>
        <pt x="589" y="563" on="1"/>
        <pt x="196" y="98" on="1"/>
        <pt x="219" y="79" on="0"/>
        <pt x="275" y="58" on="0"/>
      </contour>
    </TTGlyph>
    <TTGlyph name="Oslashacute" xMin="36" yMin="-5" xMax="713" yMax="917">
      <contour>
        <pt x="713" y="710" on="1"/>
        <pt x="637" y="620" on="1"/>
        <pt x="667" y="578" on="0"/>
        <pt x="698" y="475" on="0"/>
        <pt x="698" y="420" on="1"/>
        <pt x="698" y="339" on="0"/>
        <pt x="631" y="186" on="0"/>
        <pt x="519" y="67" on="0"/>
        <pt x="374" y="-5" on="0"/>
        <pt x="296" y="-5" on="1"/>
        <pt x="252" y="-5" on="0"/>
        <pt x="179" y="21" on="0"/>
        <pt x="150" y="44" on="1"/>
        <pt x="113" y="0" on="1"/>
        <pt x="36" y="0" on="1"/>
        <pt x="109" y="86" on="1"/>
        <pt x="78" y="127" on="0"/>
        <pt x="46" y="231" on="0"/>
        <pt x="46" y="288" on="1"/>
        <pt x="46" y="369" on="0"/>
        <pt x="114" y="523" on="0"/>
        <pt x="227" y="643" on="0"/>
        <pt x="372" y="715" on="0"/>
        <pt x="450" y="715" on="1"/>
        <pt x="495" y="715" on="0"/>
        <pt x="568" y="687" on="0"/>
        <pt x="597" y="663" on="1"/>
        <pt x="637" y="710" on="1"/>
      </contour>
      <contour>
        <pt x="117" y="294" on="1"/>
        <pt x="117" y="251" on="0"/>
        <pt x="137" y="174" on="0"/>
        <pt x="157" y="143" on="1"/>
        <pt x="551" y="608" on="1"/>
        <pt x="528" y="628" on="0"/>
        <pt x="471" y="651" on="0"/>
        <pt x="436" y="651" on="1"/>
        <pt x="370" y="651" on="0"/>
        <pt x="254" y="587" on="0"/>
        <pt x="167" y="485" on="0"/>
        <pt x="117" y="358" on="0"/>
      </contour>
      <contour>
        <pt x="310" y="58" on="1"/>
        <pt x="376" y="58" on="0"/>
        <pt x="491" y="122" on="0"/>
        <pt x="578" y="225" on="0"/>
        <pt x="628" y="352" on="0"/>
        <pt x="628" y="415" on="1"/>
        <pt x="628" y="457" on="0"/>
        <pt x="608" y="532" on="0"/>
        <pt x="589" y="563" on="1"/>
        <pt x="196" y="98" on="1"/>
        <pt x="219" y="79" on="0"/>
        <pt x="275" y="58" on="0"/>
      </contour>
      <contour>
        <pt x="472" y="807" on="1"/>
        <pt x="430" y="824" on="1"/>
        <pt x="506" y="917" on="1"/>
        <pt x="577" y="917" on="1"/>
      </contour>
    </TTGlyph>
    <TTGlyph name="Otilde" xMin="46" yMin="-5" xMax="698" yMax="917">
      <contour>
        <pt x="296" y="-5" on="1"/>
        <pt x="236" y="-5" on="0"/>
        <pt x="143" y="44" on="0"/>
        <pt x="79" y="125" on="0"/>
        <pt x="46" y="231" on="0"/>
        <pt x="46" y="288" on="1"/>
        <pt x="46" y="369" on="0"/>
        <pt x="114" y="523" on="0"/>
        <pt x="227" y="643" on="0"/>
        <pt x="372" y="715" on="0"/>
        <pt x="450" y="715" on="1"/>
        <pt x="510" y="715" on="0"/>
        <pt x="602" y="665" on="0"/>
        <pt x="665" y="583" on="0"/>
        <pt x="698" y="477" on="0"/>
        <pt x="698" y="420" on="1"/>
        <pt x="698" y="339" on="0"/>
        <pt x="631" y="186" on="0"/>
        <pt x="519" y="67" on="0"/>
        <pt x="374" y="-5" on="0"/>
      </contour>
      <contour>
        <pt x="310" y="58" on="1"/>
        <pt x="376" y="58" on="0"/>
        <pt x="491" y="122" on="0"/>
        <pt x="578" y="225" on="0"/>
        <pt x="628" y="352" on="0"/>
        <pt x="628" y="415" on="1"/>
        <pt x="628" y="462" on="0"/>
        <pt x="602" y="548" on="0"/>
        <pt x="553" y="613" on="0"/>
        <pt x="481" y="651" on="0"/>
        <pt x="436" y="651" on="1"/>
        <pt x="370" y="651" on="0"/>
        <pt x="254" y="587" on="0"/>
        <pt x="167" y="485" on="0"/>
        <pt x="117" y="358" on="0"/>
        <pt x="117" y="294" on="1"/>
        <pt x="117" y="247" on="0"/>
        <pt x="142" y="161" on="0"/>
        <pt x="192" y="96" on="0"/>
        <pt x="263" y="58" on="0"/>
      </contour>
      <contour>
        <pt x="532" y="825" on="1"/>
        <pt x="511" y="825" on="0"/>
        <pt x="482" y="837" on="0"/>
        <pt x="458" y="852" on="0"/>
        <pt x="434" y="865" on="0"/>
        <pt x="419" y="865" on="1"/>
        <pt x="404" y="865" on="0"/>
        <pt x="382" y="851" on="0"/>
        <pt x="369" y="834" on="0"/>
        <pt x="362" y="819" on="0"/>
        <pt x="362" y="817" on="1"/>
        <pt x="320" y="817" on="1"/>
        <pt x="321" y="822" on="0"/>
        <pt x="335" y="853" on="0"/>
        <pt x="361" y="885" on="0"/>
        <pt x="401" y="910" on="0"/>
        <pt x="428" y="910" on="1"/>
        <pt x="448" y="910" on="0"/>
        <pt x="475" y="897" on="0"/>
        <pt x="499" y="881" on="0"/>
        <pt x="523" y="868" on="0"/>
        <pt x="541" y="868" on="1"/>
        <pt x="559" y="868" on="0"/>
        <pt x="584" y="882" on="0"/>
        <pt x="598" y="900" on="0"/>
        <pt x="605" y="915" on="0"/>
        <pt x="605" y="917" on="1"/>
        <pt x="647" y="917" on="1"/>
        <pt x="646" y="912" on="0"/>
        <pt x="632" y="882" on="0"/>
        <pt x="604" y="850" on="0"/>
        <pt x="562" y="825" on="0"/>
      </contour>
    </TTGlyph>
    <TTGlyph name="P" xMin="24" yMin="0" xMax="613" yMax="710">
      <contour>
        <pt x="175" y="710" on="1"/>
        <pt x="455" y="710" on="1"/>
        <pt x="492" y="710" on="0"/>
        <pt x="551" y="679" on="0"/>
        <pt x="591" y="627" on="0"/>
        <pt x="613" y="560" on="0"/>
        <pt x="613" y="525" on="1"/>
        <pt x="613" y="477" on="0"/>
        <pt x="573" y="383" on="0"/>
        <pt x="505" y="308" on="0"/>
        <pt x="415" y="262" on="0"/>
        <pt x="365" y="262" on="1"/>
        <pt x="149" y="262" on="1"/>
        <pt x="93" y="0" on="1"/>
        <pt x="24" y="0" on="1"/>
      </contour>
      <contour>
        <pt x="374" y="324" on="1"/>
        <pt x="408" y="324" on="0"/>
        <pt x="470" y="358" on="0"/>
        <pt x="515" y="413" on="0"/>
        <pt x="542" y="483" on="0"/>
        <pt x="542" y="519" on="1"/>
        <pt x="542" y="546" on="0"/>
        <pt x="527" y="593" on="0"/>
        <pt x="499" y="628" on="0"/>
        <pt x="460" y="648" on="0"/>
        <pt x="437" y="648" on="1"/>
        <pt x="231" y="648" on="1"/>
        <pt x="162" y="324" on="1"/>
      </contour>
    </TTGlyph>
    <TTGlyph name="P.sc" xMin="18" yMin="0" xMax="508" yMax="548">
      <contour>
        <pt x="135" y="548" on="1"/>
        <pt x="371" y="548" on="1"/>
        <pt x="403" y="548" on="0"/>
        <pt x="454" y="523" on="0"/>
        <pt x="489" y="482" on="0"/>
        <pt x="508" y="429" on="0"/>
        <pt x="508" y="401" on="1"/>
        <pt x="508" y="364" on="0"/>
        <pt x="475" y="292" on="0"/>
        <pt x="419" y="235" on="0"/>
        <pt x="344" y="199" on="0"/>
        <pt x="302" y="199" on="1"/>
        <pt x="123" y="199" on="1"/>
        <pt x="81" y="0" on="1"/>
        <pt x="18" y="0" on="1"/>
      </contour>
      <contour>
        <pt x="310" y="255" on="1"/>
        <pt x="338" y="255" on="0"/>
        <pt x="387" y="279" on="0"/>
        <pt x="423" y="318" on="0"/>
        <pt x="444" y="368" on="0"/>
        <pt x="444" y="395" on="1"/>
        <pt x="444" y="437" on="0"/>
        <pt x="395" y="492" on="0"/>
        <pt x="356" y="492" on="1"/>
        <pt x="185" y="492" on="1"/>
        <pt x="135" y="255" on="1"/>
      </contour>
    </TTGlyph>
    <TTGlyph name="Q" xMin="46" yMin="-5" xMax="698" yMax="715">
      <contour>
        <pt x="495" y="59" on="1"/>
        <pt x="449" y="29" on="0"/>
        <pt x="349" y="-5" on="0"/>
        <pt x="296" y="-5" on="1"/>
        <pt x="236" y="-5" on="0"/>
        <pt x="143" y="44" on="0"/>
        <pt x="79" y="125" on="0"/>
        <pt x="46" y="231" on="0"/>
        <pt x="46" y="288" on="1"/>
        <pt x="46" y="369" on="0"/>
        <pt x="114" y="523" on="0"/>
        <pt x="227" y="643" on="0"/>
        <pt x="373" y="715" on="0"/>
        <pt x="451" y="715" on="1"/>
        <pt x="511" y="715" on="0"/>
        <pt x="603" y="665" on="0"/>
        <pt x="666" y="583" on="0"/>
        <pt x="698" y="477" on="0"/>
        <pt x="698" y="420" on="1"/>
        <pt x="698" y="374" on="0"/>
        <pt x="675" y="284" on="0"/>
        <pt x="634" y="201" on="0"/>
        <pt x="577" y="126" on="0"/>
        <pt x="542" y="96" on="1"/>
        <pt x="601" y="0" on="1"/>
        <pt x="531" y="0" on="1"/>
      </contour>
      <contour>
        <pt x="310" y="58" on="1"/>
        <pt x="352" y="58" on="0"/>
        <pt x="430" y="85" on="0"/>
        <pt x="465" y="109" on="1"/>
        <pt x="400" y="218" on="1"/>
        <pt x="469" y="218" on="1"/>
        <pt x="511" y="148" on="1"/>
        <pt x="565" y="201" on="0"/>
        <pt x="628" y="343" on="0"/>
        <pt x="628" y="415" on="1"/>
        <pt x="628" y="462" on="0"/>
        <pt x="602" y="548" on="0"/>
        <pt x="553" y="613" on="0"/>
        <pt x="481" y="652" on="0"/>
        <pt x="436" y="652" on="1"/>
        <pt x="370" y="652" on="0"/>
        <pt x="254" y="588" on="0"/>
        <pt x="167" y="486" on="0"/>
        <pt x="117" y="358" on="0"/>
        <pt x="117" y="294" on="1"/>
        <pt x="117" y="247" on="0"/>
        <pt x="142" y="161" on="0"/>
        <pt x="192" y="96" on="0"/>
        <pt x="263" y="58" on="0"/>
      </contour>
    </TTGlyph>
    <TTGlyph name="Q.sc" xMin="32" yMin="-4" xMax="579" yMax="551">
      <contour>
        <pt x="414" y="45" on="1"/>
        <pt x="376" y="22" on="0"/>
        <pt x="292" y="-4" on="0"/>
        <pt x="247" y="-4" on="1"/>
        <pt x="196" y="-4" on="0"/>
        <pt x="116" y="34" on="0"/>
        <pt x="61" y="98" on="0"/>
        <pt x="32" y="181" on="0"/>
        <pt x="32" y="226" on="1"/>
        <pt x="32" y="288" on="0"/>
        <pt x="88" y="405" on="0"/>
        <pt x="181" y="496" on="0"/>
        <pt x="301" y="551" on="0"/>
        <pt x="366" y="551" on="1"/>
        <pt x="417" y="551" on="0"/>
        <pt x="497" y="512" on="0"/>
        <pt x="551" y="447" on="0"/>
        <pt x="579" y="364" on="0"/>
        <pt x="579" y="320" on="1"/>
        <pt x="579" y="251" on="0"/>
        <pt x="511" y="122" on="0"/>
        <pt x="456" y="76" on="1"/>
        <pt x="506" y="0" on="1"/>
        <pt x="444" y="0" on="1"/>
      </contour>
      <contour>
        <pt x="260" y="53" on="1"/>
        <pt x="294" y="53" on="0"/>
        <pt x="357" y="73" on="0"/>
        <pt x="384" y="90" on="1"/>
        <pt x="328" y="175" on="1"/>
        <pt x="391" y="175" on="1"/>
        <pt x="426" y="122" on="1"/>
        <pt x="468" y="160" on="0"/>
        <pt x="515" y="263" on="0"/>
        <pt x="515" y="315" on="1"/>
        <pt x="515" y="351" on="0"/>
        <pt x="493" y="416" on="0"/>
        <pt x="452" y="465" on="0"/>
        <pt x="392" y="495" on="0"/>
        <pt x="353" y="495" on="1"/>
        <pt x="300" y="495" on="0"/>
        <pt x="206" y="448" on="0"/>
        <pt x="136" y="373" on="0"/>
        <pt x="96" y="279" on="0"/>
        <pt x="96" y="233" on="1"/>
        <pt x="96" y="197" on="0"/>
        <pt x="118" y="132" on="0"/>
        <pt x="160" y="82" on="0"/>
        <pt x="221" y="53" on="0"/>
      </contour>
    </TTGlyph>
    <TTGlyph name="R" xMin="24" yMin="0" xMax="619" yMax="710">
      <contour>
        <pt x="24" y="0" on="1"/>
        <pt x="175" y="710" on="1"/>
        <pt x="460" y="710" on="1"/>
        <pt x="497" y="710" on="0"/>
        <pt x="557" y="679" on="0"/>
        <pt x="597" y="627" on="0"/>
        <pt x="619" y="560" on="0"/>
        <pt x="619" y="525" on="1"/>
        <pt x="619" y="482" on="0"/>
        <pt x="587" y="399" on="0"/>
        <pt x="533" y="331" on="0"/>
        <pt x="460" y="282" on="0"/>
        <pt x="419" y="274" on="1"/>
        <pt x="526" y="0" on="1"/>
        <pt x="447" y="0" on="1"/>
        <pt x="345" y="262" on="1"/>
        <pt x="149" y="262" on="1"/>
        <pt x="93" y="0" on="1"/>
      </contour>
      <contour>
        <pt x="381" y="324" on="1"/>
        <pt x="415" y="324" on="0"/>
        <pt x="476" y="358" on="0"/>
        <pt x="521" y="413" on="0"/>
        <pt x="547" y="482" on="0"/>
        <pt x="547" y="517" on="1"/>
        <pt x="547" y="544" on="0"/>
        <pt x="532" y="591" on="0"/>
        <pt x="505" y="627" on="0"/>
        <pt x="466" y="648" on="0"/>
        <pt x="443" y="648" on="1"/>
        <pt x="231" y="648" on="1"/>
        <pt x="162" y="324" on="1"/>
      </contour>
    </TTGlyph>
    <TTGlyph name="R.sc" xMin="18" yMin="0" xMax="514" yMax="548">
      <contour>
        <pt x="135" y="548" on="1"/>
        <pt x="376" y="548" on="1"/>
        <pt x="409" y="548" on="0"/>
        <pt x="460" y="523" on="0"/>
        <pt x="495" y="482" on="0"/>
        <pt x="514" y="429" on="0"/>
        <pt x="514" y="401" on="1"/>
        <pt x="514" y="369" on="0"/>
        <pt x="489" y="306" on="0"/>
        <pt x="445" y="255" on="0"/>
        <pt x="386" y="218" on="0"/>
        <pt x="352" y="211" on="1"/>
        <pt x="446" y="0" on="1"/>
        <pt x="374" y="0" on="1"/>
        <pt x="285" y="199" on="1"/>
        <pt x="123" y="199" on="1"/>
        <pt x="81" y="0" on="1"/>
        <pt x="18" y="0" on="1"/>
      </contour>
      <contour>
        <pt x="315" y="255" on="1"/>
        <pt x="342" y="255" on="0"/>
        <pt x="391" y="279" on="0"/>
        <pt x="428" y="318" on="0"/>
        <pt x="450" y="368" on="0"/>
        <pt x="450" y="394" on="1"/>
        <pt x="450" y="434" on="0"/>
        <pt x="401" y="492" on="0"/>
        <pt x="361" y="492" on="1"/>
        <pt x="185" y="492" on="1"/>
        <pt x="135" y="255" on="1"/>
      </contour>
    </TTGlyph>
    <TTGlyph name="Racute" xMin="24" yMin="0" xMax="619" yMax="919">
      <contour>
        <pt x="404" y="809" on="1"/>
        <pt x="362" y="826" on="1"/>
        <pt x="438" y="919" on="1"/>
        <pt x="509" y="919" on="1"/>
      </contour>
      <contour>
        <pt x="24" y="0" on="1"/>
        <pt x="175" y="710" on="1"/>
        <pt x="460" y="710" on="1"/>
        <pt x="497" y="710" on="0"/>
        <pt x="557" y="679" on="0"/>
        <pt x="597" y="627" on="0"/>
        <pt x="619" y="560" on="0"/>
        <pt x="619" y="525" on="1"/>
        <pt x="619" y="482" on="0"/>
        <pt x="587" y="399" on="0"/>
        <pt x="533" y="331" on="0"/>
        <pt x="460" y="282" on="0"/>
        <pt x="419" y="274" on="1"/>
        <pt x="526" y="0" on="1"/>
        <pt x="447" y="0" on="1"/>
        <pt x="345" y="262" on="1"/>
        <pt x="149" y="262" on="1"/>
        <pt x="93" y="0" on="1"/>
      </contour>
      <contour>
        <pt x="381" y="324" on="1"/>
        <pt x="415" y="324" on="0"/>
        <pt x="476" y="358" on="0"/>
        <pt x="521" y="413" on="0"/>
        <pt x="547" y="482" on="0"/>
        <pt x="547" y="517" on="1"/>
        <pt x="547" y="544" on="0"/>
        <pt x="532" y="591" on="0"/>
        <pt x="505" y="627" on="0"/>
        <pt x="466" y="648" on="0"/>
        <pt x="443" y="648" on="1"/>
        <pt x="231" y="648" on="1"/>
        <pt x="162" y="324" on="1"/>
      </contour>
    </TTGlyph>
    <TTGlyph name="Rcaron" xMin="24" yMin="0" xMax="619" yMax="919">
      <contour>
        <pt x="318" y="899" on="1"/>
        <pt x="361" y="919" on="1"/>
        <pt x="428" y="856" on="1"/>
        <pt x="522" y="919" on="1"/>
        <pt x="556" y="899" on="1"/>
        <pt x="444" y="813" on="1"/>
        <pt x="394" y="813" on="1"/>
      </contour>
      <contour>
        <pt x="24" y="0" on="1"/>
        <pt x="175" y="710" on="1"/>
        <pt x="460" y="710" on="1"/>
        <pt x="497" y="710" on="0"/>
        <pt x="557" y="679" on="0"/>
        <pt x="597" y="627" on="0"/>
        <pt x="619" y="560" on="0"/>
        <pt x="619" y="525" on="1"/>
        <pt x="619" y="482" on="0"/>
        <pt x="587" y="399" on="0"/>
        <pt x="533" y="331" on="0"/>
        <pt x="460" y="282" on="0"/>
        <pt x="419" y="274" on="1"/>
        <pt x="526" y="0" on="1"/>
        <pt x="447" y="0" on="1"/>
        <pt x="345" y="262" on="1"/>
        <pt x="149" y="262" on="1"/>
        <pt x="93" y="0" on="1"/>
      </contour>
      <contour>
        <pt x="381" y="324" on="1"/>
        <pt x="415" y="324" on="0"/>
        <pt x="476" y="358" on="0"/>
        <pt x="521" y="413" on="0"/>
        <pt x="547" y="482" on="0"/>
        <pt x="547" y="517" on="1"/>
        <pt x="547" y="544" on="0"/>
        <pt x="532" y="591" on="0"/>
        <pt x="505" y="627" on="0"/>
        <pt x="466" y="648" on="0"/>
        <pt x="443" y="648" on="1"/>
        <pt x="231" y="648" on="1"/>
        <pt x="162" y="324" on="1"/>
      </contour>
    </TTGlyph>
    <TTGlyph name="Rcommaaccent" xMin="24" yMin="-199" xMax="619" yMax="710">
      <contour>
        <pt x="183" y="-199" on="1"/>
        <pt x="215" y="-125" on="1"/>
        <pt x="195" y="-125" on="1"/>
        <pt x="212" y="-49" on="1"/>
        <pt x="273" y="-49" on="1"/>
        <pt x="257" y="-125" on="1"/>
        <pt x="217" y="-199" on="1"/>
      </contour>
      <contour>
        <pt x="24" y="0" on="1"/>
        <pt x="175" y="710" on="1"/>
        <pt x="460" y="710" on="1"/>
        <pt x="497" y="710" on="0"/>
        <pt x="557" y="679" on="0"/>
        <pt x="597" y="627" on="0"/>
        <pt x="619" y="560" on="0"/>
        <pt x="619" y="525" on="1"/>
        <pt x="619" y="482" on="0"/>
        <pt x="587" y="399" on="0"/>
        <pt x="533" y="331" on="0"/>
        <pt x="460" y="282" on="0"/>
        <pt x="419" y="274" on="1"/>
        <pt x="526" y="0" on="1"/>
        <pt x="447" y="0" on="1"/>
        <pt x="345" y="262" on="1"/>
        <pt x="149" y="262" on="1"/>
        <pt x="93" y="0" on="1"/>
      </contour>
      <contour>
        <pt x="381" y="324" on="1"/>
        <pt x="415" y="324" on="0"/>
        <pt x="476" y="358" on="0"/>
        <pt x="521" y="413" on="0"/>
        <pt x="547" y="482" on="0"/>
        <pt x="547" y="517" on="1"/>
        <pt x="547" y="544" on="0"/>
        <pt x="532" y="591" on="0"/>
        <pt x="505" y="627" on="0"/>
        <pt x="466" y="648" on="0"/>
        <pt x="443" y="648" on="1"/>
        <pt x="231" y="648" on="1"/>
        <pt x="162" y="324" on="1"/>
      </contour>
    </TTGlyph>
    <TTGlyph name="Rdblgrave" xMin="24" yMin="0" xMax="619" yMax="918">
      <contour>
        <pt x="419" y="918" on="1"/>
        <pt x="480" y="918" on="1"/>
        <pt x="515" y="825" on="1"/>
        <pt x="474" y="808" on="1"/>
      </contour>
      <contour>
        <pt x="297" y="918" on="1"/>
        <pt x="360" y="918" on="1"/>
        <pt x="394" y="825" on="1"/>
        <pt x="353" y="808" on="1"/>
      </contour>
      <contour>
        <pt x="24" y="0" on="1"/>
        <pt x="175" y="710" on="1"/>
        <pt x="460" y="710" on="1"/>
        <pt x="497" y="710" on="0"/>
        <pt x="557" y="679" on="0"/>
        <pt x="597" y="627" on="0"/>
        <pt x="619" y="560" on="0"/>
        <pt x="619" y="525" on="1"/>
        <pt x="619" y="482" on="0"/>
        <pt x="587" y="399" on="0"/>
        <pt x="533" y="331" on="0"/>
        <pt x="460" y="282" on="0"/>
        <pt x="419" y="274" on="1"/>
        <pt x="526" y="0" on="1"/>
        <pt x="447" y="0" on="1"/>
        <pt x="345" y="262" on="1"/>
        <pt x="149" y="262" on="1"/>
        <pt x="93" y="0" on="1"/>
      </contour>
      <contour>
        <pt x="381" y="324" on="1"/>
        <pt x="415" y="324" on="0"/>
        <pt x="476" y="358" on="0"/>
        <pt x="521" y="413" on="0"/>
        <pt x="547" y="482" on="0"/>
        <pt x="547" y="517" on="1"/>
        <pt x="547" y="544" on="0"/>
        <pt x="532" y="591" on="0"/>
        <pt x="505" y="627" on="0"/>
        <pt x="466" y="648" on="0"/>
        <pt x="443" y="648" on="1"/>
        <pt x="231" y="648" on="1"/>
        <pt x="162" y="324" on="1"/>
      </contour>
    </TTGlyph>
    <TTGlyph name="Rdotbelow" xMin="24" yMin="-166" xMax="619" yMax="710">
      <contour>
        <pt x="24" y="0" on="1"/>
        <pt x="175" y="710" on="1"/>
        <pt x="460" y="710" on="1"/>
        <pt x="497" y="710" on="0"/>
        <pt x="557" y="679" on="0"/>
        <pt x="597" y="627" on="0"/>
        <pt x="619" y="560" on="0"/>
        <pt x="619" y="525" on="1"/>
        <pt x="619" y="482" on="0"/>
        <pt x="587" y="399" on="0"/>
        <pt x="533" y="331" on="0"/>
        <pt x="460" y="282" on="0"/>
        <pt x="419" y="274" on="1"/>
        <pt x="526" y="0" on="1"/>
        <pt x="447" y="0" on="1"/>
        <pt x="345" y="262" on="1"/>
        <pt x="149" y="262" on="1"/>
        <pt x="93" y="0" on="1"/>
      </contour>
      <contour>
        <pt x="381" y="324" on="1"/>
        <pt x="415" y="324" on="0"/>
        <pt x="476" y="358" on="0"/>
        <pt x="521" y="413" on="0"/>
        <pt x="547" y="482" on="0"/>
        <pt x="547" y="517" on="1"/>
        <pt x="547" y="544" on="0"/>
        <pt x="532" y="591" on="0"/>
        <pt x="505" y="627" on="0"/>
        <pt x="466" y="648" on="0"/>
        <pt x="443" y="648" on="1"/>
        <pt x="231" y="648" on="1"/>
        <pt x="162" y="324" on="1"/>
      </contour>
      <contour>
        <pt x="187" y="-166" on="1"/>
        <pt x="207" y="-68" on="1"/>
        <pt x="269" y="-68" on="1"/>
        <pt x="249" y="-166" on="1"/>
      </contour>
    </TTGlyph>
    <TTGlyph name="Rinvertedbreve" xMin="24" yMin="0" xMax="619" yMax="917">
      <contour>
        <pt x="325" y="816" on="1"/>
        <pt x="329" y="837" on="0"/>
        <pt x="351" y="874" on="0"/>
        <pt x="382" y="901" on="0"/>
        <pt x="420" y="917" on="0"/>
        <pt x="440" y="917" on="1"/>
        <pt x="475" y="917" on="0"/>
        <pt x="516" y="870" on="0"/>
        <pt x="516" y="837" on="1"/>
        <pt x="516" y="832" on="0"/>
        <pt x="516" y="821" on="0"/>
        <pt x="514" y="816" on="1"/>
        <pt x="474" y="816" on="1"/>
        <pt x="475" y="822" on="0"/>
        <pt x="476" y="832" on="0"/>
        <pt x="476" y="837" on="1"/>
        <pt x="476" y="882" on="0"/>
        <pt x="435" y="882" on="1"/>
        <pt x="405" y="882" on="0"/>
        <pt x="372" y="843" on="0"/>
        <pt x="365" y="816" on="1"/>
      </contour>
      <contour>
        <pt x="24" y="0" on="1"/>
        <pt x="175" y="710" on="1"/>
        <pt x="460" y="710" on="1"/>
        <pt x="497" y="710" on="0"/>
        <pt x="557" y="679" on="0"/>
        <pt x="597" y="627" on="0"/>
        <pt x="619" y="560" on="0"/>
        <pt x="619" y="525" on="1"/>
        <pt x="619" y="482" on="0"/>
        <pt x="587" y="399" on="0"/>
        <pt x="533" y="331" on="0"/>
        <pt x="460" y="282" on="0"/>
        <pt x="419" y="274" on="1"/>
        <pt x="526" y="0" on="1"/>
        <pt x="447" y="0" on="1"/>
        <pt x="345" y="262" on="1"/>
        <pt x="149" y="262" on="1"/>
        <pt x="93" y="0" on="1"/>
      </contour>
      <contour>
        <pt x="381" y="324" on="1"/>
        <pt x="415" y="324" on="0"/>
        <pt x="476" y="358" on="0"/>
        <pt x="521" y="413" on="0"/>
        <pt x="547" y="482" on="0"/>
        <pt x="547" y="517" on="1"/>
        <pt x="547" y="544" on="0"/>
        <pt x="532" y="591" on="0"/>
        <pt x="505" y="627" on="0"/>
        <pt x="466" y="648" on="0"/>
        <pt x="443" y="648" on="1"/>
        <pt x="231" y="648" on="1"/>
        <pt x="162" y="324" on="1"/>
      </contour>
    </TTGlyph>
    <TTGlyph name="S" xMin="-9" yMin="-6" xMax="587" yMax="715">
      <contour>
        <pt x="241" y="-6" on="1"/>
        <pt x="82" y="-6" on="0"/>
        <pt x="-9" y="97" on="1"/>
        <pt x="38" y="154" on="1"/>
        <pt x="65" y="113" on="0"/>
        <pt x="178" y="56" on="0"/>
        <pt x="256" y="56" on="1"/>
        <pt x="347" y="56" on="0"/>
        <pt x="453" y="131" on="0"/>
        <pt x="453" y="202" on="1"/>
        <pt x="453" y="228" on="0"/>
        <pt x="430" y="265" on="0"/>
        <pt x="385" y="294" on="0"/>
        <pt x="321" y="315" on="0"/>
        <pt x="279" y="326" on="1"/>
        <pt x="236" y="337" on="0"/>
        <pt x="169" y="362" on="0"/>
        <pt x="123" y="396" on="0"/>
        <pt x="99" y="443" on="0"/>
        <pt x="99" y="475" on="1"/>
        <pt x="99" y="531" on="0"/>
        <pt x="144" y="620" on="0"/>
        <pt x="222" y="682" on="0"/>
        <pt x="327" y="715" on="0"/>
        <pt x="388" y="715" on="1"/>
        <pt x="455" y="715" on="0"/>
        <pt x="554" y="672" on="0"/>
        <pt x="587" y="633" on="1"/>
        <pt x="542" y="577" on="1"/>
        <pt x="522" y="611" on="0"/>
        <pt x="434" y="653" on="0"/>
        <pt x="374" y="653" on="1"/>
        <pt x="322" y="653" on="0"/>
        <pt x="247" y="629" on="0"/>
        <pt x="198" y="587" on="0"/>
        <pt x="175" y="530" on="0"/>
        <pt x="175" y="497" on="1"/>
        <pt x="175" y="473" on="0"/>
        <pt x="195" y="439" on="0"/>
        <pt x="235" y="414" on="0"/>
        <pt x="295" y="395" on="0"/>
        <pt x="335" y="385" on="1"/>
        <pt x="379" y="374" on="0"/>
        <pt x="451" y="349" on="0"/>
        <pt x="502" y="312" on="0"/>
        <pt x="530" y="260" on="0"/>
        <pt x="530" y="223" on="1"/>
        <pt x="530" y="166" on="0"/>
        <pt x="485" y="80" on="0"/>
        <pt x="407" y="23" on="0"/>
        <pt x="302" y="-6" on="0"/>
      </contour>
    </TTGlyph>
    <TTGlyph name="S.sc" xMin="-11" yMin="-5" xMax="481" yMax="551">
      <contour>
        <pt x="200" y="-5" on="1"/>
        <pt x="69" y="-5" on="0"/>
        <pt x="-11" y="73" on="1"/>
        <pt x="31" y="125" on="1"/>
        <pt x="55" y="93" on="0"/>
        <pt x="148" y="50" on="0"/>
        <pt x="214" y="50" on="1"/>
        <pt x="285" y="50" on="0"/>
        <pt x="370" y="104" on="0"/>
        <pt x="370" y="155" on="1"/>
        <pt x="370" y="194" on="0"/>
        <pt x="295" y="232" on="0"/>
        <pt x="224" y="248" on="1"/>
        <pt x="188" y="256" on="0"/>
        <pt x="133" y="276" on="0"/>
        <pt x="95" y="304" on="0"/>
        <pt x="76" y="341" on="0"/>
        <pt x="76" y="367" on="1"/>
        <pt x="76" y="411" on="0"/>
        <pt x="113" y="479" on="0"/>
        <pt x="177" y="526" on="0"/>
        <pt x="263" y="551" on="0"/>
        <pt x="313" y="551" on="1"/>
        <pt x="423" y="551" on="0"/>
        <pt x="481" y="488" on="1"/>
        <pt x="442" y="438" on="1"/>
        <pt x="423" y="464" on="0"/>
        <pt x="352" y="496" on="0"/>
        <pt x="301" y="496" on="1"/>
        <pt x="217" y="496" on="0"/>
        <pt x="142" y="433" on="0"/>
        <pt x="142" y="385" on="1"/>
        <pt x="142" y="350" on="0"/>
        <pt x="209" y="316" on="0"/>
        <pt x="276" y="300" on="1"/>
        <pt x="313" y="291" on="0"/>
        <pt x="373" y="271" on="0"/>
        <pt x="416" y="242" on="0"/>
        <pt x="439" y="202" on="0"/>
        <pt x="439" y="173" on="1"/>
        <pt x="439" y="128" on="0"/>
        <pt x="402" y="61" on="0"/>
        <pt x="337" y="17" on="0"/>
        <pt x="250" y="-5" on="0"/>
      </contour>
    </TTGlyph>
    <TTGlyph name="Sacute" xMin="-9" yMin="-6" xMax="587" yMax="933">
      <contour>
        <pt x="407" y="823" on="1"/>
        <pt x="365" y="840" on="1"/>
        <pt x="441" y="933" on="1"/>
        <pt x="512" y="933" on="1"/>
      </contour>
      <contour>
        <pt x="241" y="-6" on="1"/>
        <pt x="82" y="-6" on="0"/>
        <pt x="-9" y="97" on="1"/>
        <pt x="38" y="154" on="1"/>
        <pt x="65" y="113" on="0"/>
        <pt x="178" y="56" on="0"/>
        <pt x="256" y="56" on="1"/>
        <pt x="347" y="56" on="0"/>
        <pt x="453" y="131" on="0"/>
        <pt x="453" y="202" on="1"/>
        <pt x="453" y="228" on="0"/>
        <pt x="430" y="265" on="0"/>
        <pt x="385" y="294" on="0"/>
        <pt x="321" y="315" on="0"/>
        <pt x="279" y="326" on="1"/>
        <pt x="236" y="337" on="0"/>
        <pt x="169" y="362" on="0"/>
        <pt x="123" y="396" on="0"/>
        <pt x="99" y="443" on="0"/>
        <pt x="99" y="475" on="1"/>
        <pt x="99" y="531" on="0"/>
        <pt x="144" y="620" on="0"/>
        <pt x="222" y="682" on="0"/>
        <pt x="327" y="715" on="0"/>
        <pt x="388" y="715" on="1"/>
        <pt x="455" y="715" on="0"/>
        <pt x="554" y="672" on="0"/>
        <pt x="587" y="633" on="1"/>
        <pt x="542" y="577" on="1"/>
        <pt x="522" y="611" on="0"/>
        <pt x="434" y="653" on="0"/>
        <pt x="374" y="653" on="1"/>
        <pt x="322" y="653" on="0"/>
        <pt x="247" y="629" on="0"/>
        <pt x="198" y="587" on="0"/>
        <pt x="175" y="530" on="0"/>
        <pt x="175" y="497" on="1"/>
        <pt x="175" y="473" on="0"/>
        <pt x="195" y="439" on="0"/>
        <pt x="235" y="414" on="0"/>
        <pt x="295" y="395" on="0"/>
        <pt x="335" y="385" on="1"/>
        <pt x="379" y="374" on="0"/>
        <pt x="451" y="349" on="0"/>
        <pt x="502" y="312" on="0"/>
        <pt x="530" y="260" on="0"/>
        <pt x="530" y="223" on="1"/>
        <pt x="530" y="166" on="0"/>
        <pt x="485" y="80" on="0"/>
        <pt x="407" y="23" on="0"/>
        <pt x="302" y="-6" on="0"/>
      </contour>
    </TTGlyph>
    <TTGlyph name="Scaron" xMin="-9" yMin="-6" xMax="587" yMax="933">
      <contour>
        <pt x="305" y="913" on="1"/>
        <pt x="348" y="933" on="1"/>
        <pt x="415" y="870" on="1"/>
        <pt x="509" y="933" on="1"/>
        <pt x="543" y="913" on="1"/>
        <pt x="431" y="827" on="1"/>
        <pt x="381" y="827" on="1"/>
      </contour>
      <contour>
        <pt x="241" y="-6" on="1"/>
        <pt x="82" y="-6" on="0"/>
        <pt x="-9" y="97" on="1"/>
        <pt x="38" y="154" on="1"/>
        <pt x="65" y="113" on="0"/>
        <pt x="178" y="56" on="0"/>
        <pt x="256" y="56" on="1"/>
        <pt x="347" y="56" on="0"/>
        <pt x="453" y="131" on="0"/>
        <pt x="453" y="202" on="1"/>
        <pt x="453" y="228" on="0"/>
        <pt x="430" y="265" on="0"/>
        <pt x="385" y="294" on="0"/>
        <pt x="321" y="315" on="0"/>
        <pt x="279" y="326" on="1"/>
        <pt x="236" y="337" on="0"/>
        <pt x="169" y="362" on="0"/>
        <pt x="123" y="396" on="0"/>
        <pt x="99" y="443" on="0"/>
        <pt x="99" y="475" on="1"/>
        <pt x="99" y="531" on="0"/>
        <pt x="144" y="620" on="0"/>
        <pt x="222" y="682" on="0"/>
        <pt x="327" y="715" on="0"/>
        <pt x="388" y="715" on="1"/>
        <pt x="455" y="715" on="0"/>
        <pt x="554" y="672" on="0"/>
        <pt x="587" y="633" on="1"/>
        <pt x="542" y="577" on="1"/>
        <pt x="522" y="611" on="0"/>
        <pt x="434" y="653" on="0"/>
        <pt x="374" y="653" on="1"/>
        <pt x="322" y="653" on="0"/>
        <pt x="247" y="629" on="0"/>
        <pt x="198" y="587" on="0"/>
        <pt x="175" y="530" on="0"/>
        <pt x="175" y="497" on="1"/>
        <pt x="175" y="473" on="0"/>
        <pt x="195" y="439" on="0"/>
        <pt x="235" y="414" on="0"/>
        <pt x="295" y="395" on="0"/>
        <pt x="335" y="385" on="1"/>
        <pt x="379" y="374" on="0"/>
        <pt x="451" y="349" on="0"/>
        <pt x="502" y="312" on="0"/>
        <pt x="530" y="260" on="0"/>
        <pt x="530" y="223" on="1"/>
        <pt x="530" y="166" on="0"/>
        <pt x="485" y="80" on="0"/>
        <pt x="407" y="23" on="0"/>
        <pt x="302" y="-6" on="0"/>
      </contour>
    </TTGlyph>
    <TTGlyph name="Schwa" xMin="28" yMin="-6" xMax="682" yMax="715">
      <contour>
        <pt x="282" y="-6" on="1"/>
        <pt x="225" y="-6" on="0"/>
        <pt x="131" y="37" on="0"/>
        <pt x="65" y="113" on="0"/>
        <pt x="28" y="216" on="0"/>
        <pt x="28" y="276" on="1"/>
        <pt x="28" y="314" on="0"/>
        <pt x="42" y="368" on="0"/>
        <pt x="47" y="383" on="1"/>
        <pt x="603" y="383" on="1"/>
        <pt x="604" y="394" on="0"/>
        <pt x="606" y="416" on="0"/>
        <pt x="606" y="428" on="1"/>
        <pt x="606" y="476" on="0"/>
        <pt x="578" y="558" on="0"/>
        <pt x="528" y="617" on="0"/>
        <pt x="458" y="650" on="0"/>
        <pt x="416" y="650" on="1"/>
        <pt x="382" y="650" on="0"/>
        <pt x="314" y="630" on="0"/>
        <pt x="252" y="593" on="0"/>
        <pt x="200" y="542" on="0"/>
        <pt x="184" y="511" on="1"/>
        <pt x="124" y="541" on="1"/>
        <pt x="149" y="579" on="0"/>
        <pt x="220" y="643" on="0"/>
        <pt x="302" y="689" on="0"/>
        <pt x="391" y="715" on="0"/>
        <pt x="435" y="715" on="1"/>
        <pt x="491" y="715" on="0"/>
        <pt x="582" y="670" on="0"/>
        <pt x="647" y="591" on="0"/>
        <pt x="682" y="485" on="0"/>
        <pt x="682" y="424" on="1"/>
        <pt x="682" y="337" on="0"/>
        <pt x="614" y="180" on="0"/>
        <pt x="502" y="63" on="0"/>
        <pt x="358" y="-6" on="0"/>
      </contour>
      <contour>
        <pt x="295" y="57" on="1"/>
        <pt x="344" y="57" on="0"/>
        <pt x="439" y="97" on="0"/>
        <pt x="518" y="168" on="0"/>
        <pt x="577" y="265" on="0"/>
        <pt x="591" y="322" on="1"/>
        <pt x="103" y="322" on="1"/>
        <pt x="97" y="293" on="0"/>
        <pt x="97" y="264" on="1"/>
        <pt x="97" y="222" on="0"/>
        <pt x="122" y="147" on="0"/>
        <pt x="172" y="90" on="0"/>
        <pt x="246" y="57" on="0"/>
      </contour>
    </TTGlyph>
    <TTGlyph name="Scircumflex" xMin="-9" yMin="-6" xMax="587" yMax="933">
      <contour>
        <pt x="298" y="848" on="1"/>
        <pt x="411" y="933" on="1"/>
        <pt x="461" y="933" on="1"/>
        <pt x="536" y="848" on="1"/>
        <pt x="494" y="827" on="1"/>
        <pt x="426" y="890" on="1"/>
        <pt x="332" y="827" on="1"/>
      </contour>
      <contour>
        <pt x="241" y="-6" on="1"/>
        <pt x="82" y="-6" on="0"/>
        <pt x="-9" y="97" on="1"/>
        <pt x="38" y="154" on="1"/>
        <pt x="65" y="113" on="0"/>
        <pt x="178" y="56" on="0"/>
        <pt x="256" y="56" on="1"/>
        <pt x="347" y="56" on="0"/>
        <pt x="453" y="131" on="0"/>
        <pt x="453" y="202" on="1"/>
        <pt x="453" y="228" on="0"/>
        <pt x="430" y="265" on="0"/>
        <pt x="385" y="294" on="0"/>
        <pt x="321" y="315" on="0"/>
        <pt x="279" y="326" on="1"/>
        <pt x="236" y="337" on="0"/>
        <pt x="169" y="362" on="0"/>
        <pt x="123" y="396" on="0"/>
        <pt x="99" y="443" on="0"/>
        <pt x="99" y="475" on="1"/>
        <pt x="99" y="531" on="0"/>
        <pt x="144" y="620" on="0"/>
        <pt x="222" y="682" on="0"/>
        <pt x="327" y="715" on="0"/>
        <pt x="388" y="715" on="1"/>
        <pt x="455" y="715" on="0"/>
        <pt x="554" y="672" on="0"/>
        <pt x="587" y="633" on="1"/>
        <pt x="542" y="577" on="1"/>
        <pt x="522" y="611" on="0"/>
        <pt x="434" y="653" on="0"/>
        <pt x="374" y="653" on="1"/>
        <pt x="322" y="653" on="0"/>
        <pt x="247" y="629" on="0"/>
        <pt x="198" y="587" on="0"/>
        <pt x="175" y="530" on="0"/>
        <pt x="175" y="497" on="1"/>
        <pt x="175" y="473" on="0"/>
        <pt x="195" y="439" on="0"/>
        <pt x="235" y="414" on="0"/>
        <pt x="295" y="395" on="0"/>
        <pt x="335" y="385" on="1"/>
        <pt x="379" y="374" on="0"/>
        <pt x="451" y="349" on="0"/>
        <pt x="502" y="312" on="0"/>
        <pt x="530" y="260" on="0"/>
        <pt x="530" y="223" on="1"/>
        <pt x="530" y="166" on="0"/>
        <pt x="485" y="80" on="0"/>
        <pt x="407" y="23" on="0"/>
        <pt x="302" y="-6" on="0"/>
      </contour>
    </TTGlyph>
    <TTGlyph name="Sdotbelow" xMin="-9" yMin="-166" xMax="587" yMax="715">
      <contour>
        <pt x="241" y="-6" on="1"/>
        <pt x="82" y="-6" on="0"/>
        <pt x="-9" y="97" on="1"/>
        <pt x="38" y="154" on="1"/>
        <pt x="65" y="113" on="0"/>
        <pt x="178" y="56" on="0"/>
        <pt x="256" y="56" on="1"/>
        <pt x="347" y="56" on="0"/>
        <pt x="453" y="131" on="0"/>
        <pt x="453" y="202" on="1"/>
        <pt x="453" y="228" on="0"/>
        <pt x="430" y="265" on="0"/>
        <pt x="385" y="294" on="0"/>
        <pt x="321" y="315" on="0"/>
        <pt x="279" y="326" on="1"/>
        <pt x="236" y="337" on="0"/>
        <pt x="169" y="362" on="0"/>
        <pt x="123" y="396" on="0"/>
        <pt x="99" y="443" on="0"/>
        <pt x="99" y="475" on="1"/>
        <pt x="99" y="531" on="0"/>
        <pt x="144" y="620" on="0"/>
        <pt x="222" y="682" on="0"/>
        <pt x="327" y="715" on="0"/>
        <pt x="388" y="715" on="1"/>
        <pt x="455" y="715" on="0"/>
        <pt x="554" y="672" on="0"/>
        <pt x="587" y="633" on="1"/>
        <pt x="542" y="577" on="1"/>
        <pt x="522" y="611" on="0"/>
        <pt x="434" y="653" on="0"/>
        <pt x="374" y="653" on="1"/>
        <pt x="322" y="653" on="0"/>
        <pt x="247" y="629" on="0"/>
        <pt x="198" y="587" on="0"/>
        <pt x="175" y="530" on="0"/>
        <pt x="175" y="497" on="1"/>
        <pt x="175" y="473" on="0"/>
        <pt x="195" y="439" on="0"/>
        <pt x="235" y="414" on="0"/>
        <pt x="295" y="395" on="0"/>
        <pt x="335" y="385" on="1"/>
        <pt x="379" y="374" on="0"/>
        <pt x="451" y="349" on="0"/>
        <pt x="502" y="312" on="0"/>
        <pt x="530" y="260" on="0"/>
        <pt x="530" y="223" on="1"/>
        <pt x="530" y="166" on="0"/>
        <pt x="485" y="80" on="0"/>
        <pt x="407" y="23" on="0"/>
        <pt x="302" y="-6" on="0"/>
      </contour>
      <contour>
        <pt x="173" y="-166" on="1"/>
        <pt x="193" y="-68" on="1"/>
        <pt x="255" y="-68" on="1"/>
        <pt x="235" y="-166" on="1"/>
      </contour>
    </TTGlyph>
    <TTGlyph name="T" xMin="90" yMin="0" xMax="650" yMax="710">
      <contour>
        <pt x="328" y="648" on="1"/>
        <pt x="90" y="648" on="1"/>
        <pt x="103" y="710" on="1"/>
        <pt x="650" y="710" on="1"/>
        <pt x="637" y="648" on="1"/>
        <pt x="398" y="648" on="1"/>
        <pt x="260" y="0" on="1"/>
        <pt x="191" y="0" on="1"/>
      </contour>
    </TTGlyph>
    <TTGlyph name="T.sc" xMin="63" yMin="0" xMax="537" yMax="548">
      <contour>
        <pt x="264" y="492" on="1"/>
        <pt x="63" y="492" on="1"/>
        <pt x="75" y="548" on="1"/>
        <pt x="537" y="548" on="1"/>
        <pt x="525" y="492" on="1"/>
        <pt x="326" y="492" on="1"/>
        <pt x="222" y="0" on="1"/>
        <pt x="159" y="0" on="1"/>
      </contour>
    </TTGlyph>
    <TTGlyph name="Tbar" xMin="78" yMin="0" xMax="667" yMax="710">
      <contour>
        <pt x="86" y="405" on="1"/>
        <pt x="294" y="405" on="1"/>
        <pt x="346" y="648" on="1"/>
        <pt x="107" y="648" on="1"/>
        <pt x="120" y="710" on="1"/>
        <pt x="667" y="710" on="1"/>
        <pt x="654" y="648" on="1"/>
        <pt x="415" y="648" on="1"/>
        <pt x="363" y="405" on="1"/>
        <pt x="571" y="405" on="1"/>
        <pt x="563" y="366" on="1"/>
        <pt x="354" y="366" on="1"/>
        <pt x="277" y="0" on="1"/>
        <pt x="208" y="0" on="1"/>
        <pt x="286" y="366" on="1"/>
        <pt x="78" y="366" on="1"/>
      </contour>
    </TTGlyph>
    <TTGlyph name="Tcaron" xMin="90" yMin="0" xMax="650" yMax="917">
      <contour>
        <pt x="291" y="897" on="1"/>
        <pt x="334" y="917" on="1"/>
        <pt x="401" y="854" on="1"/>
        <pt x="495" y="917" on="1"/>
        <pt x="529" y="897" on="1"/>
        <pt x="417" y="811" on="1"/>
        <pt x="367" y="811" on="1"/>
      </contour>
      <contour>
        <pt x="328" y="648" on="1"/>
        <pt x="90" y="648" on="1"/>
        <pt x="103" y="710" on="1"/>
        <pt x="650" y="710" on="1"/>
        <pt x="637" y="648" on="1"/>
        <pt x="398" y="648" on="1"/>
        <pt x="260" y="0" on="1"/>
        <pt x="191" y="0" on="1"/>
      </contour>
    </TTGlyph>
    <TTGlyph name="Tdotbelow" xMin="90" yMin="-166" xMax="650" yMax="710">
      <contour>
        <pt x="159" y="-166" on="1"/>
        <pt x="179" y="-68" on="1"/>
        <pt x="241" y="-68" on="1"/>
        <pt x="221" y="-166" on="1"/>
      </contour>
      <contour>
        <pt x="328" y="648" on="1"/>
        <pt x="90" y="648" on="1"/>
        <pt x="103" y="710" on="1"/>
        <pt x="650" y="710" on="1"/>
        <pt x="637" y="648" on="1"/>
        <pt x="398" y="648" on="1"/>
        <pt x="260" y="0" on="1"/>
        <pt x="191" y="0" on="1"/>
      </contour>
    </TTGlyph>
    <TTGlyph name="Thorn" xMin="24" yMin="0" xMax="565" yMax="710">
      <contour>
        <pt x="175" y="710" on="1"/>
        <pt x="244" y="710" on="1"/>
        <pt x="214" y="569" on="1"/>
        <pt x="407" y="569" on="1"/>
        <pt x="444" y="569" on="0"/>
        <pt x="503" y="538" on="0"/>
        <pt x="544" y="486" on="0"/>
        <pt x="565" y="420" on="0"/>
        <pt x="565" y="384" on="1"/>
        <pt x="565" y="336" on="0"/>
        <pt x="525" y="242" on="0"/>
        <pt x="458" y="167" on="0"/>
        <pt x="368" y="121" on="0"/>
        <pt x="317" y="121" on="1"/>
        <pt x="119" y="121" on="1"/>
        <pt x="93" y="0" on="1"/>
        <pt x="24" y="0" on="1"/>
      </contour>
      <contour>
        <pt x="328" y="184" on="1"/>
        <pt x="362" y="184" on="0"/>
        <pt x="423" y="218" on="0"/>
        <pt x="469" y="274" on="0"/>
        <pt x="495" y="342" on="0"/>
        <pt x="495" y="377" on="1"/>
        <pt x="495" y="404" on="0"/>
        <pt x="480" y="451" on="0"/>
        <pt x="452" y="486" on="0"/>
        <pt x="414" y="507" on="0"/>
        <pt x="390" y="507" on="1"/>
        <pt x="201" y="507" on="1"/>
        <pt x="132" y="184" on="1"/>
      </contour>
    </TTGlyph>
    <TTGlyph name="U" xMin="75" yMin="-5" xMax="733" yMax="710">
      <contour>
        <pt x="298" y="-5" on="1"/>
        <pt x="236" y="-5" on="0"/>
        <pt x="150" y="32" on="0"/>
        <pt x="98" y="96" on="0"/>
        <pt x="75" y="181" on="0"/>
        <pt x="75" y="230" on="1"/>
        <pt x="75" y="287" on="0"/>
        <pt x="89" y="352" on="1"/>
        <pt x="165" y="710" on="1"/>
        <pt x="234" y="710" on="1"/>
        <pt x="158" y="352" on="1"/>
        <pt x="152" y="323" on="0"/>
        <pt x="145" y="268" on="0"/>
        <pt x="145" y="242" on="1"/>
        <pt x="145" y="203" on="0"/>
        <pt x="162" y="136" on="0"/>
        <pt x="201" y="87" on="0"/>
        <pt x="264" y="58" on="0"/>
        <pt x="310" y="58" on="1"/>
        <pt x="373" y="58" on="0"/>
        <pt x="468" y="109" on="0"/>
        <pt x="535" y="192" on="0"/>
        <pt x="577" y="298" on="0"/>
        <pt x="588" y="352" on="1"/>
        <pt x="664" y="710" on="1"/>
        <pt x="733" y="710" on="1"/>
        <pt x="658" y="352" on="1"/>
        <pt x="643" y="280" on="0"/>
        <pt x="585" y="150" on="0"/>
        <pt x="496" y="53" on="0"/>
        <pt x="376" y="-5" on="0"/>
      </contour>
    </TTGlyph>
    <TTGlyph name="U.sc" xMin="57" yMin="-4" xMax="604" yMax="548">
      <contour>
        <pt x="248" y="-4" on="1"/>
        <pt x="195" y="-4" on="0"/>
        <pt x="122" y="25" on="0"/>
        <pt x="77" y="76" on="0"/>
        <pt x="57" y="145" on="0"/>
        <pt x="57" y="184" on="1"/>
        <pt x="57" y="205" on="0"/>
        <pt x="62" y="249" on="0"/>
        <pt x="67" y="271" on="1"/>
        <pt x="126" y="548" on="1"/>
        <pt x="188" y="548" on="1"/>
        <pt x="130" y="271" on="1"/>
        <pt x="126" y="251" on="0"/>
        <pt x="121" y="214" on="0"/>
        <pt x="121" y="196" on="1"/>
        <pt x="121" y="166" on="0"/>
        <pt x="135" y="114" on="0"/>
        <pt x="168" y="75" on="0"/>
        <pt x="220" y="53" on="0"/>
        <pt x="259" y="53" on="1"/>
        <pt x="311" y="53" on="0"/>
        <pt x="387" y="91" on="0"/>
        <pt x="441" y="152" on="0"/>
        <pt x="474" y="230" on="0"/>
        <pt x="483" y="271" on="1"/>
        <pt x="542" y="548" on="1"/>
        <pt x="604" y="548" on="1"/>
        <pt x="545" y="271" on="1"/>
        <pt x="533" y="215" on="0"/>
        <pt x="487" y="116" on="0"/>
        <pt x="414" y="40" on="0"/>
        <pt x="313" y="-4" on="0"/>
      </contour>
    </TTGlyph>
    <TTGlyph name="Uacute" xMin="75" yMin="-5" xMax="733" yMax="917">
      <contour>
        <pt x="458" y="807" on="1"/>
        <pt x="416" y="824" on="1"/>
        <pt x="492" y="917" on="1"/>
        <pt x="563" y="917" on="1"/>
      </contour>
      <contour>
        <pt x="298" y="-5" on="1"/>
        <pt x="236" y="-5" on="0"/>
        <pt x="150" y="32" on="0"/>
        <pt x="98" y="96" on="0"/>
        <pt x="75" y="181" on="0"/>
        <pt x="75" y="230" on="1"/>
        <pt x="75" y="287" on="0"/>
        <pt x="89" y="352" on="1"/>
        <pt x="165" y="710" on="1"/>
        <pt x="234" y="710" on="1"/>
        <pt x="158" y="352" on="1"/>
        <pt x="152" y="323" on="0"/>
        <pt x="145" y="268" on="0"/>
        <pt x="145" y="242" on="1"/>
        <pt x="145" y="203" on="0"/>
        <pt x="162" y="136" on="0"/>
        <pt x="201" y="87" on="0"/>
        <pt x="264" y="58" on="0"/>
        <pt x="310" y="58" on="1"/>
        <pt x="373" y="58" on="0"/>
        <pt x="468" y="109" on="0"/>
        <pt x="535" y="192" on="0"/>
        <pt x="577" y="298" on="0"/>
        <pt x="588" y="352" on="1"/>
        <pt x="664" y="710" on="1"/>
        <pt x="733" y="710" on="1"/>
        <pt x="658" y="352" on="1"/>
        <pt x="643" y="280" on="0"/>
        <pt x="585" y="150" on="0"/>
        <pt x="496" y="53" on="0"/>
        <pt x="376" y="-5" on="0"/>
      </contour>
    </TTGlyph>
    <TTGlyph name="Ubreve" xMin="75" yMin="-5" xMax="733" yMax="917">
      <contour>
        <pt x="298" y="-5" on="1"/>
        <pt x="236" y="-5" on="0"/>
        <pt x="150" y="32" on="0"/>
        <pt x="98" y="96" on="0"/>
        <pt x="75" y="181" on="0"/>
        <pt x="75" y="230" on="1"/>
        <pt x="75" y="287" on="0"/>
        <pt x="89" y="352" on="1"/>
        <pt x="165" y="710" on="1"/>
        <pt x="234" y="710" on="1"/>
        <pt x="158" y="352" on="1"/>
        <pt x="152" y="323" on="0"/>
        <pt x="145" y="268" on="0"/>
        <pt x="145" y="242" on="1"/>
        <pt x="145" y="203" on="0"/>
        <pt x="162" y="136" on="0"/>
        <pt x="201" y="87" on="0"/>
        <pt x="264" y="58" on="0"/>
        <pt x="310" y="58" on="1"/>
        <pt x="373" y="58" on="0"/>
        <pt x="468" y="109" on="0"/>
        <pt x="535" y="192" on="0"/>
        <pt x="577" y="298" on="0"/>
        <pt x="588" y="352" on="1"/>
        <pt x="664" y="710" on="1"/>
        <pt x="733" y="710" on="1"/>
        <pt x="658" y="352" on="1"/>
        <pt x="643" y="280" on="0"/>
        <pt x="585" y="150" on="0"/>
        <pt x="496" y="53" on="0"/>
        <pt x="376" y="-5" on="0"/>
      </contour>
      <contour>
        <pt x="467" y="851" on="1"/>
        <pt x="487" y="851" on="0"/>
        <pt x="527" y="889" on="0"/>
        <pt x="536" y="917" on="1"/>
        <pt x="576" y="917" on="1"/>
        <pt x="571" y="896" on="0"/>
        <pt x="549" y="859" on="0"/>
        <pt x="518" y="832" on="0"/>
        <pt x="480" y="816" on="0"/>
        <pt x="460" y="816" on="1"/>
        <pt x="425" y="816" on="0"/>
        <pt x="383" y="860" on="0"/>
        <pt x="383" y="894" on="1"/>
        <pt x="383" y="905" on="0"/>
        <pt x="386" y="917" on="1"/>
        <pt x="428" y="917" on="1"/>
        <pt x="426" y="907" on="0"/>
        <pt x="426" y="902" on="1"/>
        <pt x="426" y="881" on="0"/>
        <pt x="449" y="851" on="0"/>
      </contour>
    </TTGlyph>
    <TTGlyph name="Ucircumflex" xMin="75" yMin="-5" xMax="733" yMax="917">
      <contour>
        <pt x="352" y="832" on="1"/>
        <pt x="465" y="917" on="1"/>
        <pt x="515" y="917" on="1"/>
        <pt x="590" y="832" on="1"/>
        <pt x="548" y="811" on="1"/>
        <pt x="480" y="874" on="1"/>
        <pt x="386" y="811" on="1"/>
      </contour>
      <contour>
        <pt x="298" y="-5" on="1"/>
        <pt x="236" y="-5" on="0"/>
        <pt x="150" y="32" on="0"/>
        <pt x="98" y="96" on="0"/>
        <pt x="75" y="181" on="0"/>
        <pt x="75" y="230" on="1"/>
        <pt x="75" y="287" on="0"/>
        <pt x="89" y="352" on="1"/>
        <pt x="165" y="710" on="1"/>
        <pt x="234" y="710" on="1"/>
        <pt x="158" y="352" on="1"/>
        <pt x="152" y="323" on="0"/>
        <pt x="145" y="268" on="0"/>
        <pt x="145" y="242" on="1"/>
        <pt x="145" y="203" on="0"/>
        <pt x="162" y="136" on="0"/>
        <pt x="201" y="87" on="0"/>
        <pt x="264" y="58" on="0"/>
        <pt x="310" y="58" on="1"/>
        <pt x="373" y="58" on="0"/>
        <pt x="468" y="109" on="0"/>
        <pt x="535" y="192" on="0"/>
        <pt x="577" y="298" on="0"/>
        <pt x="588" y="352" on="1"/>
        <pt x="664" y="710" on="1"/>
        <pt x="733" y="710" on="1"/>
        <pt x="658" y="352" on="1"/>
        <pt x="643" y="280" on="0"/>
        <pt x="585" y="150" on="0"/>
        <pt x="496" y="53" on="0"/>
        <pt x="376" y="-5" on="0"/>
      </contour>
    </TTGlyph>
    <TTGlyph name="Udblgrave" xMin="75" yMin="-5" xMax="733" yMax="918">
      <contour>
        <pt x="474" y="918" on="1"/>
        <pt x="535" y="918" on="1"/>
        <pt x="570" y="825" on="1"/>
        <pt x="529" y="808" on="1"/>
      </contour>
      <contour>
        <pt x="352" y="918" on="1"/>
        <pt x="415" y="918" on="1"/>
        <pt x="449" y="825" on="1"/>
        <pt x="408" y="808" on="1"/>
      </contour>
      <contour>
        <pt x="298" y="-5" on="1"/>
        <pt x="236" y="-5" on="0"/>
        <pt x="150" y="32" on="0"/>
        <pt x="98" y="96" on="0"/>
        <pt x="75" y="181" on="0"/>
        <pt x="75" y="230" on="1"/>
        <pt x="75" y="287" on="0"/>
        <pt x="89" y="352" on="1"/>
        <pt x="165" y="710" on="1"/>
        <pt x="234" y="710" on="1"/>
        <pt x="158" y="352" on="1"/>
        <pt x="152" y="323" on="0"/>
        <pt x="145" y="268" on="0"/>
        <pt x="145" y="242" on="1"/>
        <pt x="145" y="203" on="0"/>
        <pt x="162" y="136" on="0"/>
        <pt x="201" y="87" on="0"/>
        <pt x="264" y="58" on="0"/>
        <pt x="310" y="58" on="1"/>
        <pt x="373" y="58" on="0"/>
        <pt x="468" y="109" on="0"/>
        <pt x="535" y="192" on="0"/>
        <pt x="577" y="298" on="0"/>
        <pt x="588" y="352" on="1"/>
        <pt x="664" y="710" on="1"/>
        <pt x="733" y="710" on="1"/>
        <pt x="658" y="352" on="1"/>
        <pt x="643" y="280" on="0"/>
        <pt x="585" y="150" on="0"/>
        <pt x="496" y="53" on="0"/>
        <pt x="376" y="-5" on="0"/>
      </contour>
    </TTGlyph>
    <TTGlyph name="Udieresis" xMin="75" yMin="-5" xMax="733" yMax="914">
      <contour>
        <pt x="365" y="820" on="1"/>
        <pt x="386" y="914" on="1"/>
        <pt x="444" y="914" on="1"/>
        <pt x="423" y="820" on="1"/>
      </contour>
      <contour>
        <pt x="509" y="820" on="1"/>
        <pt x="529" y="914" on="1"/>
        <pt x="586" y="914" on="1"/>
        <pt x="567" y="820" on="1"/>
      </contour>
      <contour>
        <pt x="298" y="-5" on="1"/>
        <pt x="236" y="-5" on="0"/>
        <pt x="150" y="32" on="0"/>
        <pt x="98" y="96" on="0"/>
        <pt x="75" y="181" on="0"/>
        <pt x="75" y="230" on="1"/>
        <pt x="75" y="287" on="0"/>
        <pt x="89" y="352" on="1"/>
        <pt x="165" y="710" on="1"/>
        <pt x="234" y="710" on="1"/>
        <pt x="158" y="352" on="1"/>
        <pt x="152" y="323" on="0"/>
        <pt x="145" y="268" on="0"/>
        <pt x="145" y="242" on="1"/>
        <pt x="145" y="203" on="0"/>
        <pt x="162" y="136" on="0"/>
        <pt x="201" y="87" on="0"/>
        <pt x="264" y="58" on="0"/>
        <pt x="310" y="58" on="1"/>
        <pt x="373" y="58" on="0"/>
        <pt x="468" y="109" on="0"/>
        <pt x="535" y="192" on="0"/>
        <pt x="577" y="298" on="0"/>
        <pt x="588" y="352" on="1"/>
        <pt x="664" y="710" on="1"/>
        <pt x="733" y="710" on="1"/>
        <pt x="658" y="352" on="1"/>
        <pt x="643" y="280" on="0"/>
        <pt x="585" y="150" on="0"/>
        <pt x="496" y="53" on="0"/>
        <pt x="376" y="-5" on="0"/>
      </contour>
    </TTGlyph>
    <TTGlyph name="Udotbelow" xMin="75" yMin="-166" xMax="733" yMax="710">
      <contour>
        <pt x="298" y="-5" on="1"/>
        <pt x="236" y="-5" on="0"/>
        <pt x="150" y="32" on="0"/>
        <pt x="98" y="96" on="0"/>
        <pt x="75" y="181" on="0"/>
        <pt x="75" y="230" on="1"/>
        <pt x="75" y="287" on="0"/>
        <pt x="89" y="352" on="1"/>
        <pt x="165" y="710" on="1"/>
        <pt x="234" y="710" on="1"/>
        <pt x="158" y="352" on="1"/>
        <pt x="152" y="323" on="0"/>
        <pt x="145" y="268" on="0"/>
        <pt x="145" y="242" on="1"/>
        <pt x="145" y="203" on="0"/>
        <pt x="162" y="136" on="0"/>
        <pt x="201" y="87" on="0"/>
        <pt x="264" y="58" on="0"/>
        <pt x="310" y="58" on="1"/>
        <pt x="373" y="58" on="0"/>
        <pt x="468" y="109" on="0"/>
        <pt x="535" y="192" on="0"/>
        <pt x="577" y="298" on="0"/>
        <pt x="588" y="352" on="1"/>
        <pt x="664" y="710" on="1"/>
        <pt x="733" y="710" on="1"/>
        <pt x="658" y="352" on="1"/>
        <pt x="643" y="280" on="0"/>
        <pt x="585" y="150" on="0"/>
        <pt x="496" y="53" on="0"/>
        <pt x="376" y="-5" on="0"/>
      </contour>
      <contour>
        <pt x="229" y="-166" on="1"/>
        <pt x="249" y="-68" on="1"/>
        <pt x="311" y="-68" on="1"/>
        <pt x="291" y="-166" on="1"/>
      </contour>
    </TTGlyph>
    <TTGlyph name="Ugrave" xMin="75" yMin="-5" xMax="733" yMax="917">
      <contour>
        <pt x="298" y="-5" on="1"/>
        <pt x="236" y="-5" on="0"/>
        <pt x="150" y="32" on="0"/>
        <pt x="98" y="96" on="0"/>
        <pt x="75" y="181" on="0"/>
        <pt x="75" y="230" on="1"/>
        <pt x="75" y="287" on="0"/>
        <pt x="89" y="352" on="1"/>
        <pt x="165" y="710" on="1"/>
        <pt x="234" y="710" on="1"/>
        <pt x="158" y="352" on="1"/>
        <pt x="152" y="323" on="0"/>
        <pt x="145" y="268" on="0"/>
        <pt x="145" y="242" on="1"/>
        <pt x="145" y="203" on="0"/>
        <pt x="162" y="136" on="0"/>
        <pt x="201" y="87" on="0"/>
        <pt x="264" y="58" on="0"/>
        <pt x="310" y="58" on="1"/>
        <pt x="373" y="58" on="0"/>
        <pt x="468" y="109" on="0"/>
        <pt x="535" y="192" on="0"/>
        <pt x="577" y="298" on="0"/>
        <pt x="588" y="352" on="1"/>
        <pt x="664" y="710" on="1"/>
        <pt x="733" y="710" on="1"/>
        <pt x="658" y="352" on="1"/>
        <pt x="643" y="280" on="0"/>
        <pt x="585" y="150" on="0"/>
        <pt x="496" y="53" on="0"/>
        <pt x="376" y="-5" on="0"/>
      </contour>
      <contour>
        <pt x="409" y="917" on="1"/>
        <pt x="479" y="917" on="1"/>
        <pt x="517" y="824" on="1"/>
        <pt x="468" y="807" on="1"/>
      </contour>
    </TTGlyph>
    <TTGlyph name="Uhungarumlaut" xMin="75" yMin="-5" xMax="733" yMax="917">
      <contour>
        <pt x="298" y="-5" on="1"/>
        <pt x="236" y="-5" on="0"/>
        <pt x="150" y="32" on="0"/>
        <pt x="98" y="96" on="0"/>
        <pt x="75" y="181" on="0"/>
        <pt x="75" y="230" on="1"/>
        <pt x="75" y="287" on="0"/>
        <pt x="89" y="352" on="1"/>
        <pt x="165" y="710" on="1"/>
        <pt x="234" y="710" on="1"/>
        <pt x="158" y="352" on="1"/>
        <pt x="152" y="323" on="0"/>
        <pt x="145" y="268" on="0"/>
        <pt x="145" y="242" on="1"/>
        <pt x="145" y="203" on="0"/>
        <pt x="162" y="136" on="0"/>
        <pt x="201" y="87" on="0"/>
        <pt x="264" y="58" on="0"/>
        <pt x="310" y="58" on="1"/>
        <pt x="373" y="58" on="0"/>
        <pt x="468" y="109" on="0"/>
        <pt x="535" y="192" on="0"/>
        <pt x="577" y="298" on="0"/>
        <pt x="588" y="352" on="1"/>
        <pt x="664" y="710" on="1"/>
        <pt x="733" y="710" on="1"/>
        <pt x="658" y="352" on="1"/>
        <pt x="643" y="280" on="0"/>
        <pt x="585" y="150" on="0"/>
        <pt x="496" y="53" on="0"/>
        <pt x="376" y="-5" on="0"/>
      </contour>
      <contour>
        <pt x="390" y="807" on="1"/>
        <pt x="357" y="824" on="1"/>
        <pt x="430" y="917" on="1"/>
        <pt x="493" y="917" on="1"/>
      </contour>
      <contour>
        <pt x="511" y="807" on="1"/>
        <pt x="479" y="824" on="1"/>
        <pt x="552" y="917" on="1"/>
        <pt x="614" y="917" on="1"/>
      </contour>
    </TTGlyph>
    <TTGlyph name="Uinvertedbreve" xMin="75" yMin="-5" xMax="733" yMax="917">
      <contour>
        <pt x="378" y="816" on="1"/>
        <pt x="382" y="837" on="0"/>
        <pt x="404" y="874" on="0"/>
        <pt x="435" y="901" on="0"/>
        <pt x="473" y="917" on="0"/>
        <pt x="493" y="917" on="1"/>
        <pt x="528" y="917" on="0"/>
        <pt x="569" y="870" on="0"/>
        <pt x="569" y="837" on="1"/>
        <pt x="569" y="832" on="0"/>
        <pt x="569" y="821" on="0"/>
        <pt x="567" y="816" on="1"/>
        <pt x="527" y="816" on="1"/>
        <pt x="528" y="822" on="0"/>
        <pt x="529" y="832" on="0"/>
        <pt x="529" y="837" on="1"/>
        <pt x="529" y="882" on="0"/>
        <pt x="488" y="882" on="1"/>
        <pt x="458" y="882" on="0"/>
        <pt x="425" y="843" on="0"/>
        <pt x="418" y="816" on="1"/>
      </contour>
      <contour>
        <pt x="298" y="-5" on="1"/>
        <pt x="236" y="-5" on="0"/>
        <pt x="150" y="32" on="0"/>
        <pt x="98" y="96" on="0"/>
        <pt x="75" y="181" on="0"/>
        <pt x="75" y="230" on="1"/>
        <pt x="75" y="287" on="0"/>
        <pt x="89" y="352" on="1"/>
        <pt x="165" y="710" on="1"/>
        <pt x="234" y="710" on="1"/>
        <pt x="158" y="352" on="1"/>
        <pt x="152" y="323" on="0"/>
        <pt x="145" y="268" on="0"/>
        <pt x="145" y="242" on="1"/>
        <pt x="145" y="203" on="0"/>
        <pt x="162" y="136" on="0"/>
        <pt x="201" y="87" on="0"/>
        <pt x="264" y="58" on="0"/>
        <pt x="310" y="58" on="1"/>
        <pt x="373" y="58" on="0"/>
        <pt x="468" y="109" on="0"/>
        <pt x="535" y="192" on="0"/>
        <pt x="577" y="298" on="0"/>
        <pt x="588" y="352" on="1"/>
        <pt x="664" y="710" on="1"/>
        <pt x="733" y="710" on="1"/>
        <pt x="658" y="352" on="1"/>
        <pt x="643" y="280" on="0"/>
        <pt x="585" y="150" on="0"/>
        <pt x="496" y="53" on="0"/>
        <pt x="376" y="-5" on="0"/>
      </contour>
    </TTGlyph>
    <TTGlyph name="Umacron" xMin="75" yMin="-5" xMax="733" yMax="896">
      <contour>
        <pt x="298" y="-5" on="1"/>
        <pt x="236" y="-5" on="0"/>
        <pt x="150" y="32" on="0"/>
        <pt x="98" y="96" on="0"/>
        <pt x="75" y="181" on="0"/>
        <pt x="75" y="230" on="1"/>
        <pt x="75" y="287" on="0"/>
        <pt x="89" y="352" on="1"/>
        <pt x="165" y="710" on="1"/>
        <pt x="234" y="710" on="1"/>
        <pt x="158" y="352" on="1"/>
        <pt x="152" y="323" on="0"/>
        <pt x="145" y="268" on="0"/>
        <pt x="145" y="242" on="1"/>
        <pt x="145" y="203" on="0"/>
        <pt x="162" y="136" on="0"/>
        <pt x="201" y="87" on="0"/>
        <pt x="264" y="58" on="0"/>
        <pt x="310" y="58" on="1"/>
        <pt x="373" y="58" on="0"/>
        <pt x="468" y="109" on="0"/>
        <pt x="535" y="192" on="0"/>
        <pt x="577" y="298" on="0"/>
        <pt x="588" y="352" on="1"/>
        <pt x="664" y="710" on="1"/>
        <pt x="733" y="710" on="1"/>
        <pt x="658" y="352" on="1"/>
        <pt x="643" y="280" on="0"/>
        <pt x="585" y="150" on="0"/>
        <pt x="496" y="53" on="0"/>
        <pt x="376" y="-5" on="0"/>
      </contour>
      <contour>
        <pt x="336" y="849" on="1"/>
        <pt x="346" y="896" on="1"/>
        <pt x="621" y="896" on="1"/>
        <pt x="611" y="849" on="1"/>
      </contour>
    </TTGlyph>
    <TTGlyph name="Uogonek" xMin="75" yMin="-176" xMax="733" yMax="710">
      <contour>
        <pt x="238" y="-176" on="1"/>
        <pt x="208" y="-169" on="0"/>
        <pt x="178" y="-137" on="0"/>
        <pt x="178" y="-115" on="1"/>
        <pt x="178" y="-87" on="0"/>
        <pt x="221" y="-35" on="0"/>
        <pt x="269" y="-4" on="1"/>
        <pt x="215" y="0" on="0"/>
        <pt x="141" y="40" on="0"/>
        <pt x="95" y="103" on="0"/>
        <pt x="75" y="184" on="0"/>
        <pt x="75" y="230" on="1"/>
        <pt x="75" y="287" on="0"/>
        <pt x="89" y="352" on="1"/>
        <pt x="165" y="710" on="1"/>
        <pt x="234" y="710" on="1"/>
        <pt x="158" y="352" on="1"/>
        <pt x="152" y="323" on="0"/>
        <pt x="145" y="268" on="0"/>
        <pt x="145" y="242" on="1"/>
        <pt x="145" y="203" on="0"/>
        <pt x="162" y="136" on="0"/>
        <pt x="201" y="87" on="0"/>
        <pt x="264" y="58" on="0"/>
        <pt x="310" y="58" on="1"/>
        <pt x="373" y="58" on="0"/>
        <pt x="468" y="109" on="0"/>
        <pt x="535" y="192" on="0"/>
        <pt x="577" y="298" on="0"/>
        <pt x="588" y="352" on="1"/>
        <pt x="664" y="710" on="1"/>
        <pt x="733" y="710" on="1"/>
        <pt x="658" y="352" on="1"/>
        <pt x="643" y="282" on="0"/>
        <pt x="588" y="155" on="0"/>
        <pt x="503" y="58" on="0"/>
        <pt x="388" y="-1" on="0"/>
        <pt x="315" y="-4" on="1"/>
        <pt x="263" y="-35" on="0"/>
        <pt x="222" y="-79" on="0"/>
        <pt x="222" y="-102" on="1"/>
        <pt x="222" y="-132" on="0"/>
        <pt x="264" y="-138" on="1"/>
        <pt x="238" y="-176" on="1"/>
      </contour>
    </TTGlyph>
    <TTGlyph name="Uring" xMin="75" yMin="-5" xMax="733" yMax="917">
      <contour>
        <pt x="403" y="839" on="1"/>
        <pt x="403" y="874" on="0"/>
        <pt x="455" y="917" on="0"/>
        <pt x="490" y="917" on="1"/>
        <pt x="517" y="917" on="0"/>
        <pt x="548" y="888" on="0"/>
        <pt x="548" y="864" on="1"/>
        <pt x="548" y="830" on="0"/>
        <pt x="498" y="786" on="0"/>
        <pt x="461" y="786" on="1"/>
        <pt x="434" y="786" on="0"/>
        <pt x="403" y="815" on="0"/>
      </contour>
      <contour>
        <pt x="484" y="890" on="1"/>
        <pt x="466" y="890" on="0"/>
        <pt x="436" y="864" on="0"/>
        <pt x="436" y="844" on="1"/>
        <pt x="436" y="831" on="0"/>
        <pt x="453" y="813" on="0"/>
        <pt x="467" y="813" on="1"/>
        <pt x="484" y="813" on="0"/>
        <pt x="516" y="839" on="0"/>
        <pt x="516" y="859" on="1"/>
        <pt x="516" y="873" on="0"/>
        <pt x="498" y="890" on="0"/>
      </contour>
      <contour>
        <pt x="298" y="-5" on="1"/>
        <pt x="236" y="-5" on="0"/>
        <pt x="150" y="32" on="0"/>
        <pt x="98" y="96" on="0"/>
        <pt x="75" y="181" on="0"/>
        <pt x="75" y="230" on="1"/>
        <pt x="75" y="287" on="0"/>
        <pt x="89" y="352" on="1"/>
        <pt x="165" y="710" on="1"/>
        <pt x="234" y="710" on="1"/>
        <pt x="158" y="352" on="1"/>
        <pt x="152" y="323" on="0"/>
        <pt x="145" y="268" on="0"/>
        <pt x="145" y="242" on="1"/>
        <pt x="145" y="203" on="0"/>
        <pt x="162" y="136" on="0"/>
        <pt x="201" y="87" on="0"/>
        <pt x="264" y="58" on="0"/>
        <pt x="310" y="58" on="1"/>
        <pt x="373" y="58" on="0"/>
        <pt x="468" y="109" on="0"/>
        <pt x="535" y="192" on="0"/>
        <pt x="577" y="298" on="0"/>
        <pt x="588" y="352" on="1"/>
        <pt x="664" y="710" on="1"/>
        <pt x="733" y="710" on="1"/>
        <pt x="658" y="352" on="1"/>
        <pt x="643" y="280" on="0"/>
        <pt x="585" y="150" on="0"/>
        <pt x="496" y="53" on="0"/>
        <pt x="376" y="-5" on="0"/>
      </contour>
    </TTGlyph>
</ttFont>
